<?xml version="1.0" encoding="us-ascii" standalone="no"?><svg xmlns="http://www.w3.org/2000/svg" xmlns:xlink="http://www.w3.org/1999/xlink" contentStyleType="text/css" height="1519px" preserveAspectRatio="none" style="width:2808px;height:1519px;background:#FFFFFF;" version="1.1" viewBox="0 0 2808 1519" width="2808px" zoomAndPan="magnify"><defs/><g><text fill="#000000" font-family="sans-serif" font-size="14" font-weight="bold" lengthAdjust="spacing" textLength="384" x="1205" y="26.5332">Diagrama de Classes Detalhado - Simulador de Tr&#225;fego</text><!--cluster main--><g id="cluster_main"><rect fill="none" height="128" rx="7.5" ry="7.5" style="stroke:#808080;stroke-width:1.5;" width="178" x="1512" y="49.6094"/><text fill="#000000" font-family="Segoe UI" font-size="14" font-weight="bold" lengthAdjust="spacing" textLength="33" x="1584.5" y="68.7168">main</text></g><!--cluster controller--><g id="cluster_controller"><rect fill="none" height="653.5" rx="7.5" ry="7.5" style="stroke:#808080;stroke-width:1.5;" width="404" x="1084" y="61.1094"/><text fill="#000000" font-family="Segoe UI" font-size="14" font-weight="bold" lengthAdjust="spacing" textLength="66" x="1253" y="80.2168">controller</text></g><!--cluster view--><g id="cluster_view"><rect fill="none" height="1349.5" rx="7.5" ry="7.5" style="stroke:#808080;stroke-width:1.5;" width="705" x="355" y="61.1094"/><text fill="#000000" font-family="Segoe UI" font-size="14" font-weight="bold" lengthAdjust="spacing" textLength="31" x="692" y="80.2168">view</text></g><!--cluster model--><g id="cluster_model"><rect fill="none" height="1216" rx="7.5" ry="7.5" style="stroke:#808080;stroke-width:1.5;" width="1290" x="1512" y="297.6094"/><text fill="#000000" font-family="Segoe UI" font-size="14" font-weight="bold" lengthAdjust="spacing" textLength="43" x="2135.5" y="316.7168">model</text></g><!--cluster sincronizacao--><g id="cluster_sincronizacao"><rect fill="none" height="710" rx="7.5" ry="7.5" style="stroke:#808080;stroke-width:1.5;" width="688" x="2090" y="346.6094"/><text fill="#000000" font-family="Segoe UI" font-size="14" font-weight="bold" lengthAdjust="spacing" textLength="91" x="2388.5" y="365.7168">sincronizacao</text></g><!--cluster util--><g id="cluster_util"><rect fill="none" height="151" rx="7.5" ry="7.5" style="stroke:#808080;stroke-width:1.5;" width="324" x="7" y="392.1094"/><text fill="#000000" font-family="Segoe UI" font-size="14" font-weight="bold" lengthAdjust="spacing" textLength="21" x="158.5" y="411.2168">util</text></g><!--class Simulador--><g id="elem_Simulador"><rect codeLine="54" fill="#ADD8E6" height="70.8672" id="Simulador" rx="7.5" ry="7.5" style="stroke:#808000;stroke-width:0.5;" width="146" x="1528" y="90.6094"/><ellipse cx="1568.2" cy="106.6094" fill="#ADD1B2" rx="11" ry="11" style="stroke:#181818;stroke-width:1.0;"/><path d="M1570.9656,102.4844 Q1571.1219,102.2656 1571.3094,102.1563 Q1571.4969,102.0469 1571.7156,102.0469 Q1572.0906,102.0469 1572.325,102.3125 Q1572.5594,102.5625 1572.5594,103.1719 L1572.5594,104.625 Q1572.5594,105.2344 1572.325,105.5 Q1572.0906,105.7656 1571.7156,105.7656 Q1571.3719,105.7656 1571.1688,105.5625 Q1570.9656,105.375 1570.8563,104.8594 Q1570.8094,104.5 1570.6219,104.3125 Q1570.2938,103.9375 1569.6844,103.7188 Q1569.075,103.5 1568.45,103.5 Q1567.6844,103.5 1567.0438,103.8281 Q1566.4188,104.1563 1565.9188,104.9063 Q1565.4344,105.6563 1565.4344,106.6875 L1565.4344,107.7813 Q1565.4344,109.0156 1566.325,109.8438 Q1567.2156,110.6563 1568.8094,110.6563 Q1569.7469,110.6563 1570.4031,110.4063 Q1570.7938,110.25 1571.2156,109.8125 Q1571.4813,109.5469 1571.6219,109.4688 Q1571.7781,109.3906 1571.9813,109.3906 Q1572.3094,109.3906 1572.5594,109.6563 Q1572.825,109.9063 1572.825,110.25 Q1572.825,110.5938 1572.4813,111 Q1571.9813,111.5781 1571.1844,111.9063 Q1570.1063,112.3594 1568.8094,112.3594 Q1567.2938,112.3594 1566.0906,111.7344 Q1565.1063,111.2344 1564.4188,110.1719 Q1563.7313,109.0938 1563.7313,107.8125 L1563.7313,106.6563 Q1563.7313,105.3281 1564.3406,104.1875 Q1564.9656,103.0313 1566.0594,102.4219 Q1567.1531,101.7969 1568.3875,101.7969 Q1569.1219,101.7969 1569.7625,101.9688 Q1570.4188,102.125 1570.9656,102.4844 Z " fill="#000000"/><text fill="#000000" font-family="Segoe UI" font-size="12" lengthAdjust="spacing" textLength="54" x="1589.8" y="111.5781">Simulador</text><line style="stroke:#808000;stroke-width:0.5;" x1="1529" x2="1673" y1="122.6094" y2="122.6094"/><line style="stroke:#808000;stroke-width:0.5;" x1="1529" x2="1673" y1="130.6094" y2="130.6094"/><text fill="#000000" font-family="sans-serif" font-size="15" lengthAdjust="spacing" text-decoration="underline" textLength="130" x="1536" y="152.1807">+main(String[] args)</text></g><!--class SimuladorController--><g id="elem_SimuladorController"><rect codeLine="63" fill="#ADD8E6" height="436.7422" id="SimuladorController" rx="7.5" ry="7.5" style="stroke:#808000;stroke-width:0.5;" width="372" x="1100" y="261.6094"/><ellipse cx="1226.25" cy="277.6094" fill="#ADD1B2" rx="11" ry="11" style="stroke:#181818;stroke-width:1.0;"/><path d="M1229.0156,273.4844 Q1229.1719,273.2656 1229.3594,273.1563 Q1229.5469,273.0469 1229.7656,273.0469 Q1230.1406,273.0469 1230.375,273.3125 Q1230.6094,273.5625 1230.6094,274.1719 L1230.6094,275.625 Q1230.6094,276.2344 1230.375,276.5 Q1230.1406,276.7656 1229.7656,276.7656 Q1229.4219,276.7656 1229.2188,276.5625 Q1229.0156,276.375 1228.9063,275.8594 Q1228.8594,275.5 1228.6719,275.3125 Q1228.3438,274.9375 1227.7344,274.7188 Q1227.125,274.5 1226.5,274.5 Q1225.7344,274.5 1225.0938,274.8281 Q1224.4688,275.1563 1223.9688,275.9063 Q1223.4844,276.6563 1223.4844,277.6875 L1223.4844,278.7813 Q1223.4844,280.0156 1224.375,280.8438 Q1225.2656,281.6563 1226.8594,281.6563 Q1227.7969,281.6563 1228.4531,281.4063 Q1228.8438,281.25 1229.2656,280.8125 Q1229.5313,280.5469 1229.6719,280.4688 Q1229.8281,280.3906 1230.0313,280.3906 Q1230.3594,280.3906 1230.6094,280.6563 Q1230.875,280.9063 1230.875,281.25 Q1230.875,281.5938 1230.5313,282 Q1230.0313,282.5781 1229.2344,282.9063 Q1228.1563,283.3594 1226.8594,283.3594 Q1225.3438,283.3594 1224.1406,282.7344 Q1223.1563,282.2344 1222.4688,281.1719 Q1221.7813,280.0938 1221.7813,278.8125 L1221.7813,277.6563 Q1221.7813,276.3281 1222.3906,275.1875 Q1223.0156,274.0313 1224.1094,273.4219 Q1225.2031,272.7969 1226.4375,272.7969 Q1227.1719,272.7969 1227.8125,272.9688 Q1228.4688,273.125 1229.0156,273.4844 Z " fill="#000000"/><text fill="#000000" font-family="Segoe UI" font-size="12" lengthAdjust="spacing" textLength="107" x="1248.75" y="282.5781">SimuladorController</text><line style="stroke:#808000;stroke-width:0.5;" x1="1101" x2="1471" y1="293.6094" y2="293.6094"/><text fill="#000000" font-family="sans-serif" font-size="15" lengthAdjust="spacing" textLength="149" x="1108" y="315.1807">-janela: JanelaPrincipal</text><text fill="#000000" font-family="sans-serif" font-size="15" lengthAdjust="spacing" textLength="201" x="1108" y="338.0479">-painelControle: PainelControle</text><text fill="#000000" font-family="sans-serif" font-size="15" lengthAdjust="spacing" textLength="167" x="1108" y="360.915">-painelMalha: PainelMalha</text><text fill="#000000" font-family="sans-serif" font-size="15" lengthAdjust="spacing" textLength="91" x="1108" y="383.7822">-malha: Malha</text><text fill="#000000" font-family="sans-serif" font-size="15" lengthAdjust="spacing" textLength="154" x="1108" y="406.6494">-veiculos: List&lt;Veiculo&gt;</text><text fill="#000000" font-family="sans-serif" font-size="15" lengthAdjust="spacing" textLength="188" x="1108" y="429.5166">-threadGerenciadora: Thread</text><text fill="#000000" font-family="sans-serif" font-size="15" lengthAdjust="spacing" textLength="220" x="1108" y="452.3838">-{volatile} simulacaoAtiva: boolean</text><text fill="#000000" font-family="sans-serif" font-size="15" lengthAdjust="spacing" textLength="249" x="1108" y="475.251">-{volatile} podeInserirVeiculos: boolean</text><text fill="#000000" font-family="sans-serif" font-size="15" lengthAdjust="spacing" textLength="356" x="1108" y="498.1182">-gerenciadorSincronizacao: GerenciadorSincronizacao</text><line style="stroke:#808000;stroke-width:0.5;" x1="1101" x2="1471" y1="507.4141" y2="507.4141"/><text fill="#000000" font-family="sans-serif" font-size="15" lengthAdjust="spacing" textLength="148" x="1108" y="528.9854">+SimuladorController()</text><text fill="#000000" font-family="sans-serif" font-size="15" lengthAdjust="spacing" textLength="77" x="1108" y="551.8525">-iniciarGUI()</text><text fill="#000000" font-family="sans-serif" font-size="15" lengthAdjust="spacing" textLength="167" x="1108" y="574.7197">-carregarMalha(): boolean</text><text fill="#000000" font-family="sans-serif" font-size="15" lengthAdjust="spacing" textLength="125" x="1108" y="597.5869">-conectarEventos()</text><text fill="#000000" font-family="sans-serif" font-size="15" lengthAdjust="spacing" textLength="122" x="1108" y="620.4541">-iniciarSimulacao()</text><text fill="#000000" font-family="sans-serif" font-size="15" lengthAdjust="spacing" textLength="126" x="1108" y="643.3213">-encerrarInsercao()</text><text fill="#000000" font-family="sans-serif" font-size="15" lengthAdjust="spacing" textLength="139" x="1108" y="666.1885">-encerrarSimulacao()</text><text fill="#000000" font-family="sans-serif" font-size="15" lengthAdjust="spacing" textLength="40" x="1108" y="689.0557">+run()</text></g><!--class Runnable--><g id="elem_Runnable"><rect fill="#ADD8E6" height="48" id="Runnable" rx="7.5" ry="7.5" style="stroke:#808000;stroke-width:0.5;" width="87" x="1242.5" y="102.1094"/><ellipse cx="1257.5" cy="118.1094" fill="#B4A7E5" rx="11" ry="11" style="stroke:#181818;stroke-width:1.0;"/><path d="M1258.4531,114.75 L1258.4531,121.4063 L1260.1719,121.4063 Q1260.7813,121.4063 1261.0469,121.6406 Q1261.3125,121.875 1261.3125,122.2656 Q1261.3125,122.6406 1261.0469,122.875 Q1260.7813,123.1094 1260.1719,123.1094 L1255.0313,123.1094 Q1254.4219,123.1094 1254.1563,122.875 Q1253.8906,122.6406 1253.8906,122.25 Q1253.8906,121.875 1254.1563,121.6406 Q1254.4219,121.4063 1255.0313,121.4063 L1256.75,121.4063 L1256.75,114.75 L1255.0313,114.75 Q1254.4219,114.75 1254.1563,114.5156 Q1253.8906,114.2813 1253.8906,113.8906 Q1253.8906,113.5156 1254.1563,113.2813 Q1254.4219,113.0469 1255.0313,113.0469 L1260.1719,113.0469 Q1260.7813,113.0469 1261.0469,113.2813 Q1261.3125,113.5156 1261.3125,113.8906 Q1261.3125,114.2813 1261.0469,114.5156 Q1260.7813,114.75 1260.1719,114.75 L1258.4531,114.75 Z " fill="#000000"/><text fill="#000000" font-family="Segoe UI" font-size="12" font-style="italic" lengthAdjust="spacing" textLength="51" x="1273.5" y="123.0781">Runnable</text><line style="stroke:#808000;stroke-width:0.5;" x1="1243.5" x2="1328.5" y1="134.1094" y2="134.1094"/><line style="stroke:#808000;stroke-width:0.5;" x1="1243.5" x2="1328.5" y1="142.1094" y2="142.1094"/></g><!--class JanelaPrincipal--><g id="elem_JanelaPrincipal"><rect codeLine="88" fill="#ADD8E6" height="162.3359" id="JanelaPrincipal" rx="7.5" ry="7.5" style="stroke:#808000;stroke-width:0.5;" width="253" x="696.5" y="399.1094"/><ellipse cx="777.75" cy="415.1094" fill="#ADD1B2" rx="11" ry="11" style="stroke:#181818;stroke-width:1.0;"/><path d="M780.5156,410.9844 Q780.6719,410.7656 780.8594,410.6563 Q781.0469,410.5469 781.2656,410.5469 Q781.6406,410.5469 781.875,410.8125 Q782.1094,411.0625 782.1094,411.6719 L782.1094,413.125 Q782.1094,413.7344 781.875,414 Q781.6406,414.2656 781.2656,414.2656 Q780.9219,414.2656 780.7188,414.0625 Q780.5156,413.875 780.4063,413.3594 Q780.3594,413 780.1719,412.8125 Q779.8438,412.4375 779.2344,412.2188 Q778.625,412 778,412 Q777.2344,412 776.5938,412.3281 Q775.9688,412.6563 775.4688,413.4063 Q774.9844,414.1563 774.9844,415.1875 L774.9844,416.2813 Q774.9844,417.5156 775.875,418.3438 Q776.7656,419.1563 778.3594,419.1563 Q779.2969,419.1563 779.9531,418.9063 Q780.3438,418.75 780.7656,418.3125 Q781.0313,418.0469 781.1719,417.9688 Q781.3281,417.8906 781.5313,417.8906 Q781.8594,417.8906 782.1094,418.1563 Q782.375,418.4063 782.375,418.75 Q782.375,419.0938 782.0313,419.5 Q781.5313,420.0781 780.7344,420.4063 Q779.6563,420.8594 778.3594,420.8594 Q776.8438,420.8594 775.6406,420.2344 Q774.6563,419.7344 773.9688,418.6719 Q773.2813,417.5938 773.2813,416.3125 L773.2813,415.1563 Q773.2813,413.8281 773.8906,412.6875 Q774.5156,411.5313 775.6094,410.9219 Q776.7031,410.2969 777.9375,410.2969 Q778.6719,410.2969 779.3125,410.4688 Q779.9688,410.625 780.5156,410.9844 Z " fill="#000000"/><text fill="#000000" font-family="Segoe UI" font-size="12" lengthAdjust="spacing" textLength="78" x="800.25" y="420.0781">JanelaPrincipal</text><line style="stroke:#808000;stroke-width:0.5;" x1="697.5" x2="948.5" y1="431.1094" y2="431.1094"/><text fill="#000000" font-family="sans-serif" font-size="15" lengthAdjust="spacing" textLength="167" x="704.5" y="452.6807">-painelMalha: PainelMalha</text><text fill="#000000" font-family="sans-serif" font-size="15" lengthAdjust="spacing" textLength="201" x="704.5" y="475.5479">-painelControle: PainelControle</text><line style="stroke:#808000;stroke-width:0.5;" x1="697.5" x2="948.5" y1="484.8438" y2="484.8438"/><text fill="#000000" font-family="sans-serif" font-size="15" lengthAdjust="spacing" textLength="117" x="704.5" y="506.415">+JanelaPrincipal()</text><text fill="#000000" font-family="sans-serif" font-size="15" lengthAdjust="spacing" textLength="203" x="704.5" y="529.2822">+getPainelMalha(): PainelMalha</text><text fill="#000000" font-family="sans-serif" font-size="15" lengthAdjust="spacing" textLength="237" x="704.5" y="552.1494">+getPainelControle(): PainelControle</text></g><!--class JFrame--><g id="elem_JFrame"><rect fill="#ADD8E6" height="48" id="JFrame" rx="7.5" ry="7.5" style="stroke:#808000;stroke-width:0.5;" width="73" x="786.5" y="102.1094"/><ellipse cx="801.5" cy="118.1094" fill="#ADD1B2" rx="11" ry="11" style="stroke:#181818;stroke-width:1.0;"/><path d="M804.2656,113.9844 Q804.4219,113.7656 804.6094,113.6563 Q804.7969,113.5469 805.0156,113.5469 Q805.3906,113.5469 805.625,113.8125 Q805.8594,114.0625 805.8594,114.6719 L805.8594,116.125 Q805.8594,116.7344 805.625,117 Q805.3906,117.2656 805.0156,117.2656 Q804.6719,117.2656 804.4688,117.0625 Q804.2656,116.875 804.1563,116.3594 Q804.1094,116 803.9219,115.8125 Q803.5938,115.4375 802.9844,115.2188 Q802.375,115 801.75,115 Q800.9844,115 800.3438,115.3281 Q799.7188,115.6563 799.2188,116.4063 Q798.7344,117.1563 798.7344,118.1875 L798.7344,119.2813 Q798.7344,120.5156 799.625,121.3438 Q800.5156,122.1563 802.1094,122.1563 Q803.0469,122.1563 803.7031,121.9063 Q804.0938,121.75 804.5156,121.3125 Q804.7813,121.0469 804.9219,120.9688 Q805.0781,120.8906 805.2813,120.8906 Q805.6094,120.8906 805.8594,121.1563 Q806.125,121.4063 806.125,121.75 Q806.125,122.0938 805.7813,122.5 Q805.2813,123.0781 804.4844,123.4063 Q803.4063,123.8594 802.1094,123.8594 Q800.5938,123.8594 799.3906,123.2344 Q798.4063,122.7344 797.7188,121.6719 Q797.0313,120.5938 797.0313,119.3125 L797.0313,118.1563 Q797.0313,116.8281 797.6406,115.6875 Q798.2656,114.5313 799.3594,113.9219 Q800.4531,113.2969 801.6875,113.2969 Q802.4219,113.2969 803.0625,113.4688 Q803.7188,113.625 804.2656,113.9844 Z " fill="#000000"/><text fill="#000000" font-family="Segoe UI" font-size="12" lengthAdjust="spacing" textLength="37" x="817.5" y="123.0781">JFrame</text><line style="stroke:#808000;stroke-width:0.5;" x1="787.5" x2="858.5" y1="134.1094" y2="134.1094"/><line style="stroke:#808000;stroke-width:0.5;" x1="787.5" x2="858.5" y1="142.1094" y2="142.1094"/></g><!--class PainelControle--><g id="elem_PainelControle"><rect codeLine="96" fill="#ADD8E6" height="276.6719" id="PainelControle" rx="7.5" ry="7.5" style="stroke:#808000;stroke-width:0.5;" width="249" x="371.5" y="832.6094"/><ellipse cx="450.75" cy="848.6094" fill="#ADD1B2" rx="11" ry="11" style="stroke:#181818;stroke-width:1.0;"/><path d="M453.5156,844.4844 Q453.6719,844.2656 453.8594,844.1563 Q454.0469,844.0469 454.2656,844.0469 Q454.6406,844.0469 454.875,844.3125 Q455.1094,844.5625 455.1094,845.1719 L455.1094,846.625 Q455.1094,847.2344 454.875,847.5 Q454.6406,847.7656 454.2656,847.7656 Q453.9219,847.7656 453.7188,847.5625 Q453.5156,847.375 453.4063,846.8594 Q453.3594,846.5 453.1719,846.3125 Q452.8438,845.9375 452.2344,845.7188 Q451.625,845.5 451,845.5 Q450.2344,845.5 449.5938,845.8281 Q448.9688,846.1563 448.4688,846.9063 Q447.9844,847.6563 447.9844,848.6875 L447.9844,849.7813 Q447.9844,851.0156 448.875,851.8438 Q449.7656,852.6563 451.3594,852.6563 Q452.2969,852.6563 452.9531,852.4063 Q453.3438,852.25 453.7656,851.8125 Q454.0313,851.5469 454.1719,851.4688 Q454.3281,851.3906 454.5313,851.3906 Q454.8594,851.3906 455.1094,851.6563 Q455.375,851.9063 455.375,852.25 Q455.375,852.5938 455.0313,853 Q454.5313,853.5781 453.7344,853.9063 Q452.6563,854.3594 451.3594,854.3594 Q449.8438,854.3594 448.6406,853.7344 Q447.6563,853.2344 446.9688,852.1719 Q446.2813,851.0938 446.2813,849.8125 L446.2813,848.6563 Q446.2813,847.3281 446.8906,846.1875 Q447.5156,845.0313 448.6094,844.4219 Q449.7031,843.7969 450.9375,843.7969 Q451.6719,843.7969 452.3125,843.9688 Q452.9688,844.125 453.5156,844.4844 Z " fill="#000000"/><text fill="#000000" font-family="Segoe UI" font-size="12" lengthAdjust="spacing" textLength="78" x="473.25" y="853.5781">PainelControle</text><line style="stroke:#808000;stroke-width:0.5;" x1="372.5" x2="619.5" y1="864.6094" y2="864.6094"/><text fill="#000000" font-family="sans-serif" font-size="15" lengthAdjust="spacing" textLength="173" x="379.5" y="886.1807">-txtQtdVeiculos: JTextField</text><text fill="#000000" font-family="sans-serif" font-size="15" lengthAdjust="spacing" textLength="148" x="379.5" y="909.0479">-txtIntervalo: JTextField</text><text fill="#000000" font-family="sans-serif" font-size="15" lengthAdjust="spacing" textLength="177" x="379.5" y="931.915">-rbSemaforo: JRadioButton</text><text fill="#000000" font-family="sans-serif" font-size="15" lengthAdjust="spacing" textLength="160" x="379.5" y="954.7822">-rbMonitor: JRadioButton</text><text fill="#000000" font-family="sans-serif" font-size="15" lengthAdjust="spacing" textLength="120" x="379.5" y="977.6494">-btnIniciar: JButton</text><text fill="#000000" font-family="sans-serif" font-size="15" lengthAdjust="spacing" textLength="195" x="379.5" y="1000.5166">-btnEncerrarInsercao: JButton</text><text fill="#000000" font-family="sans-serif" font-size="15" lengthAdjust="spacing" textLength="208" x="379.5" y="1023.3838">-btnEncerrarSimulacao: JButton</text><line style="stroke:#808000;stroke-width:0.5;" x1="372.5" x2="619.5" y1="1032.6797" y2="1032.6797"/><text fill="#000000" font-family="sans-serif" font-size="15" lengthAdjust="spacing" textLength="164" x="379.5" y="1054.251">+getQtdVeiculos(): String</text><text fill="#000000" font-family="sans-serif" font-size="15" lengthAdjust="spacing" textLength="139" x="379.5" y="1077.1182">+getIntervalo(): String</text><text fill="#000000" font-family="sans-serif" font-size="15" lengthAdjust="spacing" textLength="233" x="379.5" y="1099.9854">+isSemaforoSelecionado(): boolean</text></g><!--class PainelMalha--><g id="elem_PainelMalha"><rect codeLine="109" fill="#ADD8E6" height="208.0703" id="PainelMalha" rx="7.5" ry="7.5" style="stroke:#808000;stroke-width:0.5;" width="273" x="770.5" y="867.1094"/><ellipse cx="868.25" cy="883.1094" fill="#ADD1B2" rx="11" ry="11" style="stroke:#181818;stroke-width:1.0;"/><path d="M871.0156,878.9844 Q871.1719,878.7656 871.3594,878.6563 Q871.5469,878.5469 871.7656,878.5469 Q872.1406,878.5469 872.375,878.8125 Q872.6094,879.0625 872.6094,879.6719 L872.6094,881.125 Q872.6094,881.7344 872.375,882 Q872.1406,882.2656 871.7656,882.2656 Q871.4219,882.2656 871.2188,882.0625 Q871.0156,881.875 870.9063,881.3594 Q870.8594,881 870.6719,880.8125 Q870.3438,880.4375 869.7344,880.2188 Q869.125,880 868.5,880 Q867.7344,880 867.0938,880.3281 Q866.4688,880.6563 865.9688,881.4063 Q865.4844,882.1563 865.4844,883.1875 L865.4844,884.2813 Q865.4844,885.5156 866.375,886.3438 Q867.2656,887.1563 868.8594,887.1563 Q869.7969,887.1563 870.4531,886.9063 Q870.8438,886.75 871.2656,886.3125 Q871.5313,886.0469 871.6719,885.9688 Q871.8281,885.8906 872.0313,885.8906 Q872.3594,885.8906 872.6094,886.1563 Q872.875,886.4063 872.875,886.75 Q872.875,887.0938 872.5313,887.5 Q872.0313,888.0781 871.2344,888.4063 Q870.1563,888.8594 868.8594,888.8594 Q867.3438,888.8594 866.1406,888.2344 Q865.1563,887.7344 864.4688,886.6719 Q863.7813,885.5938 863.7813,884.3125 L863.7813,883.1563 Q863.7813,881.8281 864.3906,880.6875 Q865.0156,879.5313 866.1094,878.9219 Q867.2031,878.2969 868.4375,878.2969 Q869.1719,878.2969 869.8125,878.4688 Q870.4688,878.625 871.0156,878.9844 Z " fill="#000000"/><text fill="#000000" font-family="Segoe UI" font-size="12" lengthAdjust="spacing" textLength="65" x="890.75" y="888.0781">PainelMalha</text><line style="stroke:#808000;stroke-width:0.5;" x1="771.5" x2="1042.5" y1="899.1094" y2="899.1094"/><text fill="#000000" font-family="sans-serif" font-size="15" lengthAdjust="spacing" textLength="91" x="778.5" y="920.6807">-malha: Malha</text><text fill="#000000" font-family="sans-serif" font-size="15" lengthAdjust="spacing" textLength="154" x="778.5" y="943.5479">-veiculos: List&lt;Veiculo&gt;</text><line style="stroke:#808000;stroke-width:0.5;" x1="771.5" x2="1042.5" y1="952.8438" y2="952.8438"/><text fill="#000000" font-family="sans-serif" font-size="15" lengthAdjust="spacing" textLength="159" x="778.5" y="974.415">+setMalha(Malha malha)</text><text fill="#000000" font-family="sans-serif" font-size="15" lengthAdjust="spacing" textLength="239" x="778.5" y="997.2822">+setVeiculos(List&lt;Veiculo&gt; veiculos)</text><text fill="#000000" font-family="sans-serif" font-size="15" lengthAdjust="spacing" textLength="196" x="778.5" y="1020.1494">#paintComponent(Graphics g)</text><text fill="#000000" font-family="sans-serif" font-size="15" lengthAdjust="spacing" textLength="240" x="778.5" y="1043.0166">-desenharMalha(Graphics2D g2d, ...)</text><text fill="#000000" font-family="sans-serif" font-size="15" lengthAdjust="spacing" textLength="257" x="778.5" y="1065.8838">-desenharVeiculos(Graphics2D g2d, ...)</text></g><!--class JPanel--><g id="elem_JPanel"><rect fill="#ADD8E6" height="48" id="JPanel" rx="7.5" ry="7.5" style="stroke:#808000;stroke-width:0.5;" width="69" x="666.5" y="1346.6094"/><ellipse cx="681.5" cy="1362.6094" fill="#ADD1B2" rx="11" ry="11" style="stroke:#181818;stroke-width:1.0;"/><path d="M684.2656,1358.4844 Q684.4219,1358.2656 684.6094,1358.1563 Q684.7969,1358.0469 685.0156,1358.0469 Q685.3906,1358.0469 685.625,1358.3125 Q685.8594,1358.5625 685.8594,1359.1719 L685.8594,1360.625 Q685.8594,1361.2344 685.625,1361.5 Q685.3906,1361.7656 685.0156,1361.7656 Q684.6719,1361.7656 684.4688,1361.5625 Q684.2656,1361.375 684.1563,1360.8594 Q684.1094,1360.5 683.9219,1360.3125 Q683.5938,1359.9375 682.9844,1359.7188 Q682.375,1359.5 681.75,1359.5 Q680.9844,1359.5 680.3438,1359.8281 Q679.7188,1360.1563 679.2188,1360.9063 Q678.7344,1361.6563 678.7344,1362.6875 L678.7344,1363.7813 Q678.7344,1365.0156 679.625,1365.8438 Q680.5156,1366.6563 682.1094,1366.6563 Q683.0469,1366.6563 683.7031,1366.4063 Q684.0938,1366.25 684.5156,1365.8125 Q684.7813,1365.5469 684.9219,1365.4688 Q685.0781,1365.3906 685.2813,1365.3906 Q685.6094,1365.3906 685.8594,1365.6563 Q686.125,1365.9063 686.125,1366.25 Q686.125,1366.5938 685.7813,1367 Q685.2813,1367.5781 684.4844,1367.9063 Q683.4063,1368.3594 682.1094,1368.3594 Q680.5938,1368.3594 679.3906,1367.7344 Q678.4063,1367.2344 677.7188,1366.1719 Q677.0313,1365.0938 677.0313,1363.8125 L677.0313,1362.6563 Q677.0313,1361.3281 677.6406,1360.1875 Q678.2656,1359.0313 679.3594,1358.4219 Q680.4531,1357.7969 681.6875,1357.7969 Q682.4219,1357.7969 683.0625,1357.9688 Q683.7188,1358.125 684.2656,1358.4844 Z " fill="#000000"/><text fill="#000000" font-family="Segoe UI" font-size="12" lengthAdjust="spacing" textLength="33" x="697.5" y="1367.5781">JPanel</text><line style="stroke:#808000;stroke-width:0.5;" x1="667.5" x2="734.5" y1="1378.6094" y2="1378.6094"/><line style="stroke:#808000;stroke-width:0.5;" x1="667.5" x2="734.5" y1="1386.6094" y2="1386.6094"/></g><!--class Veiculo--><g id="elem_Veiculo"><rect codeLine="124" fill="#ADD8E6" height="345.2734" id="Veiculo" rx="7.5" ry="7.5" style="stroke:#808000;stroke-width:0.5;" width="428" x="1528" y="798.6094"/><ellipse cx="1716.25" cy="814.6094" fill="#ADD1B2" rx="11" ry="11" style="stroke:#181818;stroke-width:1.0;"/><path d="M1719.0156,810.4844 Q1719.1719,810.2656 1719.3594,810.1563 Q1719.5469,810.0469 1719.7656,810.0469 Q1720.1406,810.0469 1720.375,810.3125 Q1720.6094,810.5625 1720.6094,811.1719 L1720.6094,812.625 Q1720.6094,813.2344 1720.375,813.5 Q1720.1406,813.7656 1719.7656,813.7656 Q1719.4219,813.7656 1719.2188,813.5625 Q1719.0156,813.375 1718.9063,812.8594 Q1718.8594,812.5 1718.6719,812.3125 Q1718.3438,811.9375 1717.7344,811.7188 Q1717.125,811.5 1716.5,811.5 Q1715.7344,811.5 1715.0938,811.8281 Q1714.4688,812.1563 1713.9688,812.9063 Q1713.4844,813.6563 1713.4844,814.6875 L1713.4844,815.7813 Q1713.4844,817.0156 1714.375,817.8438 Q1715.2656,818.6563 1716.8594,818.6563 Q1717.7969,818.6563 1718.4531,818.4063 Q1718.8438,818.25 1719.2656,817.8125 Q1719.5313,817.5469 1719.6719,817.4688 Q1719.8281,817.3906 1720.0313,817.3906 Q1720.3594,817.3906 1720.6094,817.6563 Q1720.875,817.9063 1720.875,818.25 Q1720.875,818.5938 1720.5313,819 Q1720.0313,819.5781 1719.2344,819.9063 Q1718.1563,820.3594 1716.8594,820.3594 Q1715.3438,820.3594 1714.1406,819.7344 Q1713.1563,819.2344 1712.4688,818.1719 Q1711.7813,817.0938 1711.7813,815.8125 L1711.7813,814.6563 Q1711.7813,813.3281 1712.3906,812.1875 Q1713.0156,811.0313 1714.1094,810.4219 Q1715.2031,809.7969 1716.4375,809.7969 Q1717.1719,809.7969 1717.8125,809.9688 Q1718.4688,810.125 1719.0156,810.4844 Z " fill="#000000"/><text fill="#000000" font-family="Segoe UI" font-size="12" lengthAdjust="spacing" textLength="39" x="1738.75" y="819.5781">Veiculo</text><line style="stroke:#808000;stroke-width:0.5;" x1="1529" x2="1955" y1="830.6094" y2="830.6094"/><text fill="#000000" font-family="sans-serif" font-size="15" lengthAdjust="spacing" text-decoration="underline" textLength="96" x="1536" y="852.1807">-contadorId: int</text><text fill="#000000" font-family="sans-serif" font-size="15" lengthAdjust="spacing" textLength="39" x="1536" y="875.0479">-id: int</text><text fill="#000000" font-family="sans-serif" font-size="15" lengthAdjust="spacing" textLength="97" x="1536" y="897.915">-posicao: Point</text><text fill="#000000" font-family="sans-serif" font-size="15" lengthAdjust="spacing" textLength="97" x="1536" y="920.7822">-velocidade: int</text><text fill="#000000" font-family="sans-serif" font-size="15" lengthAdjust="spacing" textLength="91" x="1536" y="943.6494">-malha: Malha</text><text fill="#000000" font-family="sans-serif" font-size="15" lengthAdjust="spacing" textLength="129" x="1536" y="966.5166">-painel: PainelMalha</text><text fill="#000000" font-family="sans-serif" font-size="15" lengthAdjust="spacing" textLength="356" x="1536" y="989.3838">-gerenciadorSincronizacao: GerenciadorSincronizacao</text><text fill="#000000" font-family="sans-serif" font-size="15" lengthAdjust="spacing" textLength="214" x="1536" y="1012.251">-caminhoReservado: List&lt;Point&gt;</text><line style="stroke:#808000;stroke-width:0.5;" x1="1529" x2="1955" y1="1021.5469" y2="1021.5469"/><text fill="#000000" font-family="sans-serif" font-size="15" lengthAdjust="spacing" textLength="412" x="1536" y="1043.1182">+Veiculo(Point, Malha, PainelMalha, GerenciadorSincronizacao)</text><text fill="#000000" font-family="sans-serif" font-size="15" lengthAdjust="spacing" textLength="40" x="1536" y="1065.9854">+run()</text><text fill="#000000" font-family="sans-serif" font-size="15" lengthAdjust="spacing" textLength="229" x="1536" y="1088.8525">-moverPara(Point proximaPosicao)</text><text fill="#000000" font-family="sans-serif" font-size="15" lengthAdjust="spacing" textLength="289" x="1536" y="1111.7197">-atravessarCruzamento(Point pontoEntrada)</text><text fill="#000000" font-family="sans-serif" font-size="15" lengthAdjust="spacing" textLength="394" x="1536" y="1134.5869">-planejarCaminhoCompleto(Point pontoEntrada): List&lt;Point&gt;</text></g><!--class Malha--><g id="elem_Malha"><rect codeLine="140" fill="#ADD8E6" height="253.8047" id="Malha" rx="7.5" ry="7.5" style="stroke:#808000;stroke-width:0.5;" width="354" x="1565" y="1243.6094"/><ellipse cx="1719.25" cy="1259.6094" fill="#ADD1B2" rx="11" ry="11" style="stroke:#181818;stroke-width:1.0;"/><path d="M1722.0156,1255.4844 Q1722.1719,1255.2656 1722.3594,1255.1563 Q1722.5469,1255.0469 1722.7656,1255.0469 Q1723.1406,1255.0469 1723.375,1255.3125 Q1723.6094,1255.5625 1723.6094,1256.1719 L1723.6094,1257.625 Q1723.6094,1258.2344 1723.375,1258.5 Q1723.1406,1258.7656 1722.7656,1258.7656 Q1722.4219,1258.7656 1722.2188,1258.5625 Q1722.0156,1258.375 1721.9063,1257.8594 Q1721.8594,1257.5 1721.6719,1257.3125 Q1721.3438,1256.9375 1720.7344,1256.7188 Q1720.125,1256.5 1719.5,1256.5 Q1718.7344,1256.5 1718.0938,1256.8281 Q1717.4688,1257.1563 1716.9688,1257.9063 Q1716.4844,1258.6563 1716.4844,1259.6875 L1716.4844,1260.7813 Q1716.4844,1262.0156 1717.375,1262.8438 Q1718.2656,1263.6563 1719.8594,1263.6563 Q1720.7969,1263.6563 1721.4531,1263.4063 Q1721.8438,1263.25 1722.2656,1262.8125 Q1722.5313,1262.5469 1722.6719,1262.4688 Q1722.8281,1262.3906 1723.0313,1262.3906 Q1723.3594,1262.3906 1723.6094,1262.6563 Q1723.875,1262.9063 1723.875,1263.25 Q1723.875,1263.5938 1723.5313,1264 Q1723.0313,1264.5781 1722.2344,1264.9063 Q1721.1563,1265.3594 1719.8594,1265.3594 Q1718.3438,1265.3594 1717.1406,1264.7344 Q1716.1563,1264.2344 1715.4688,1263.1719 Q1714.7813,1262.0938 1714.7813,1260.8125 L1714.7813,1259.6563 Q1714.7813,1258.3281 1715.3906,1257.1875 Q1716.0156,1256.0313 1717.1094,1255.4219 Q1718.2031,1254.7969 1719.4375,1254.7969 Q1720.1719,1254.7969 1720.8125,1254.9688 Q1721.4688,1255.125 1722.0156,1255.4844 Z " fill="#000000"/><text fill="#000000" font-family="Segoe UI" font-size="12" lengthAdjust="spacing" textLength="33" x="1741.75" y="1264.5781">Malha</text><line style="stroke:#808000;stroke-width:0.5;" x1="1566" x2="1918" y1="1275.6094" y2="1275.6094"/><text fill="#000000" font-family="sans-serif" font-size="15" lengthAdjust="spacing" textLength="68" x="1573" y="1297.1807">-grid: int[][]</text><text fill="#000000" font-family="sans-serif" font-size="15" lengthAdjust="spacing" textLength="201" x="1573" y="1320.0479">-pontosDeEntrada: List&lt;Point&gt;</text><text fill="#000000" font-family="sans-serif" font-size="15" lengthAdjust="spacing" textLength="187" x="1573" y="1342.915">-pontosDeSaida: List&lt;Point&gt;</text><text fill="#000000" font-family="sans-serif" font-size="15" lengthAdjust="spacing" textLength="302" x="1573" y="1365.7822">-semaforosDaMalha: Map&lt;Point, Semaphore&gt;</text><text fill="#000000" font-family="sans-serif" font-size="15" lengthAdjust="spacing" textLength="252" x="1573" y="1388.6494">-monitoresDaMalha: Map&lt;Point, Lock&gt;</text><line style="stroke:#808000;stroke-width:0.5;" x1="1566" x2="1918" y1="1397.9453" y2="1397.9453"/><text fill="#000000" font-family="sans-serif" font-size="15" lengthAdjust="spacing" textLength="69" x="1573" y="1419.5166">+Malha(...)</text><text fill="#000000" font-family="sans-serif" font-size="15" lengthAdjust="spacing" textLength="338" x="1573" y="1442.3838">+getSemaforosDaMalha(): Map&lt;Point, Semaphore&gt;</text><text fill="#000000" font-family="sans-serif" font-size="15" lengthAdjust="spacing" textLength="284" x="1573" y="1465.251">+getMonitoresDaMalha(): Map&lt;Point, Lock&gt;</text><text fill="#000000" font-family="sans-serif" font-size="15" lengthAdjust="spacing" textLength="214" x="1573" y="1488.1182">+getValor(int linha, int coluna): int</text></g><!--class Thread--><g id="elem_Thread"><rect fill="#ADD8E6" height="48" id="Thread" rx="7.5" ry="7.5" style="stroke:#808000;stroke-width:0.5;" width="73" x="1705.5" y="456.1094"/><ellipse cx="1720.5" cy="472.1094" fill="#ADD1B2" rx="11" ry="11" style="stroke:#181818;stroke-width:1.0;"/><path d="M1723.2656,467.9844 Q1723.4219,467.7656 1723.6094,467.6563 Q1723.7969,467.5469 1724.0156,467.5469 Q1724.3906,467.5469 1724.625,467.8125 Q1724.8594,468.0625 1724.8594,468.6719 L1724.8594,470.125 Q1724.8594,470.7344 1724.625,471 Q1724.3906,471.2656 1724.0156,471.2656 Q1723.6719,471.2656 1723.4688,471.0625 Q1723.2656,470.875 1723.1563,470.3594 Q1723.1094,470 1722.9219,469.8125 Q1722.5938,469.4375 1721.9844,469.2188 Q1721.375,469 1720.75,469 Q1719.9844,469 1719.3438,469.3281 Q1718.7188,469.6563 1718.2188,470.4063 Q1717.7344,471.1563 1717.7344,472.1875 L1717.7344,473.2813 Q1717.7344,474.5156 1718.625,475.3438 Q1719.5156,476.1563 1721.1094,476.1563 Q1722.0469,476.1563 1722.7031,475.9063 Q1723.0938,475.75 1723.5156,475.3125 Q1723.7813,475.0469 1723.9219,474.9688 Q1724.0781,474.8906 1724.2813,474.8906 Q1724.6094,474.8906 1724.8594,475.1563 Q1725.125,475.4063 1725.125,475.75 Q1725.125,476.0938 1724.7813,476.5 Q1724.2813,477.0781 1723.4844,477.4063 Q1722.4063,477.8594 1721.1094,477.8594 Q1719.5938,477.8594 1718.3906,477.2344 Q1717.4063,476.7344 1716.7188,475.6719 Q1716.0313,474.5938 1716.0313,473.3125 L1716.0313,472.1563 Q1716.0313,470.8281 1716.6406,469.6875 Q1717.2656,468.5313 1718.3594,467.9219 Q1719.4531,467.2969 1720.6875,467.2969 Q1721.4219,467.2969 1722.0625,467.4688 Q1722.7188,467.625 1723.2656,467.9844 Z " fill="#000000"/><text fill="#000000" font-family="Segoe UI" font-size="12" lengthAdjust="spacing" textLength="37" x="1736.5" y="477.0781">Thread</text><line style="stroke:#808000;stroke-width:0.5;" x1="1706.5" x2="1777.5" y1="488.1094" y2="488.1094"/><line style="stroke:#808000;stroke-width:0.5;" x1="1706.5" x2="1777.5" y1="496.1094" y2="496.1094"/></g><!--class GerenciadorSincronizacao--><g id="elem_GerenciadorSincronizacao"><rect codeLine="157" fill="#ADD8E6" height="185.2031" id="GerenciadorSincronizacao" rx="7.5" ry="7.5" style="stroke:#808000;stroke-width:0.5;" width="374" x="2106" y="387.6094"/><ellipse cx="2219.75" cy="403.6094" fill="#B4A7E5" rx="11" ry="11" style="stroke:#181818;stroke-width:1.0;"/><path d="M2220.7031,400.25 L2220.7031,406.9063 L2222.4219,406.9063 Q2223.0313,406.9063 2223.2969,407.1406 Q2223.5625,407.375 2223.5625,407.7656 Q2223.5625,408.1406 2223.2969,408.375 Q2223.0313,408.6094 2222.4219,408.6094 L2217.2813,408.6094 Q2216.6719,408.6094 2216.4063,408.375 Q2216.1406,408.1406 2216.1406,407.75 Q2216.1406,407.375 2216.4063,407.1406 Q2216.6719,406.9063 2217.2813,406.9063 L2219,406.9063 L2219,400.25 L2217.2813,400.25 Q2216.6719,400.25 2216.4063,400.0156 Q2216.1406,399.7813 2216.1406,399.3906 Q2216.1406,399.0156 2216.4063,398.7813 Q2216.6719,398.5469 2217.2813,398.5469 L2222.4219,398.5469 Q2223.0313,398.5469 2223.2969,398.7813 Q2223.5625,399.0156 2223.5625,399.3906 Q2223.5625,399.7813 2223.2969,400.0156 Q2223.0313,400.25 2222.4219,400.25 L2220.7031,400.25 Z " fill="#000000"/><text fill="#000000" font-family="Segoe UI" font-size="12" font-style="italic" lengthAdjust="spacing" textLength="134" x="2242.25" y="408.5781">GerenciadorSincronizacao</text><line style="stroke:#808000;stroke-width:0.5;" x1="2107" x2="2479" y1="419.6094" y2="419.6094"/><line style="stroke:#808000;stroke-width:0.5;" x1="2107" x2="2479" y1="427.6094" y2="427.6094"/><text fill="#000000" font-family="sans-serif" font-size="15" font-style="italic" lengthAdjust="spacing" textLength="210" x="2114" y="449.1807">+tentarAdquirir(Point p): boolean</text><text fill="#000000" font-family="sans-serif" font-size="15" font-style="italic" lengthAdjust="spacing" textLength="104" x="2114" y="472.0479">+liberar(Point p)</text><text fill="#000000" font-family="sans-serif" font-size="15" font-style="italic" lengthAdjust="spacing" textLength="358" x="2114" y="494.915">+tentarAdquirirCaminho(List&lt;Point&gt; caminho): boolean</text><text fill="#000000" font-family="sans-serif" font-size="15" font-style="italic" lengthAdjust="spacing" textLength="252" x="2114" y="517.7822">+liberarCaminho(List&lt;Point&gt; caminho)</text><text fill="#000000" font-family="sans-serif" font-size="15" font-style="italic" lengthAdjust="spacing" textLength="112" x="2114" y="540.6494">+adquirir(Point p)</text><text fill="#000000" font-family="sans-serif" font-size="15" font-style="italic" lengthAdjust="spacing" textLength="194" x="2114" y="563.5166">+isOcupado(Point p): boolean</text></g><!--class GerenciadorSemaforo--><g id="elem_GerenciadorSemaforo"><rect codeLine="166" fill="#ADD8E6" height="139.4688" id="GerenciadorSemaforo" rx="7.5" ry="7.5" style="stroke:#808000;stroke-width:0.5;" width="261" x="2106.5" y="901.6094"/><ellipse cx="2173.25" cy="917.6094" fill="#ADD1B2" rx="11" ry="11" style="stroke:#181818;stroke-width:1.0;"/><path d="M2176.0156,913.4844 Q2176.1719,913.2656 2176.3594,913.1563 Q2176.5469,913.0469 2176.7656,913.0469 Q2177.1406,913.0469 2177.375,913.3125 Q2177.6094,913.5625 2177.6094,914.1719 L2177.6094,915.625 Q2177.6094,916.2344 2177.375,916.5 Q2177.1406,916.7656 2176.7656,916.7656 Q2176.4219,916.7656 2176.2188,916.5625 Q2176.0156,916.375 2175.9063,915.8594 Q2175.8594,915.5 2175.6719,915.3125 Q2175.3438,914.9375 2174.7344,914.7188 Q2174.125,914.5 2173.5,914.5 Q2172.7344,914.5 2172.0938,914.8281 Q2171.4688,915.1563 2170.9688,915.9063 Q2170.4844,916.6563 2170.4844,917.6875 L2170.4844,918.7813 Q2170.4844,920.0156 2171.375,920.8438 Q2172.2656,921.6563 2173.8594,921.6563 Q2174.7969,921.6563 2175.4531,921.4063 Q2175.8438,921.25 2176.2656,920.8125 Q2176.5313,920.5469 2176.6719,920.4688 Q2176.8281,920.3906 2177.0313,920.3906 Q2177.3594,920.3906 2177.6094,920.6563 Q2177.875,920.9063 2177.875,921.25 Q2177.875,921.5938 2177.5313,922 Q2177.0313,922.5781 2176.2344,922.9063 Q2175.1563,923.3594 2173.8594,923.3594 Q2172.3438,923.3594 2171.1406,922.7344 Q2170.1563,922.2344 2169.4688,921.1719 Q2168.7813,920.0938 2168.7813,918.8125 L2168.7813,917.6563 Q2168.7813,916.3281 2169.3906,915.1875 Q2170.0156,914.0313 2171.1094,913.4219 Q2172.2031,912.7969 2173.4375,912.7969 Q2174.1719,912.7969 2174.8125,912.9688 Q2175.4688,913.125 2176.0156,913.4844 Z " fill="#000000"/><text fill="#000000" font-family="Segoe UI" font-size="12" lengthAdjust="spacing" textLength="115" x="2195.75" y="922.5781">GerenciadorSemaforo</text><line style="stroke:#808000;stroke-width:0.5;" x1="2107.5" x2="2366.5" y1="933.6094" y2="933.6094"/><text fill="#000000" font-family="sans-serif" font-size="15" lengthAdjust="spacing" textLength="245" x="2114.5" y="955.1807">-semaforos: Map&lt;Point, Semaphore&gt;</text><line style="stroke:#808000;stroke-width:0.5;" x1="2107.5" x2="2366.5" y1="964.4766" y2="964.4766"/><text fill="#000000" font-family="sans-serif" font-size="15" lengthAdjust="spacing" textLength="245" x="2114.5" y="986.0479">+GerenciadorSemaforo(Malha malha)</text><text fill="#000000" font-family="sans-serif" font-size="15" lengthAdjust="spacing" textLength="209" x="2114.5" y="1008.915">+tentarAdquirir(Point p): boolean</text><text fill="#000000" font-family="sans-serif" font-size="15" lengthAdjust="spacing" textLength="104" x="2114.5" y="1031.7822">+liberar(Point p)</text></g><!--class GerenciadorMonitor--><g id="elem_GerenciadorMonitor"><rect codeLine="173" fill="#ADD8E6" height="139.4688" id="GerenciadorMonitor" rx="7.5" ry="7.5" style="stroke:#808000;stroke-width:0.5;" width="244" x="2518" y="901.6094"/><ellipse cx="2580.25" cy="917.6094" fill="#ADD1B2" rx="11" ry="11" style="stroke:#181818;stroke-width:1.0;"/><path d="M2583.0156,913.4844 Q2583.1719,913.2656 2583.3594,913.1563 Q2583.5469,913.0469 2583.7656,913.0469 Q2584.1406,913.0469 2584.375,913.3125 Q2584.6094,913.5625 2584.6094,914.1719 L2584.6094,915.625 Q2584.6094,916.2344 2584.375,916.5 Q2584.1406,916.7656 2583.7656,916.7656 Q2583.4219,916.7656 2583.2188,916.5625 Q2583.0156,916.375 2582.9063,915.8594 Q2582.8594,915.5 2582.6719,915.3125 Q2582.3438,914.9375 2581.7344,914.7188 Q2581.125,914.5 2580.5,914.5 Q2579.7344,914.5 2579.0938,914.8281 Q2578.4688,915.1563 2577.9688,915.9063 Q2577.4844,916.6563 2577.4844,917.6875 L2577.4844,918.7813 Q2577.4844,920.0156 2578.375,920.8438 Q2579.2656,921.6563 2580.8594,921.6563 Q2581.7969,921.6563 2582.4531,921.4063 Q2582.8438,921.25 2583.2656,920.8125 Q2583.5313,920.5469 2583.6719,920.4688 Q2583.8281,920.3906 2584.0313,920.3906 Q2584.3594,920.3906 2584.6094,920.6563 Q2584.875,920.9063 2584.875,921.25 Q2584.875,921.5938 2584.5313,922 Q2584.0313,922.5781 2583.2344,922.9063 Q2582.1563,923.3594 2580.8594,923.3594 Q2579.3438,923.3594 2578.1406,922.7344 Q2577.1563,922.2344 2576.4688,921.1719 Q2575.7813,920.0938 2575.7813,918.8125 L2575.7813,917.6563 Q2575.7813,916.3281 2576.3906,915.1875 Q2577.0156,914.0313 2578.1094,913.4219 Q2579.2031,912.7969 2580.4375,912.7969 Q2581.1719,912.7969 2581.8125,912.9688 Q2582.4688,913.125 2583.0156,913.4844 Z " fill="#000000"/><text fill="#000000" font-family="Segoe UI" font-size="12" lengthAdjust="spacing" textLength="107" x="2602.75" y="922.5781">GerenciadorMonitor</text><line style="stroke:#808000;stroke-width:0.5;" x1="2519" x2="2761" y1="933.6094" y2="933.6094"/><text fill="#000000" font-family="sans-serif" font-size="15" lengthAdjust="spacing" textLength="195" x="2526" y="955.1807">-monitores: Map&lt;Point, Lock&gt;</text><line style="stroke:#808000;stroke-width:0.5;" x1="2519" x2="2761" y1="964.4766" y2="964.4766"/><text fill="#000000" font-family="sans-serif" font-size="15" lengthAdjust="spacing" textLength="228" x="2526" y="986.0479">+GerenciadorMonitor(Malha malha)</text><text fill="#000000" font-family="sans-serif" font-size="15" lengthAdjust="spacing" textLength="209" x="2526" y="1008.915">+tentarAdquirir(Point p): boolean</text><text fill="#000000" font-family="sans-serif" font-size="15" lengthAdjust="spacing" textLength="104" x="2526" y="1031.7822">+liberar(Point p)</text></g><!--class LeitorMalha--><g id="elem_LeitorMalha"><rect codeLine="185" fill="#ADD8E6" height="93.7344" id="LeitorMalha" rx="7.5" ry="7.5" style="stroke:#808000;stroke-width:0.5;" width="291" x="23.5" y="433.1094"/><ellipse cx="131.25" cy="449.1094" fill="#ADD1B2" rx="11" ry="11" style="stroke:#181818;stroke-width:1.0;"/><path d="M134.0156,444.9844 Q134.1719,444.7656 134.3594,444.6563 Q134.5469,444.5469 134.7656,444.5469 Q135.1406,444.5469 135.375,444.8125 Q135.6094,445.0625 135.6094,445.6719 L135.6094,447.125 Q135.6094,447.7344 135.375,448 Q135.1406,448.2656 134.7656,448.2656 Q134.4219,448.2656 134.2188,448.0625 Q134.0156,447.875 133.9063,447.3594 Q133.8594,447 133.6719,446.8125 Q133.3438,446.4375 132.7344,446.2188 Q132.125,446 131.5,446 Q130.7344,446 130.0938,446.3281 Q129.4688,446.6563 128.9688,447.4063 Q128.4844,448.1563 128.4844,449.1875 L128.4844,450.2813 Q128.4844,451.5156 129.375,452.3438 Q130.2656,453.1563 131.8594,453.1563 Q132.7969,453.1563 133.4531,452.9063 Q133.8438,452.75 134.2656,452.3125 Q134.5313,452.0469 134.6719,451.9688 Q134.8281,451.8906 135.0313,451.8906 Q135.3594,451.8906 135.6094,452.1563 Q135.875,452.4063 135.875,452.75 Q135.875,453.0938 135.5313,453.5 Q135.0313,454.0781 134.2344,454.4063 Q133.1563,454.8594 131.8594,454.8594 Q130.3438,454.8594 129.1406,454.2344 Q128.1563,453.7344 127.4688,452.6719 Q126.7813,451.5938 126.7813,450.3125 L126.7813,449.1563 Q126.7813,447.8281 127.3906,446.6875 Q128.0156,445.5313 129.1094,444.9219 Q130.2031,444.2969 131.4375,444.2969 Q132.1719,444.2969 132.8125,444.4688 Q133.4688,444.625 134.0156,444.9844 Z " fill="#000000"/><text fill="#000000" font-family="Segoe UI" font-size="12" lengthAdjust="spacing" textLength="63" x="153.75" y="454.0781">LeitorMalha</text><line style="stroke:#808000;stroke-width:0.5;" x1="24.5" x2="313.5" y1="465.1094" y2="465.1094"/><line style="stroke:#808000;stroke-width:0.5;" x1="24.5" x2="313.5" y1="473.1094" y2="473.1094"/><text fill="#000000" font-family="sans-serif" font-size="15" lengthAdjust="spacing" text-decoration="underline" textLength="275" x="31.5" y="494.6807">+lerArquivo(String caminhoArquivo): Malha</text><text fill="#000000" font-family="sans-serif" font-size="15" lengthAdjust="spacing" text-decoration="underline" textLength="135" x="31.5" y="517.5479">-identificarPontos(...)</text></g><!--reverse link Runnable to SimuladorController--><g id="link_Runnable_SimuladorController"><path d="M1286,168.1594 C1286,192.9794 1286,216.3594 1286,261.5694 " fill="none" id="Runnable-backto-SimuladorController" style="stroke:#808000;stroke-width:1.0;stroke-dasharray:7.0,7.0;"/><polygon fill="none" points="1286,150.1594,1280,168.1594,1292,168.1594,1286,150.1594" style="stroke:#808000;stroke-width:1.0;"/></g><!--reverse link JFrame to JanelaPrincipal--><g id="link_JFrame_JanelaPrincipal"><path d="M823,168.1594 C823,218.4294 823,318.5894 823,398.9694 " fill="none" id="JFrame-backto-JanelaPrincipal" style="stroke:#808000;stroke-width:1.0;"/><polygon fill="none" points="823,150.1594,817,168.1594,829,168.1594,823,150.1594" style="stroke:#808000;stroke-width:1.0;"/></g><!--reverse link GerenciadorSincronizacao to GerenciadorSemaforo--><g id="link_GerenciadorSincronizacao_GerenciadorSemaforo"><path d="M2237,590.7494 C2237,686.3494 2237,815.3094 2237,901.4694 " fill="none" id="GerenciadorSincronizacao-backto-GerenciadorSemaforo" style="stroke:#808000;stroke-width:1.0;stroke-dasharray:7.0,7.0;"/><polygon fill="none" points="2237,572.7494,2231,590.7494,2243,590.7494,2237,572.7494" style="stroke:#808000;stroke-width:1.0;"/></g><!--reverse link GerenciadorSincronizacao to GerenciadorMonitor--><g id="link_GerenciadorSincronizacao_GerenciadorMonitor"><path d="M2423.75,590.8494 C2423.75,733.2794 2423.75,971.6094 2423.75,971.6094 C2423.75,971.6094 2468.92,971.6094 2517.97,971.6094 " fill="none" id="GerenciadorSincronizacao-backto-GerenciadorMonitor" style="stroke:#808000;stroke-width:1.0;stroke-dasharray:7.0,7.0;"/><polygon fill="none" points="2423.75,572.8494,2417.75,590.8494,2429.75,590.8494,2423.75,572.8494" style="stroke:#808000;stroke-width:1.0;"/></g><!--link Simulador to SimuladorController--><g id="link_Simulador_SimuladorController"><path codeLine="197" d="M1527.86,156.6094 C1470.65,156.6094 1400.75,156.6094 1400.75,156.6094 C1400.75,156.6094 1400.75,197.2894 1400.75,255.1894 " fill="none" id="Simulador-to-SimuladorController" style="stroke:#808000;stroke-width:1.0;"/><polygon fill="#808000" points="1400.75,261.1894,1404.75,252.1894,1400.75,256.1894,1396.75,252.1894,1400.75,261.1894" style="stroke:#808000;stroke-width:1.0;"/><text fill="#000000" font-family="sans-serif" font-size="13" lengthAdjust="spacing" textLength="21" x="1388.01" y="151.1045">cria</text></g><!--reverse link LeitorMalha to SimuladorController--><g id="link_LeitorMalha_SimuladorController"><path codeLine="203" d="M169,426.8094 C169,383.0094 169,330.6094 169,330.6094 C169,330.6094 782.27,330.6094 1099.98,330.6094 " fill="none" id="LeitorMalha-backto-SimuladorController" style="stroke:#808000;stroke-width:1.0;stroke-dasharray:7.0,7.0;"/><polygon fill="#808000" points="169,432.8094,173,423.8094,169,427.8094,165,423.8094,169,432.8094" style="stroke:#808000;stroke-width:1.0;"/><text fill="#000000" font-family="sans-serif" font-size="13" lengthAdjust="spacing" textLength="79" x="501.39" y="325.1045">usa para criar</text></g><!--link SimuladorController to LeitorMalha--><!--link SimuladorController to Malha--><g id="link_SimuladorController_Malha"><path codeLine="205" d="M1286,698.8294 C1286,935.2394 1286,1278.6094 1286,1278.6094 C1286,1278.6094 1430.61,1278.6094 1558.72,1278.6094 " fill="none" id="SimuladorController-to-Malha" style="stroke:#808000;stroke-width:1.0;"/><polygon fill="#808000" points="1564.72,1278.6094,1555.72,1274.6094,1559.72,1278.6094,1555.72,1282.6094,1564.72,1278.6094" style="stroke:#808000;stroke-width:1.0;"/><text fill="#000000" font-family="sans-serif" font-size="13" lengthAdjust="spacing" textLength="49" x="1234" y="1122.5745">gerencia</text></g><!--reverse link GerenciadorSincronizacao to SimuladorController--><g id="link_GerenciadorSincronizacao_SimuladorController"><path codeLine="206" d="M2099.95,422.6094 C1919.08,422.6094 1652.58,422.6094 1472.05,422.6094 " fill="none" id="GerenciadorSincronizacao-backto-SimuladorController" style="stroke:#808000;stroke-width:1.0;stroke-dasharray:7.0,7.0;"/><polygon fill="#808000" points="2105.95,422.6094,2096.95,418.6094,2100.95,422.6094,2096.95,426.6094,2105.95,422.6094" style="stroke:#808000;stroke-width:1.0;"/><text fill="#000000" font-family="sans-serif" font-size="13" lengthAdjust="spacing" textLength="100" x="1686" y="417.1045">usa estrat&#233;gia de</text></g><!--link SimuladorController to Veiculo--><g id="link_SimuladorController_Veiculo"><path codeLine="207" d="M1484.42,635.6094 C1552.44,635.6094 1601,635.6094 1601,635.6094 C1601,635.6094 1601,710.2394 1601,792.4494 " fill="none" id="SimuladorController-Veiculo" style="stroke:#808000;stroke-width:1.0;"/><polygon fill="none" points="1472.42,635.6094,1478.42,639.6094,1484.42,635.6094,1478.42,631.6094,1472.42,635.6094" style="stroke:#808000;stroke-width:1.0;"/><polygon fill="#808000" points="1601,798.4494,1605,789.4494,1601,793.4494,1597,789.4494,1601,798.4494" style="stroke:#808000;stroke-width:1.0;"/><text fill="#000000" font-family="sans-serif" font-size="13" lengthAdjust="spacing" textLength="85" x="1513" y="647.2345">cria e gerencia</text></g><!--reverse link SimuladorController to JanelaPrincipal--><g id="link_SimuladorController_JanelaPrincipal"><path codeLine="208" d="M1087.68,480.6094 C1037.3,480.6094 995.95,480.6094 949.68,480.6094 " fill="none" id="SimuladorController-backto-JanelaPrincipal" style="stroke:#808000;stroke-width:1.0;"/><polygon fill="#808000" points="1099.68,480.6094,1093.68,476.6094,1087.68,480.6094,1093.68,484.6094,1099.68,480.6094" style="stroke:#808000;stroke-width:1.0;"/><text fill="#000000" font-family="sans-serif" font-size="13" lengthAdjust="spacing" textLength="85" x="1004.93" y="497.1045">cria e gerencia</text></g><!--reverse link SimuladorController to PainelControle--><g id="link_SimuladorController_PainelControle"><path codeLine="211" d="M1087.78,630.6094 C854.22,630.6094 496,630.6094 496,630.6094 C496,630.6094 496,737.9694 496,832.1194 " fill="none" id="SimuladorController-backto-PainelControle" style="stroke:#808000;stroke-width:1.0;"/><polygon fill="none" points="1099.78,630.6094,1093.78,626.6094,1087.78,630.6094,1093.78,634.6094,1099.78,630.6094" style="stroke:#808000;stroke-width:1.0;"/><text fill="#000000" font-family="sans-serif" font-size="13" lengthAdjust="spacing" textLength="21" x="673.13" y="625.1045">usa</text></g><!--reverse link SimuladorController to PainelMalha--><g id="link_SimuladorController_PainelMalha"><path codeLine="212" d="M1087.79,664.6094 C1031.59,664.6094 996.5,664.6094 996.5,664.6094 C996.5,664.6094 996.5,778.0594 996.5,866.9194 " fill="none" id="SimuladorController-backto-PainelMalha" style="stroke:#808000;stroke-width:1.0;"/><polygon fill="none" points="1099.79,664.6094,1093.79,660.6094,1087.79,664.6094,1093.79,668.6094,1099.79,664.6094" style="stroke:#808000;stroke-width:1.0;"/><text fill="#000000" font-family="sans-serif" font-size="13" lengthAdjust="spacing" textLength="21" x="972.5" y="708.6145">usa</text></g><!--reverse link JanelaPrincipal to PainelMalha--><g id="link_JanelaPrincipal_PainelMalha"><path codeLine="215" d="M860,573.1894 C860,656.8094 860,775.5294 860,866.7994 " fill="none" id="JanelaPrincipal-backto-PainelMalha" style="stroke:#808000;stroke-width:1.0;"/><polygon fill="#808000" points="860,561.1894,856,567.1894,860,573.1894,864,567.1894,860,561.1894" style="stroke:#808000;stroke-width:1.0;"/></g><!--reverse link JanelaPrincipal to PainelControle--><g id="link_JanelaPrincipal_PainelControle"><path codeLine="216" d="M709.5,573.4194 C709.5,682.4794 709.5,850.6094 709.5,850.6094 C709.5,850.6094 667.35,850.6094 620.5,850.6094 " fill="none" id="JanelaPrincipal-backto-PainelControle" style="stroke:#808000;stroke-width:1.0;"/><polygon fill="#808000" points="709.5,561.4194,705.5,567.4194,709.5,573.4194,713.5,567.4194,709.5,561.4194" style="stroke:#808000;stroke-width:1.0;"/></g><!--reverse link PainelMalha to Malha--><g id="link_PainelMalha_Malha"><path codeLine="219" d="M907,1087.4294 C907,1187.8594 907,1312.6094 907,1312.6094 C907,1312.6094 1319.81,1312.6094 1564.92,1312.6094 " fill="none" id="PainelMalha-backto-Malha" style="stroke:#808000;stroke-width:1.0;"/><polygon fill="none" points="907,1075.4294,903,1081.4294,907,1087.4294,911,1081.4294,907,1075.4294" style="stroke:#808000;stroke-width:1.0;"/><text fill="#000000" font-family="sans-serif" font-size="13" lengthAdjust="spacing" textLength="49" x="1065.37" y="1307.1045">desenha</text></g><!--reverse link PainelMalha to Veiculo--><g id="link_PainelMalha_Veiculo"><path codeLine="220" d="M1055.95,936.6094 C1187.23,936.6094 1375.4,936.6094 1527.78,936.6094 " fill="none" id="PainelMalha-backto-Veiculo" style="stroke:#808000;stroke-width:1.0;"/><polygon fill="none" points="1043.95,936.6094,1049.95,940.6094,1055.95,936.6094,1049.95,932.6094,1043.95,936.6094" style="stroke:#808000;stroke-width:1.0;"/><text fill="#000000" font-family="sans-serif" font-size="13" lengthAdjust="spacing" textLength="49" x="1233.86" y="931.1045">desenha</text></g><!--link Veiculo to PainelMalha--><g id="link_Veiculo_PainelMalha"><path codeLine="221" d="M1527.78,1006.6094 C1375.33,1006.6094 1181.04,1006.6094 1049.76,1006.6094 " fill="none" id="Veiculo-to-PainelMalha" style="stroke:#808000;stroke-width:1.0;stroke-dasharray:7.0,7.0;"/><polygon fill="#808000" points="1043.76,1006.6094,1052.76,1010.6094,1048.76,1006.6094,1052.76,1002.6094,1043.76,1006.6094" style="stroke:#808000;stroke-width:1.0;"/><text fill="#000000" font-family="sans-serif" font-size="13" lengthAdjust="spacing" textLength="84" x="1198.77" y="1001.1045">solicita repaint</text></g><!--link Veiculo to Malha--><g id="link_Veiculo_Malha"><path codeLine="225" d="M1742,1143.7194 C1742,1177.1694 1742,1205.6494 1742,1237.3194 " fill="none" id="Veiculo-to-Malha" style="stroke:#808000;stroke-width:1.0;"/><polygon fill="#808000" points="1742,1243.3194,1746,1234.3194,1742,1238.3194,1738,1234.3194,1742,1243.3194" style="stroke:#808000;stroke-width:1.0;"/><text fill="#000000" font-family="sans-serif" font-size="13" lengthAdjust="spacing" textLength="70" x="1669" y="1188.0145">move-se em</text></g><!--link GerenciadorSincronizacao to Veiculo--><g id="link_GerenciadorSincronizacao_Veiculo"><path codeLine="226" d="M2105.95,538.6094 C1991.64,538.6094 1867.25,538.6094 1867.25,538.6094 C1867.25,538.6094 1867.25,677.8394 1867.25,798.3094 " fill="none" id="GerenciadorSincronizacao-Veiculo" style="stroke:#808000;stroke-width:1.0;"/><text fill="#000000" font-family="sans-serif" font-size="13" lengthAdjust="spacing" textLength="50" x="1814.25" y="543.6045">usa para</text></g><!--link GerenciadorSemaforo to Malha--><g id="link_GerenciadorSemaforo_Malha"><path codeLine="229" d="M2237,1040.8894 C2237,1144.9294 2237,1328.6094 2237,1328.6094 C2237,1328.6094 2067.34,1328.6094 1925.31,1328.6094 " fill="none" id="GerenciadorSemaforo-to-Malha" style="stroke:#808000;stroke-width:1.0;stroke-dasharray:7.0,7.0;"/><polygon fill="#808000" points="1919.31,1328.6094,1928.31,1332.6094,1924.31,1328.6094,1928.31,1324.6094,1919.31,1328.6094" style="stroke:#808000;stroke-width:1.0;"/><text fill="#000000" font-family="sans-serif" font-size="13" lengthAdjust="spacing" textLength="100" x="2119.01" y="1323.1045">obt&#233;m sem&#225;foros</text></g><!--link GerenciadorMonitor to Malha--><g id="link_GerenciadorMonitor_Malha"><path codeLine="230" d="M2640,1040.7394 C2640,1165.3494 2640,1413.6094 2640,1413.6094 C2640,1413.6094 2186.81,1413.6094 1925.15,1413.6094 " fill="none" id="GerenciadorMonitor-to-Malha" style="stroke:#808000;stroke-width:1.0;stroke-dasharray:7.0,7.0;"/><polygon fill="#808000" points="1919.15,1413.6094,1928.15,1417.6094,1924.15,1413.6094,1928.15,1409.6094,1919.15,1413.6094" style="stroke:#808000;stroke-width:1.0;"/><text fill="#000000" font-family="sans-serif" font-size="13" lengthAdjust="spacing" textLength="97" x="2366.01" y="1408.1045">obt&#233;m monitores</text></g><!--link PainelControle to JPanel--><g id="link_PainelControle_JPanel"><path codeLine="234" d="M620.5,1092.6094 C654.18,1092.6094 681.5,1092.6094 681.5,1092.6094 C681.5,1092.6094 681.5,1260.7894 681.5,1328.4294 " fill="none" id="PainelControle-to-JPanel" style="stroke:#808000;stroke-width:1.0;"/><polygon fill="none" points="681.5,1346.4294,687.5,1328.4294,675.5,1328.4294,681.5,1346.4294" style="stroke:#808000;stroke-width:1.0;"/></g><!--link PainelMalha to JPanel--><g id="link_PainelMalha_JPanel"><path codeLine="235" d="M770.49,971.6094 C743.08,971.6094 722.5,971.6094 722.5,971.6094 C722.5,971.6094 722.5,1242.2894 722.5,1328.5494 " fill="none" id="PainelMalha-to-JPanel" style="stroke:#808000;stroke-width:1.0;"/><polygon fill="none" points="722.5,1346.5494,728.5,1328.5494,716.5,1328.5494,722.5,1346.5494" style="stroke:#808000;stroke-width:1.0;"/></g><!--reverse link Thread to Veiculo--><g id="link_Thread_Veiculo"><path codeLine="237" d="M1742,522.1194 C1742,575.2194 1742,688.5694 1742,798.4994 " fill="none" id="Thread-backto-Veiculo" style="stroke:#808000;stroke-width:1.0;"/><polygon fill="none" points="1742,504.1194,1736,522.1194,1748,522.1194,1742,504.1194" style="stroke:#808000;stroke-width:1.0;"/></g><!--SRC=[hLdDRXiv4hxhAGZFmVB44X9Zvs9a0tHanQkCVpIIRM0Hv41rqot6BRA7P2jniZuizhpliC4UWbrWZli4Uh6j8jc_QibER268rQp_ubTLP6kNNAp-C5aYIIJ94QUneWlQCTmah7Wa4IE3X6hDD3bYXYPp2imzCkMBB86l2XakrEhhDOjbfxDBUhqU6KXnpUDCqTMtrVz045Y2bAhLVqN8AO5lb9okldxYe1vqA_QPebYdes-uGEg2VEaG-EoIeJOS_8kPeebTIcbuGsCsDRVWf6AXeI9Ec2M5w6PWZEAppB1HACMKVsRakIKcN31pcp8YbPbBOjSqnlAHYvXSqqIpJc4p1SVfWWaZxTAPZ9XcANdnYzCreUB6FZztpsCQHQZbe5FpsiOToaKg1QXYsX87DIVVI646Ce4i_lJSVZRms41U_EAioqn40wa4KxXKXkwJXf_NaALOEKRKViBZkNcTPApW29II7ntnFE7Bal1QgeYfDWewSWPf8LFOQaOkHpMAS_70hjtP_pa4hQvfoEvpR7fpkyctYRobIOrOzM-T-hq-UZXLF7o8XZ-rUdEiw6r5jP1cQ-Hi8SLWpg-lfMXFlW9eRudCvQx5knVUYJiinpz_tmSani7Wr-1uU4WMb8iVq92d5CLj_0wSPSDmENb6lcX33G_lB6Tt2d0NyRltXAfOxtMU8W3e04R9967g4M6KIjg26PHKlaWJXar3aqac19qb-VRto0SgM48FoLlxTmoHXZpr7Qq788Jcb7XLx13wIVMvndIA3JZdi0-Ul724wjAIyH2Qkpu4f6Zpyiezll9KCrUCHiTCCMpA40f8NzWrp_1bAHFOduJT4Mt33QaC35y2tqo2NrIiCwRGAKT2CyNLLM6zpXsN5gUG1YK5_uog3ydn1eg7IqlEktjUAHSS1DNnvQXO2gbIBARAPgIxrtG3jXM7XnekiSthfgPf7d510DUOKbJPyDe8JP5dH6MY-pH8NdBsyH4OHl4AUXie9EoJOIA2zJSA6yoNXo7k0QXzrZHLf2Pcfg8HjwTfeCAJwopPAbRkEaLSTLeHX_baVZDHYSUt5n3m6ywIg6GOuQnQqaIsaDLioXRqMYeaJcZ4vUlC62aAyYaWrKZLIfqPCNAG0dAJCcnWQWjBWQuwZyrI9JfCaUka9Rc8ROt8THxPb2Kiv590VTLhPIszTeUAt7vdstb6D3DkovqUAxzNqeeuQhA5JiVvayKU79pyqQeBapUTyr2JE2zAFB29ULxzEVtWYCG7qJxfz_jDniBm1jud6AVG6vF7p5EKhrInzxZOYcASuiJ2FZcA3l4CbZUssbCgDRTW6ijoSSaI6VA8HgpAshB5hlJRci8FTdTirmikvd82sm5OZQH7ZtKlnuwFk6iNzvr7-rKdzZTQQRPa6vXSCZM6wuPJI58byKeoTgd9kQXHTCcqfcgWii_kLf0BGABb4BeDZMZEdYRGyJu0iui7CPgmTebcY9LIgnTPhFpclNl_xdsnWJYsZfXNjfwkacLAUJk3ziMlZ-XflidfIvzTx0pfN2hsgaYNxNAibVj4XZVvDhcQAshCzg1fmnGscSt6hCXfmrv3f6eHkA-WlwakvXXkUeW4_1hA91EOQ8Vc9whXlgxXzv4LNTTczxoyE6s2Stc6fZCD00ZD7O4P3kUP8Fezut3yoW7NEFZK918-WtjroNgVJe_fRWL9UTq-mCmswNKXsenZdONhyp1BSMArnLgffceMFGwhf_Lxabofa-sORJ7JDkKUk4yjczCUag-JxugegEMD9RLkuAbZUMmjPd3bU4JneNXbcfumZB7QToiNLBXg10fYN4f_JSs1wrVtwkEnaECHv8TVmpXHOzkCkzNJn0-5FncU18FH-LbmEZoxE9-IRl3sSdeH7C7NSJ09oEdmv2_d4t8I_FNyycBl1qnWYj5NV7d5t70Xy8-c2OIn-hRwjoH24YDJsU-KT_fUxrNhfVYGx8IAqnrK6yGAohNwHeo4SvYjfEk7TubLQsVVRyeUIPaozYLbgRaF2a-uk85ckUHwzGUSNToBHMhxluB3Z88ze0bM12DIuwiUYJP1ZMsyu3_c4wud-LlAgdwd3CIgxgR-7iDr9VQAJ3zXrwR_gWOco42c_KjFJ8NQQHTzD-SHmEMzmhSwTHsj0fZnma9-xDhPwjR6jk1zPDXPpUe_CSVNlksw9DhDZvv-TmaZsntukTTRktIsoMxR3zW78lt94m69Tzh-9XURLq4NuCuzxDKDQpfZPxAW6arVMTFDW7wkwzb2BswlTHDOROoSscC-yqQgZg6ZXOl-thApnb7Pcu8dN-i321gXQWbrpGqbYjbBrKvdO-3I-TOlrFKiLgiun2DrJqFZM9H6UrdQknTwM1vh-q-R7S62W3fp_KxRMCS82s_a3C2ymF6z-chdzqwdPMwsYHJpSQUpsoQI5-kMee8yMeY-7ICEoCk_sJmq0B2Hmq5ejtpvs6_j0LZOFJS9tM7IlS53NP7yA0eqv3_C1BzTZiXmUh7wEmd8zF8Ol_xZd8mdexF1Q1oSs9zXTicBFhdKT07TBrlWUVg6ZCwkHjFLFw-69wwJGJfNtwYgTJfOnKb7LlyY4LSCGRNMik4pqbhQJaXSnybCfh0DI7SfnPSGzf9bh-OV86BRfm_wC3yaCFwUCH14LWS9KB7wIc9m2aPj15F4enwzHrGd7ZempYAMCX7vNw7oUBnNWRit05WKg0ipPT0dZCE0Je0GcT4u4pPe2Mgr6qYH_vcixnByiC__0G00]--></g></svg>