<?xml version="1.0" encoding="us-ascii" standalone="no"?><svg xmlns="http://www.w3.org/2000/svg" xmlns:xlink="http://www.w3.org/1999/xlink" contentStyleType="text/css" height="1833px" preserveAspectRatio="none" style="width:4071px;height:1833px;background:#FFFFFF;" version="1.1" viewBox="0 0 4071 1833" width="4071px" zoomAndPan="magnify"><defs/><g><text fill="#000000" font-family="sans-serif" font-size="14" font-weight="bold" lengthAdjust="spacing" textLength="384" x="1836" y="25.5332">Diagrama de Classes Detalhado - Simulador de Tr&#225;fego</text><!--cluster Main--><g id="cluster_Main"><rect fill="none" height="140" rx="7.5" ry="7.5" style="stroke:#808080;stroke-width:1.5;" width="256" x="1900" y="47.6094"/><text fill="#000000" font-family="Segoe UI" font-size="14" font-weight="bold" lengthAdjust="spacing" textLength="116" x="1970" y="65.7168">Ponto de Entrada</text></g><!--cluster Controller--><g id="cluster_Controller"><rect fill="none" height="648" rx="7.5" ry="7.5" style="stroke:#808080;stroke-width:1.5;" width="426" x="1490" y="242.6094"/><text fill="#000000" font-family="Segoe UI" font-size="14" font-weight="bold" lengthAdjust="spacing" textLength="73" x="1666.5" y="260.7168">Controller)</text></g><!--cluster View--><g id="cluster_View"><rect fill="none" height="1218.5" rx="7.5" ry="7.5" style="stroke:#808080;stroke-width:1.5;" width="686" x="764" y="594.1094"/><text fill="#000000" font-family="Segoe UI" font-size="14" font-weight="bold" lengthAdjust="spacing" textLength="82" x="1066" y="612.2168">Vis&#227;o (View)</text></g><!--cluster Model--><g id="cluster_Model"><rect fill="none" height="1286" rx="7.5" ry="7.5" style="stroke:#808080;stroke-width:1.5;" width="1409" x="1956" y="505.6094"/><text fill="#000000" font-family="Segoe UI" font-size="14" font-weight="bold" lengthAdjust="spacing" textLength="109" x="2606" y="523.7168">Modelo (Model)</text></g><!--cluster Sincronizacao--><g id="cluster_Sincronizacao"><rect fill="none" height="699.5" rx="7.5" ry="7.5" style="stroke:#808080;stroke-width:1.5;" width="855" x="2478" y="560.6094"/><text fill="#000000" font-family="Segoe UI" font-size="14" font-weight="bold" lengthAdjust="spacing" textLength="93" x="2859" y="578.7168">Sincroniza&#231;&#227;o</text></g><!--cluster Util--><g id="cluster_Util"><rect fill="none" height="161" rx="7.5" ry="7.5" style="stroke:#808080;stroke-width:1.5;" width="388" x="3405" y="573.1094"/><text fill="#000000" font-family="Segoe UI" font-size="14" font-weight="bold" lengthAdjust="spacing" textLength="65" x="3566.5" y="591.2168">Utilit&#225;rios</text></g><!--cluster Sincronizacao--><g id="cluster_Sincronizacao"><rect fill="none" height="580" rx="7.5" ry="7.5" style="stroke:#808080;stroke-width:1.5;" width="427" x="7" y="1086.6094"/><text fill="#000000" font-family="Segoe UI" font-size="14" font-weight="bold" lengthAdjust="spacing" textLength="93" x="174" y="1104.7168">Sincronizacao</text></g><!--class Simulador--><g id="elem_Simulador"><rect codeLine="59" fill="#ADD8E6" height="68.8672" id="Simulador" rx="7.5" ry="7.5" style="stroke:#808000;stroke-width:0.5;" width="144" x="1988" y="94.6094"/><ellipse cx="2028.2" cy="110.6094" fill="#ADD1B2" rx="11" ry="11" style="stroke:#181818;stroke-width:1.0;"/><path d="M2030.9656,106.4844 Q2031.1219,106.2656 2031.3094,106.1563 Q2031.4969,106.0469 2031.7156,106.0469 Q2032.0906,106.0469 2032.325,106.3125 Q2032.5594,106.5625 2032.5594,107.1719 L2032.5594,108.625 Q2032.5594,109.2344 2032.325,109.5 Q2032.0906,109.7656 2031.7156,109.7656 Q2031.3719,109.7656 2031.1688,109.5625 Q2030.9656,109.375 2030.8563,108.8594 Q2030.8094,108.5 2030.6219,108.3125 Q2030.2938,107.9375 2029.6844,107.7188 Q2029.075,107.5 2028.45,107.5 Q2027.6844,107.5 2027.0438,107.8281 Q2026.4188,108.1563 2025.9188,108.9063 Q2025.4344,109.6563 2025.4344,110.6875 L2025.4344,111.7813 Q2025.4344,113.0156 2026.325,113.8438 Q2027.2156,114.6563 2028.8094,114.6563 Q2029.7469,114.6563 2030.4031,114.4063 Q2030.7938,114.25 2031.2156,113.8125 Q2031.4813,113.5469 2031.6219,113.4688 Q2031.7781,113.3906 2031.9813,113.3906 Q2032.3094,113.3906 2032.5594,113.6563 Q2032.825,113.9063 2032.825,114.25 Q2032.825,114.5938 2032.4813,115 Q2031.9813,115.5781 2031.1844,115.9063 Q2030.1063,116.3594 2028.8094,116.3594 Q2027.2938,116.3594 2026.0906,115.7344 Q2025.1063,115.2344 2024.4188,114.1719 Q2023.7313,113.0938 2023.7313,111.8125 L2023.7313,110.6563 Q2023.7313,109.3281 2024.3406,108.1875 Q2024.9656,107.0313 2026.0594,106.4219 Q2027.1531,105.7969 2028.3875,105.7969 Q2029.1219,105.7969 2029.7625,105.9688 Q2030.4188,106.125 2030.9656,106.4844 Z " fill="#000000"/><text fill="#000000" font-family="Segoe UI" font-size="12" lengthAdjust="spacing" textLength="54" x="2048.8" y="115.5781">Simulador</text><line style="stroke:#808000;stroke-width:0.5;" x1="1989" x2="2131" y1="126.6094" y2="126.6094"/><line style="stroke:#808000;stroke-width:0.5;" x1="1989" x2="2131" y1="134.6094" y2="134.6094"/><text fill="#000000" font-family="sans-serif" font-size="15" lengthAdjust="spacing" text-decoration="underline" textLength="130" x="1995" y="155.1807">+main(String[] args)</text></g><!--class SimuladorController--><g id="elem_SimuladorController"><rect codeLine="66" fill="#ADD8E6" height="402.7422" id="SimuladorController" rx="7.5" ry="7.5" style="stroke:#808000;stroke-width:0.5;" width="370" x="1514" y="463.6094"/><ellipse cx="1640.25" cy="479.6094" fill="#ADD1B2" rx="11" ry="11" style="stroke:#181818;stroke-width:1.0;"/><path d="M1643.0156,475.4844 Q1643.1719,475.2656 1643.3594,475.1563 Q1643.5469,475.0469 1643.7656,475.0469 Q1644.1406,475.0469 1644.375,475.3125 Q1644.6094,475.5625 1644.6094,476.1719 L1644.6094,477.625 Q1644.6094,478.2344 1644.375,478.5 Q1644.1406,478.7656 1643.7656,478.7656 Q1643.4219,478.7656 1643.2188,478.5625 Q1643.0156,478.375 1642.9063,477.8594 Q1642.8594,477.5 1642.6719,477.3125 Q1642.3438,476.9375 1641.7344,476.7188 Q1641.125,476.5 1640.5,476.5 Q1639.7344,476.5 1639.0938,476.8281 Q1638.4688,477.1563 1637.9688,477.9063 Q1637.4844,478.6563 1637.4844,479.6875 L1637.4844,480.7813 Q1637.4844,482.0156 1638.375,482.8438 Q1639.2656,483.6563 1640.8594,483.6563 Q1641.7969,483.6563 1642.4531,483.4063 Q1642.8438,483.25 1643.2656,482.8125 Q1643.5313,482.5469 1643.6719,482.4688 Q1643.8281,482.3906 1644.0313,482.3906 Q1644.3594,482.3906 1644.6094,482.6563 Q1644.875,482.9063 1644.875,483.25 Q1644.875,483.5938 1644.5313,484 Q1644.0313,484.5781 1643.2344,484.9063 Q1642.1563,485.3594 1640.8594,485.3594 Q1639.3438,485.3594 1638.1406,484.7344 Q1637.1563,484.2344 1636.4688,483.1719 Q1635.7813,482.0938 1635.7813,480.8125 L1635.7813,479.6563 Q1635.7813,478.3281 1636.3906,477.1875 Q1637.0156,476.0313 1638.1094,475.4219 Q1639.2031,474.7969 1640.4375,474.7969 Q1641.1719,474.7969 1641.8125,474.9688 Q1642.4688,475.125 1643.0156,475.4844 Z " fill="#000000"/><text fill="#000000" font-family="Segoe UI" font-size="12" lengthAdjust="spacing" textLength="107" x="1661.75" y="484.5781">SimuladorController</text><line style="stroke:#808000;stroke-width:0.5;" x1="1515" x2="1883" y1="495.6094" y2="495.6094"/><text fill="#000000" font-family="sans-serif" font-size="15" lengthAdjust="spacing" textLength="149" x="1521" y="516.1807">-janela: JanelaPrincipal</text><text fill="#000000" font-family="sans-serif" font-size="15" lengthAdjust="spacing" textLength="201" x="1521" y="537.0479">-painelControle: PainelControle</text><text fill="#000000" font-family="sans-serif" font-size="15" lengthAdjust="spacing" textLength="167" x="1521" y="557.915">-painelMalha: PainelMalha</text><text fill="#000000" font-family="sans-serif" font-size="15" lengthAdjust="spacing" textLength="91" x="1521" y="578.7822">-malha: Malha</text><text fill="#000000" font-family="sans-serif" font-size="15" lengthAdjust="spacing" textLength="154" x="1521" y="599.6494">-veiculos: List&lt;Veiculo&gt;</text><text fill="#000000" font-family="sans-serif" font-size="15" lengthAdjust="spacing" textLength="188" x="1521" y="620.5166">-threadGerenciadora: Thread</text><text fill="#000000" font-family="sans-serif" font-size="15" lengthAdjust="spacing" textLength="162" x="1521" y="641.3838">-simulacaoAtiva: boolean</text><text fill="#000000" font-family="sans-serif" font-size="15" lengthAdjust="spacing" textLength="191" x="1521" y="662.251">-podeInserirVeiculos: boolean</text><text fill="#000000" font-family="sans-serif" font-size="15" lengthAdjust="spacing" textLength="356" x="1521" y="683.1182">-gerenciadorSincronizacao: GerenciadorSincronizacao</text><line style="stroke:#808000;stroke-width:0.5;" x1="1515" x2="1883" y1="691.4141" y2="691.4141"/><text fill="#000000" font-family="sans-serif" font-size="15" lengthAdjust="spacing" textLength="148" x="1521" y="711.9854">+SimuladorController()</text><text fill="#000000" font-family="sans-serif" font-size="15" lengthAdjust="spacing" textLength="77" x="1521" y="732.8525">-iniciarGUI()</text><text fill="#000000" font-family="sans-serif" font-size="15" lengthAdjust="spacing" textLength="167" x="1521" y="753.7197">-carregarMalha(): boolean</text><text fill="#000000" font-family="sans-serif" font-size="15" lengthAdjust="spacing" textLength="125" x="1521" y="774.5869">-conectarEventos()</text><text fill="#000000" font-family="sans-serif" font-size="15" lengthAdjust="spacing" textLength="122" x="1521" y="795.4541">-iniciarSimulacao()</text><text fill="#000000" font-family="sans-serif" font-size="15" lengthAdjust="spacing" textLength="126" x="1521" y="816.3213">-encerrarInsercao()</text><text fill="#000000" font-family="sans-serif" font-size="15" lengthAdjust="spacing" textLength="139" x="1521" y="837.1885">-encerrarSimulacao()</text><text fill="#000000" font-family="sans-serif" font-size="15" lengthAdjust="spacing" textLength="40" x="1521" y="858.0557">+run()</text></g><!--class Runnable--><g id="elem_Runnable"><rect fill="#ADD8E6" height="48" id="Runnable" rx="7.5" ry="7.5" style="stroke:#808000;stroke-width:0.5;" width="85" x="1656.5" y="289.6094"/><ellipse cx="1671.5" cy="305.6094" fill="#B4A7E5" rx="11" ry="11" style="stroke:#181818;stroke-width:1.0;"/><path d="M1672.4531,302.25 L1672.4531,308.9063 L1674.1719,308.9063 Q1674.7813,308.9063 1675.0469,309.1406 Q1675.3125,309.375 1675.3125,309.7656 Q1675.3125,310.1406 1675.0469,310.375 Q1674.7813,310.6094 1674.1719,310.6094 L1669.0313,310.6094 Q1668.4219,310.6094 1668.1563,310.375 Q1667.8906,310.1406 1667.8906,309.75 Q1667.8906,309.375 1668.1563,309.1406 Q1668.4219,308.9063 1669.0313,308.9063 L1670.75,308.9063 L1670.75,302.25 L1669.0313,302.25 Q1668.4219,302.25 1668.1563,302.0156 Q1667.8906,301.7813 1667.8906,301.3906 Q1667.8906,301.0156 1668.1563,300.7813 Q1668.4219,300.5469 1669.0313,300.5469 L1674.1719,300.5469 Q1674.7813,300.5469 1675.0469,300.7813 Q1675.3125,301.0156 1675.3125,301.3906 Q1675.3125,301.7813 1675.0469,302.0156 Q1674.7813,302.25 1674.1719,302.25 L1672.4531,302.25 Z " fill="#000000"/><text fill="#000000" font-family="Segoe UI" font-size="12" font-style="italic" lengthAdjust="spacing" textLength="51" x="1686.5" y="310.5781">Runnable</text><line style="stroke:#808000;stroke-width:0.5;" x1="1657.5" x2="1740.5" y1="321.6094" y2="321.6094"/><line style="stroke:#808000;stroke-width:0.5;" x1="1657.5" x2="1740.5" y1="329.6094" y2="329.6094"/></g><!--class JanelaPrincipal--><g id="elem_JanelaPrincipal"><rect codeLine="89" fill="#ADD8E6" height="152.3359" id="JanelaPrincipal" rx="7.5" ry="7.5" style="stroke:#808000;stroke-width:0.5;" width="251" x="1154.5" y="1081.6094"/><ellipse cx="1235.75" cy="1097.6094" fill="#ADD1B2" rx="11" ry="11" style="stroke:#181818;stroke-width:1.0;"/><path d="M1238.5156,1093.4844 Q1238.6719,1093.2656 1238.8594,1093.1563 Q1239.0469,1093.0469 1239.2656,1093.0469 Q1239.6406,1093.0469 1239.875,1093.3125 Q1240.1094,1093.5625 1240.1094,1094.1719 L1240.1094,1095.625 Q1240.1094,1096.2344 1239.875,1096.5 Q1239.6406,1096.7656 1239.2656,1096.7656 Q1238.9219,1096.7656 1238.7188,1096.5625 Q1238.5156,1096.375 1238.4063,1095.8594 Q1238.3594,1095.5 1238.1719,1095.3125 Q1237.8438,1094.9375 1237.2344,1094.7188 Q1236.625,1094.5 1236,1094.5 Q1235.2344,1094.5 1234.5938,1094.8281 Q1233.9688,1095.1563 1233.4688,1095.9063 Q1232.9844,1096.6563 1232.9844,1097.6875 L1232.9844,1098.7813 Q1232.9844,1100.0156 1233.875,1100.8438 Q1234.7656,1101.6563 1236.3594,1101.6563 Q1237.2969,1101.6563 1237.9531,1101.4063 Q1238.3438,1101.25 1238.7656,1100.8125 Q1239.0313,1100.5469 1239.1719,1100.4688 Q1239.3281,1100.3906 1239.5313,1100.3906 Q1239.8594,1100.3906 1240.1094,1100.6563 Q1240.375,1100.9063 1240.375,1101.25 Q1240.375,1101.5938 1240.0313,1102 Q1239.5313,1102.5781 1238.7344,1102.9063 Q1237.6563,1103.3594 1236.3594,1103.3594 Q1234.8438,1103.3594 1233.6406,1102.7344 Q1232.6563,1102.2344 1231.9688,1101.1719 Q1231.2813,1100.0938 1231.2813,1098.8125 L1231.2813,1097.6563 Q1231.2813,1096.3281 1231.8906,1095.1875 Q1232.5156,1094.0313 1233.6094,1093.4219 Q1234.7031,1092.7969 1235.9375,1092.7969 Q1236.6719,1092.7969 1237.3125,1092.9688 Q1237.9688,1093.125 1238.5156,1093.4844 Z " fill="#000000"/><text fill="#000000" font-family="Segoe UI" font-size="12" lengthAdjust="spacing" textLength="78" x="1257.25" y="1102.5781">JanelaPrincipal</text><line style="stroke:#808000;stroke-width:0.5;" x1="1155.5" x2="1404.5" y1="1113.6094" y2="1113.6094"/><text fill="#000000" font-family="sans-serif" font-size="15" lengthAdjust="spacing" textLength="167" x="1161.5" y="1134.1807">-painelMalha: PainelMalha</text><text fill="#000000" font-family="sans-serif" font-size="15" lengthAdjust="spacing" textLength="201" x="1161.5" y="1155.0479">-painelControle: PainelControle</text><line style="stroke:#808000;stroke-width:0.5;" x1="1155.5" x2="1404.5" y1="1163.3438" y2="1163.3438"/><text fill="#000000" font-family="sans-serif" font-size="15" lengthAdjust="spacing" textLength="117" x="1161.5" y="1183.915">+JanelaPrincipal()</text><text fill="#000000" font-family="sans-serif" font-size="15" lengthAdjust="spacing" textLength="203" x="1161.5" y="1204.7822">+getPainelMalha(): PainelMalha</text><text fill="#000000" font-family="sans-serif" font-size="15" lengthAdjust="spacing" textLength="237" x="1161.5" y="1225.6494">+getPainelControle(): PainelControle</text></g><!--class JFrame--><g id="elem_JFrame"><rect fill="#ADD8E6" height="48" id="JFrame" rx="7.5" ry="7.5" style="stroke:#808000;stroke-width:0.5;" width="71" x="1244.5" y="641.1094"/><ellipse cx="1259.5" cy="657.1094" fill="#ADD1B2" rx="11" ry="11" style="stroke:#181818;stroke-width:1.0;"/><path d="M1262.2656,652.9844 Q1262.4219,652.7656 1262.6094,652.6563 Q1262.7969,652.5469 1263.0156,652.5469 Q1263.3906,652.5469 1263.625,652.8125 Q1263.8594,653.0625 1263.8594,653.6719 L1263.8594,655.125 Q1263.8594,655.7344 1263.625,656 Q1263.3906,656.2656 1263.0156,656.2656 Q1262.6719,656.2656 1262.4688,656.0625 Q1262.2656,655.875 1262.1563,655.3594 Q1262.1094,655 1261.9219,654.8125 Q1261.5938,654.4375 1260.9844,654.2188 Q1260.375,654 1259.75,654 Q1258.9844,654 1258.3438,654.3281 Q1257.7188,654.6563 1257.2188,655.4063 Q1256.7344,656.1563 1256.7344,657.1875 L1256.7344,658.2813 Q1256.7344,659.5156 1257.625,660.3438 Q1258.5156,661.1563 1260.1094,661.1563 Q1261.0469,661.1563 1261.7031,660.9063 Q1262.0938,660.75 1262.5156,660.3125 Q1262.7813,660.0469 1262.9219,659.9688 Q1263.0781,659.8906 1263.2813,659.8906 Q1263.6094,659.8906 1263.8594,660.1563 Q1264.125,660.4063 1264.125,660.75 Q1264.125,661.0938 1263.7813,661.5 Q1263.2813,662.0781 1262.4844,662.4063 Q1261.4063,662.8594 1260.1094,662.8594 Q1258.5938,662.8594 1257.3906,662.2344 Q1256.4063,661.7344 1255.7188,660.6719 Q1255.0313,659.5938 1255.0313,658.3125 L1255.0313,657.1563 Q1255.0313,655.8281 1255.6406,654.6875 Q1256.2656,653.5313 1257.3594,652.9219 Q1258.4531,652.2969 1259.6875,652.2969 Q1260.4219,652.2969 1261.0625,652.4688 Q1261.7188,652.625 1262.2656,652.9844 Z " fill="#000000"/><text fill="#000000" font-family="Segoe UI" font-size="12" lengthAdjust="spacing" textLength="37" x="1274.5" y="662.0781">JFrame</text><line style="stroke:#808000;stroke-width:0.5;" x1="1245.5" x2="1314.5" y1="673.1094" y2="673.1094"/><line style="stroke:#808000;stroke-width:0.5;" x1="1245.5" x2="1314.5" y1="681.1094" y2="681.1094"/></g><!--class PainelMalha--><g id="elem_PainelMalha"><rect codeLine="97" fill="#ADD8E6" height="235.8047" id="PainelMalha" rx="7.5" ry="7.5" style="stroke:#808000;stroke-width:0.5;" width="292" x="1134" y="1500.6094"/><ellipse cx="1242.25" cy="1516.6094" fill="#ADD1B2" rx="11" ry="11" style="stroke:#181818;stroke-width:1.0;"/><path d="M1245.0156,1512.4844 Q1245.1719,1512.2656 1245.3594,1512.1563 Q1245.5469,1512.0469 1245.7656,1512.0469 Q1246.1406,1512.0469 1246.375,1512.3125 Q1246.6094,1512.5625 1246.6094,1513.1719 L1246.6094,1514.625 Q1246.6094,1515.2344 1246.375,1515.5 Q1246.1406,1515.7656 1245.7656,1515.7656 Q1245.4219,1515.7656 1245.2188,1515.5625 Q1245.0156,1515.375 1244.9063,1514.8594 Q1244.8594,1514.5 1244.6719,1514.3125 Q1244.3438,1513.9375 1243.7344,1513.7188 Q1243.125,1513.5 1242.5,1513.5 Q1241.7344,1513.5 1241.0938,1513.8281 Q1240.4688,1514.1563 1239.9688,1514.9063 Q1239.4844,1515.6563 1239.4844,1516.6875 L1239.4844,1517.7813 Q1239.4844,1519.0156 1240.375,1519.8438 Q1241.2656,1520.6563 1242.8594,1520.6563 Q1243.7969,1520.6563 1244.4531,1520.4063 Q1244.8438,1520.25 1245.2656,1519.8125 Q1245.5313,1519.5469 1245.6719,1519.4688 Q1245.8281,1519.3906 1246.0313,1519.3906 Q1246.3594,1519.3906 1246.6094,1519.6563 Q1246.875,1519.9063 1246.875,1520.25 Q1246.875,1520.5938 1246.5313,1521 Q1246.0313,1521.5781 1245.2344,1521.9063 Q1244.1563,1522.3594 1242.8594,1522.3594 Q1241.3438,1522.3594 1240.1406,1521.7344 Q1239.1563,1521.2344 1238.4688,1520.1719 Q1237.7813,1519.0938 1237.7813,1517.8125 L1237.7813,1516.6563 Q1237.7813,1515.3281 1238.3906,1514.1875 Q1239.0156,1513.0313 1240.1094,1512.4219 Q1241.2031,1511.7969 1242.4375,1511.7969 Q1243.1719,1511.7969 1243.8125,1511.9688 Q1244.4688,1512.125 1245.0156,1512.4844 Z " fill="#000000"/><text fill="#000000" font-family="Segoe UI" font-size="12" lengthAdjust="spacing" textLength="65" x="1263.75" y="1521.5781">PainelMalha</text><line style="stroke:#808000;stroke-width:0.5;" x1="1135" x2="1425" y1="1532.6094" y2="1532.6094"/><text fill="#000000" font-family="sans-serif" font-size="15" lengthAdjust="spacing" textLength="91" x="1141" y="1553.1807">-malha: Malha</text><text fill="#000000" font-family="sans-serif" font-size="15" lengthAdjust="spacing" textLength="154" x="1141" y="1574.0479">-veiculos: List&lt;Veiculo&gt;</text><line style="stroke:#808000;stroke-width:0.5;" x1="1135" x2="1425" y1="1582.3438" y2="1582.3438"/><text fill="#000000" font-family="sans-serif" font-size="15" lengthAdjust="spacing" textLength="97" x="1141" y="1602.915">+PainelMalha()</text><text fill="#000000" font-family="sans-serif" font-size="15" lengthAdjust="spacing" textLength="159" x="1141" y="1623.7822">+setMalha(Malha malha)</text><text fill="#000000" font-family="sans-serif" font-size="15" lengthAdjust="spacing" textLength="239" x="1141" y="1644.6494">+setVeiculos(List&lt;Veiculo&gt; veiculos)</text><text fill="#000000" font-family="sans-serif" font-size="15" lengthAdjust="spacing" textLength="196" x="1141" y="1665.5166">#paintComponent(Graphics g)</text><text fill="#000000" font-family="sans-serif" font-size="15" lengthAdjust="spacing" textLength="261" x="1141" y="1686.3838">-desenharMalha(Graphics2D, int, int, int)</text><text fill="#000000" font-family="sans-serif" font-size="15" lengthAdjust="spacing" textLength="269" x="1141" y="1707.251">-desenharPontos(Graphics2D, int, int, int)</text><text fill="#000000" font-family="sans-serif" font-size="15" lengthAdjust="spacing" textLength="278" x="1141" y="1728.1182">-desenharVeiculos(Graphics2D, int, int, int)</text></g><!--class JPanel--><g id="elem_JPanel"><rect fill="#ADD8E6" height="48" id="JPanel" rx="7.5" ry="7.5" style="stroke:#808000;stroke-width:0.5;" width="67" x="949.5" y="1133.6094"/><ellipse cx="964.5" cy="1149.6094" fill="#ADD1B2" rx="11" ry="11" style="stroke:#181818;stroke-width:1.0;"/><path d="M967.2656,1145.4844 Q967.4219,1145.2656 967.6094,1145.1563 Q967.7969,1145.0469 968.0156,1145.0469 Q968.3906,1145.0469 968.625,1145.3125 Q968.8594,1145.5625 968.8594,1146.1719 L968.8594,1147.625 Q968.8594,1148.2344 968.625,1148.5 Q968.3906,1148.7656 968.0156,1148.7656 Q967.6719,1148.7656 967.4688,1148.5625 Q967.2656,1148.375 967.1563,1147.8594 Q967.1094,1147.5 966.9219,1147.3125 Q966.5938,1146.9375 965.9844,1146.7188 Q965.375,1146.5 964.75,1146.5 Q963.9844,1146.5 963.3438,1146.8281 Q962.7188,1147.1563 962.2188,1147.9063 Q961.7344,1148.6563 961.7344,1149.6875 L961.7344,1150.7813 Q961.7344,1152.0156 962.625,1152.8438 Q963.5156,1153.6563 965.1094,1153.6563 Q966.0469,1153.6563 966.7031,1153.4063 Q967.0938,1153.25 967.5156,1152.8125 Q967.7813,1152.5469 967.9219,1152.4688 Q968.0781,1152.3906 968.2813,1152.3906 Q968.6094,1152.3906 968.8594,1152.6563 Q969.125,1152.9063 969.125,1153.25 Q969.125,1153.5938 968.7813,1154 Q968.2813,1154.5781 967.4844,1154.9063 Q966.4063,1155.3594 965.1094,1155.3594 Q963.5938,1155.3594 962.3906,1154.7344 Q961.4063,1154.2344 960.7188,1153.1719 Q960.0313,1152.0938 960.0313,1150.8125 L960.0313,1149.6563 Q960.0313,1148.3281 960.6406,1147.1875 Q961.2656,1146.0313 962.3594,1145.4219 Q963.4531,1144.7969 964.6875,1144.7969 Q965.4219,1144.7969 966.0625,1144.9688 Q966.7188,1145.125 967.2656,1145.4844 Z " fill="#000000"/><text fill="#000000" font-family="Segoe UI" font-size="12" lengthAdjust="spacing" textLength="33" x="979.5" y="1154.5781">JPanel</text><line style="stroke:#808000;stroke-width:0.5;" x1="950.5" x2="1015.5" y1="1165.6094" y2="1165.6094"/><line style="stroke:#808000;stroke-width:0.5;" x1="950.5" x2="1015.5" y1="1173.6094" y2="1173.6094"/></g><!--class PainelControle--><g id="elem_PainelControle"><rect codeLine="109" fill="#ADD8E6" height="340.1406" id="PainelControle" rx="7.5" ry="7.5" style="stroke:#808000;stroke-width:0.5;" width="258" x="796" y="1448.6094"/><ellipse cx="880.75" cy="1464.6094" fill="#ADD1B2" rx="11" ry="11" style="stroke:#181818;stroke-width:1.0;"/><path d="M883.5156,1460.4844 Q883.6719,1460.2656 883.8594,1460.1563 Q884.0469,1460.0469 884.2656,1460.0469 Q884.6406,1460.0469 884.875,1460.3125 Q885.1094,1460.5625 885.1094,1461.1719 L885.1094,1462.625 Q885.1094,1463.2344 884.875,1463.5 Q884.6406,1463.7656 884.2656,1463.7656 Q883.9219,1463.7656 883.7188,1463.5625 Q883.5156,1463.375 883.4063,1462.8594 Q883.3594,1462.5 883.1719,1462.3125 Q882.8438,1461.9375 882.2344,1461.7188 Q881.625,1461.5 881,1461.5 Q880.2344,1461.5 879.5938,1461.8281 Q878.9688,1462.1563 878.4688,1462.9063 Q877.9844,1463.6563 877.9844,1464.6875 L877.9844,1465.7813 Q877.9844,1467.0156 878.875,1467.8438 Q879.7656,1468.6563 881.3594,1468.6563 Q882.2969,1468.6563 882.9531,1468.4063 Q883.3438,1468.25 883.7656,1467.8125 Q884.0313,1467.5469 884.1719,1467.4688 Q884.3281,1467.3906 884.5313,1467.3906 Q884.8594,1467.3906 885.1094,1467.6563 Q885.375,1467.9063 885.375,1468.25 Q885.375,1468.5938 885.0313,1469 Q884.5313,1469.5781 883.7344,1469.9063 Q882.6563,1470.3594 881.3594,1470.3594 Q879.8438,1470.3594 878.6406,1469.7344 Q877.6563,1469.2344 876.9688,1468.1719 Q876.2813,1467.0938 876.2813,1465.8125 L876.2813,1464.6563 Q876.2813,1463.3281 876.8906,1462.1875 Q877.5156,1461.0313 878.6094,1460.4219 Q879.7031,1459.7969 880.9375,1459.7969 Q881.6719,1459.7969 882.3125,1459.9688 Q882.9688,1460.125 883.5156,1460.4844 Z " fill="#000000"/><text fill="#000000" font-family="Segoe UI" font-size="12" lengthAdjust="spacing" textLength="78" x="902.25" y="1469.5781">PainelControle</text><line style="stroke:#808000;stroke-width:0.5;" x1="797" x2="1053" y1="1480.6094" y2="1480.6094"/><text fill="#000000" font-family="sans-serif" font-size="15" lengthAdjust="spacing" textLength="173" x="803" y="1501.1807">-txtQtdVeiculos: JTextField</text><text fill="#000000" font-family="sans-serif" font-size="15" lengthAdjust="spacing" textLength="148" x="803" y="1522.0479">-txtIntervalo: JTextField</text><text fill="#000000" font-family="sans-serif" font-size="15" lengthAdjust="spacing" textLength="177" x="803" y="1542.915">-rbSemaforo: JRadioButton</text><text fill="#000000" font-family="sans-serif" font-size="15" lengthAdjust="spacing" textLength="160" x="803" y="1563.7822">-rbMonitor: JRadioButton</text><text fill="#000000" font-family="sans-serif" font-size="15" lengthAdjust="spacing" textLength="120" x="803" y="1584.6494">-btnIniciar: JButton</text><text fill="#000000" font-family="sans-serif" font-size="15" lengthAdjust="spacing" textLength="195" x="803" y="1605.5166">-btnEncerrarInsercao: JButton</text><text fill="#000000" font-family="sans-serif" font-size="15" lengthAdjust="spacing" textLength="208" x="803" y="1626.3838">-btnEncerrarSimulacao: JButton</text><line style="stroke:#808000;stroke-width:0.5;" x1="797" x2="1053" y1="1634.6797" y2="1634.6797"/><text fill="#000000" font-family="sans-serif" font-size="15" lengthAdjust="spacing" textLength="114" x="803" y="1655.251">+PainelControle()</text><text fill="#000000" font-family="sans-serif" font-size="15" lengthAdjust="spacing" textLength="164" x="803" y="1676.1182">+getQtdVeiculos(): String</text><text fill="#000000" font-family="sans-serif" font-size="15" lengthAdjust="spacing" textLength="139" x="803" y="1696.9854">+getIntervalo(): String</text><text fill="#000000" font-family="sans-serif" font-size="15" lengthAdjust="spacing" textLength="233" x="803" y="1717.8525">+isSemaforoSelecionado(): boolean</text><text fill="#000000" font-family="sans-serif" font-size="15" lengthAdjust="spacing" textLength="156" x="803" y="1738.7197">+getBtnIniciar(): JButton</text><text fill="#000000" font-family="sans-serif" font-size="15" lengthAdjust="spacing" textLength="231" x="803" y="1759.5869">+getBtnEncerrarInsercao(): JButton</text><text fill="#000000" font-family="sans-serif" font-size="15" lengthAdjust="spacing" textLength="244" x="803" y="1780.4541">+getBtnEncerrarSimulacao(): JButton</text></g><!--class Malha--><g id="elem_Malha"><rect codeLine="129" fill="#ADD8E6" height="298.4063" id="Malha" rx="7.5" ry="7.5" style="stroke:#808000;stroke-width:0.5;" width="316" x="2015" y="1469.6094"/><ellipse cx="2151.25" cy="1485.6094" fill="#ADD1B2" rx="11" ry="11" style="stroke:#181818;stroke-width:1.0;"/><path d="M2154.0156,1481.4844 Q2154.1719,1481.2656 2154.3594,1481.1563 Q2154.5469,1481.0469 2154.7656,1481.0469 Q2155.1406,1481.0469 2155.375,1481.3125 Q2155.6094,1481.5625 2155.6094,1482.1719 L2155.6094,1483.625 Q2155.6094,1484.2344 2155.375,1484.5 Q2155.1406,1484.7656 2154.7656,1484.7656 Q2154.4219,1484.7656 2154.2188,1484.5625 Q2154.0156,1484.375 2153.9063,1483.8594 Q2153.8594,1483.5 2153.6719,1483.3125 Q2153.3438,1482.9375 2152.7344,1482.7188 Q2152.125,1482.5 2151.5,1482.5 Q2150.7344,1482.5 2150.0938,1482.8281 Q2149.4688,1483.1563 2148.9688,1483.9063 Q2148.4844,1484.6563 2148.4844,1485.6875 L2148.4844,1486.7813 Q2148.4844,1488.0156 2149.375,1488.8438 Q2150.2656,1489.6563 2151.8594,1489.6563 Q2152.7969,1489.6563 2153.4531,1489.4063 Q2153.8438,1489.25 2154.2656,1488.8125 Q2154.5313,1488.5469 2154.6719,1488.4688 Q2154.8281,1488.3906 2155.0313,1488.3906 Q2155.3594,1488.3906 2155.6094,1488.6563 Q2155.875,1488.9063 2155.875,1489.25 Q2155.875,1489.5938 2155.5313,1490 Q2155.0313,1490.5781 2154.2344,1490.9063 Q2153.1563,1491.3594 2151.8594,1491.3594 Q2150.3438,1491.3594 2149.1406,1490.7344 Q2148.1563,1490.2344 2147.4688,1489.1719 Q2146.7813,1488.0938 2146.7813,1486.8125 L2146.7813,1485.6563 Q2146.7813,1484.3281 2147.3906,1483.1875 Q2148.0156,1482.0313 2149.1094,1481.4219 Q2150.2031,1480.7969 2151.4375,1480.7969 Q2152.1719,1480.7969 2152.8125,1480.9688 Q2153.4688,1481.125 2154.0156,1481.4844 Z " fill="#000000"/><text fill="#000000" font-family="Segoe UI" font-size="12" lengthAdjust="spacing" textLength="33" x="2172.75" y="1490.5781">Malha</text><line style="stroke:#808000;stroke-width:0.5;" x1="2016" x2="2330" y1="1501.6094" y2="1501.6094"/><text fill="#000000" font-family="sans-serif" font-size="15" lengthAdjust="spacing" textLength="68" x="2022" y="1522.1807">-grid: int[][]</text><text fill="#000000" font-family="sans-serif" font-size="15" lengthAdjust="spacing" textLength="201" x="2022" y="1543.0479">-pontosDeEntrada: List&lt;Point&gt;</text><text fill="#000000" font-family="sans-serif" font-size="15" lengthAdjust="spacing" textLength="187" x="2022" y="1563.915">-pontosDeSaida: List&lt;Point&gt;</text><text fill="#000000" font-family="sans-serif" font-size="15" lengthAdjust="spacing" textLength="264" x="2022" y="1584.7822">-monitoresDaMalha: Map&lt;Point, Object&gt;</text><text fill="#000000" font-family="sans-serif" font-size="15" lengthAdjust="spacing" textLength="302" x="2022" y="1605.6494">-semaforosDaMalha: Map&lt;Point, Semaphore&gt;</text><line style="stroke:#808000;stroke-width:0.5;" x1="2016" x2="2330" y1="1613.9453" y2="1613.9453"/><text fill="#000000" font-family="sans-serif" font-size="15" lengthAdjust="spacing" textLength="220" x="2022" y="1634.5166">+Malha(int[][], List, List, Map, Map)</text><text fill="#000000" font-family="sans-serif" font-size="15" lengthAdjust="spacing" textLength="201" x="2022" y="1655.3838">+getsemaforosDaMalha(): Map</text><text fill="#000000" font-family="sans-serif" font-size="15" lengthAdjust="spacing" textLength="105" x="2022" y="1676.251">+getLinhas(): int</text><text fill="#000000" font-family="sans-serif" font-size="15" lengthAdjust="spacing" textLength="116" x="2022" y="1697.1182">+getColunas(): int</text><text fill="#000000" font-family="sans-serif" font-size="15" lengthAdjust="spacing" textLength="133" x="2022" y="1717.9854">+getValor(int, int): int</text><text fill="#000000" font-family="sans-serif" font-size="15" lengthAdjust="spacing" textLength="186" x="2022" y="1738.8525">+getPontosDeEntrada(): List</text><text fill="#000000" font-family="sans-serif" font-size="15" lengthAdjust="spacing" textLength="172" x="2022" y="1759.7197">+getPontosDeSaida(): List</text></g><!--class Veiculo--><g id="elem_Veiculo"><rect codeLine="144" fill="#ADD8E6" height="381.875" id="Veiculo" rx="7.5" ry="7.5" style="stroke:#808000;stroke-width:0.5;" width="426" x="1988" y="966.6094"/><ellipse cx="2176.25" cy="982.6094" fill="#ADD1B2" rx="11" ry="11" style="stroke:#181818;stroke-width:1.0;"/><path d="M2179.0156,978.4844 Q2179.1719,978.2656 2179.3594,978.1563 Q2179.5469,978.0469 2179.7656,978.0469 Q2180.1406,978.0469 2180.375,978.3125 Q2180.6094,978.5625 2180.6094,979.1719 L2180.6094,980.625 Q2180.6094,981.2344 2180.375,981.5 Q2180.1406,981.7656 2179.7656,981.7656 Q2179.4219,981.7656 2179.2188,981.5625 Q2179.0156,981.375 2178.9063,980.8594 Q2178.8594,980.5 2178.6719,980.3125 Q2178.3438,979.9375 2177.7344,979.7188 Q2177.125,979.5 2176.5,979.5 Q2175.7344,979.5 2175.0938,979.8281 Q2174.4688,980.1563 2173.9688,980.9063 Q2173.4844,981.6563 2173.4844,982.6875 L2173.4844,983.7813 Q2173.4844,985.0156 2174.375,985.8438 Q2175.2656,986.6563 2176.8594,986.6563 Q2177.7969,986.6563 2178.4531,986.4063 Q2178.8438,986.25 2179.2656,985.8125 Q2179.5313,985.5469 2179.6719,985.4688 Q2179.8281,985.3906 2180.0313,985.3906 Q2180.3594,985.3906 2180.6094,985.6563 Q2180.875,985.9063 2180.875,986.25 Q2180.875,986.5938 2180.5313,987 Q2180.0313,987.5781 2179.2344,987.9063 Q2178.1563,988.3594 2176.8594,988.3594 Q2175.3438,988.3594 2174.1406,987.7344 Q2173.1563,987.2344 2172.4688,986.1719 Q2171.7813,985.0938 2171.7813,983.8125 L2171.7813,982.6563 Q2171.7813,981.3281 2172.3906,980.1875 Q2173.0156,979.0313 2174.1094,978.4219 Q2175.2031,977.7969 2176.4375,977.7969 Q2177.1719,977.7969 2177.8125,977.9688 Q2178.4688,978.125 2179.0156,978.4844 Z " fill="#000000"/><text fill="#000000" font-family="Segoe UI" font-size="12" lengthAdjust="spacing" textLength="39" x="2197.75" y="987.5781">Veiculo</text><line style="stroke:#808000;stroke-width:0.5;" x1="1989" x2="2413" y1="998.6094" y2="998.6094"/><text fill="#000000" font-family="sans-serif" font-size="15" lengthAdjust="spacing" text-decoration="underline" textLength="96" x="1995" y="1019.1807">-contadorId: int</text><text fill="#000000" font-family="sans-serif" font-size="15" lengthAdjust="spacing" textLength="39" x="1995" y="1040.0479">-id: int</text><text fill="#000000" font-family="sans-serif" font-size="15" lengthAdjust="spacing" textLength="97" x="1995" y="1060.915">-posicao: Point</text><text fill="#000000" font-family="sans-serif" font-size="15" lengthAdjust="spacing" textLength="97" x="1995" y="1081.7822">-velocidade: int</text><text fill="#000000" font-family="sans-serif" font-size="15" lengthAdjust="spacing" textLength="91" x="1995" y="1102.6494">-malha: Malha</text><text fill="#000000" font-family="sans-serif" font-size="15" lengthAdjust="spacing" textLength="129" x="1995" y="1123.5166">-painel: PainelMalha</text><text fill="#000000" font-family="sans-serif" font-size="15" lengthAdjust="spacing" textLength="356" x="1995" y="1144.3838">-gerenciadorSincronizacao: GerenciadorSincronizacao</text><text fill="#000000" font-family="sans-serif" font-size="15" lengthAdjust="spacing" textLength="214" x="1995" y="1165.251">-caminhoReservado: List&lt;Point&gt;</text><line style="stroke:#808000;stroke-width:0.5;" x1="1989" x2="2413" y1="1173.5469" y2="1173.5469"/><text fill="#000000" font-family="sans-serif" font-size="15" lengthAdjust="spacing" textLength="412" x="1995" y="1194.1182">+Veiculo(Point, Malha, PainelMalha, GerenciadorSincronizacao)</text><text fill="#000000" font-family="sans-serif" font-size="15" lengthAdjust="spacing" textLength="40" x="1995" y="1214.9854">+run()</text><text fill="#000000" font-family="sans-serif" font-size="15" lengthAdjust="spacing" textLength="229" x="1995" y="1235.8525">-moverPara(Point proximaPosicao)</text><text fill="#000000" font-family="sans-serif" font-size="15" lengthAdjust="spacing" textLength="289" x="1995" y="1256.7197">-atravessarCruzamento(Point pontoEntrada)</text><text fill="#000000" font-family="sans-serif" font-size="15" lengthAdjust="spacing" textLength="303" x="1995" y="1277.5869">-planejarCaminhoCompleto(Point): List&lt;Point&gt;</text><text fill="#000000" font-family="sans-serif" font-size="15" lengthAdjust="spacing" textLength="253" x="1995" y="1298.4541">-calcularProximaPosicaoFisica(): Point</text><text fill="#000000" font-family="sans-serif" font-size="15" lengthAdjust="spacing" textLength="85" x="1995" y="1319.3213">+getId(): long</text><text fill="#000000" font-family="sans-serif" font-size="15" lengthAdjust="spacing" textLength="133" x="1995" y="1340.1885">+getPosicao(): Point</text></g><!--class Thread--><g id="elem_Thread"><rect fill="#ADD8E6" height="48" id="Thread" rx="7.5" ry="7.5" style="stroke:#808000;stroke-width:0.5;" width="71" x="2165.5" y="641.1094"/><ellipse cx="2180.5" cy="657.1094" fill="#ADD1B2" rx="11" ry="11" style="stroke:#181818;stroke-width:1.0;"/><path d="M2183.2656,652.9844 Q2183.4219,652.7656 2183.6094,652.6563 Q2183.7969,652.5469 2184.0156,652.5469 Q2184.3906,652.5469 2184.625,652.8125 Q2184.8594,653.0625 2184.8594,653.6719 L2184.8594,655.125 Q2184.8594,655.7344 2184.625,656 Q2184.3906,656.2656 2184.0156,656.2656 Q2183.6719,656.2656 2183.4688,656.0625 Q2183.2656,655.875 2183.1563,655.3594 Q2183.1094,655 2182.9219,654.8125 Q2182.5938,654.4375 2181.9844,654.2188 Q2181.375,654 2180.75,654 Q2179.9844,654 2179.3438,654.3281 Q2178.7188,654.6563 2178.2188,655.4063 Q2177.7344,656.1563 2177.7344,657.1875 L2177.7344,658.2813 Q2177.7344,659.5156 2178.625,660.3438 Q2179.5156,661.1563 2181.1094,661.1563 Q2182.0469,661.1563 2182.7031,660.9063 Q2183.0938,660.75 2183.5156,660.3125 Q2183.7813,660.0469 2183.9219,659.9688 Q2184.0781,659.8906 2184.2813,659.8906 Q2184.6094,659.8906 2184.8594,660.1563 Q2185.125,660.4063 2185.125,660.75 Q2185.125,661.0938 2184.7813,661.5 Q2184.2813,662.0781 2183.4844,662.4063 Q2182.4063,662.8594 2181.1094,662.8594 Q2179.5938,662.8594 2178.3906,662.2344 Q2177.4063,661.7344 2176.7188,660.6719 Q2176.0313,659.5938 2176.0313,658.3125 L2176.0313,657.1563 Q2176.0313,655.8281 2176.6406,654.6875 Q2177.2656,653.5313 2178.3594,652.9219 Q2179.4531,652.2969 2180.6875,652.2969 Q2181.4219,652.2969 2182.0625,652.4688 Q2182.7188,652.625 2183.2656,652.9844 Z " fill="#000000"/><text fill="#000000" font-family="Segoe UI" font-size="12" lengthAdjust="spacing" textLength="37" x="2195.5" y="662.0781">Thread</text><line style="stroke:#808000;stroke-width:0.5;" x1="2166.5" x2="2235.5" y1="673.1094" y2="673.1094"/><line style="stroke:#808000;stroke-width:0.5;" x1="2166.5" x2="2235.5" y1="681.1094" y2="681.1094"/></g><!--class GerenciadorSincronizacao--><g id="elem_GerenciadorSincronizacao"><rect codeLine="165" fill="#ADD8E6" height="131.4688" id="GerenciadorSincronizacao" rx="7.5" ry="7.5" style="stroke:#808000;stroke-width:0.5;" width="372" x="2719" y="599.6094"/><ellipse cx="2832.75" cy="615.6094" fill="#B4A7E5" rx="11" ry="11" style="stroke:#181818;stroke-width:1.0;"/><path d="M2833.7031,612.25 L2833.7031,618.9063 L2835.4219,618.9063 Q2836.0313,618.9063 2836.2969,619.1406 Q2836.5625,619.375 2836.5625,619.7656 Q2836.5625,620.1406 2836.2969,620.375 Q2836.0313,620.6094 2835.4219,620.6094 L2830.2813,620.6094 Q2829.6719,620.6094 2829.4063,620.375 Q2829.1406,620.1406 2829.1406,619.75 Q2829.1406,619.375 2829.4063,619.1406 Q2829.6719,618.9063 2830.2813,618.9063 L2832,618.9063 L2832,612.25 L2830.2813,612.25 Q2829.6719,612.25 2829.4063,612.0156 Q2829.1406,611.7813 2829.1406,611.3906 Q2829.1406,611.0156 2829.4063,610.7813 Q2829.6719,610.5469 2830.2813,610.5469 L2835.4219,610.5469 Q2836.0313,610.5469 2836.2969,610.7813 Q2836.5625,611.0156 2836.5625,611.3906 Q2836.5625,611.7813 2836.2969,612.0156 Q2836.0313,612.25 2835.4219,612.25 L2833.7031,612.25 Z " fill="#000000"/><text fill="#000000" font-family="Segoe UI" font-size="12" font-style="italic" lengthAdjust="spacing" textLength="134" x="2854.25" y="620.5781">GerenciadorSincronizacao</text><line style="stroke:#808000;stroke-width:0.5;" x1="2720" x2="3090" y1="631.6094" y2="631.6094"/><line style="stroke:#808000;stroke-width:0.5;" x1="2720" x2="3090" y1="639.6094" y2="639.6094"/><text fill="#000000" font-family="sans-serif" font-size="15" font-style="italic" lengthAdjust="spacing" textLength="210" x="2726" y="660.1807">+tentarAdquirir(Point p): boolean</text><text fill="#000000" font-family="sans-serif" font-size="15" font-style="italic" lengthAdjust="spacing" textLength="104" x="2726" y="681.0479">+liberar(Point p)</text><text fill="#000000" font-family="sans-serif" font-size="15" font-style="italic" lengthAdjust="spacing" textLength="358" x="2726" y="701.915">+tentarAdquirirCaminho(List&lt;Point&gt; caminho): boolean</text><text fill="#000000" font-family="sans-serif" font-size="15" font-style="italic" lengthAdjust="spacing" textLength="252" x="2726" y="722.7822">+liberarCaminho(List&lt;Point&gt; caminho)</text></g><!--class GerenciadorSemaforo--><g id="elem_GerenciadorSemaforo"><rect codeLine="172" fill="#ADD8E6" height="173.2031" id="GerenciadorSemaforo" rx="7.5" ry="7.5" style="stroke:#808000;stroke-width:0.5;" width="371" x="2945.5" y="1071.1094"/><ellipse cx="3068.25" cy="1087.1094" fill="#ADD1B2" rx="11" ry="11" style="stroke:#181818;stroke-width:1.0;"/><path d="M3071.0156,1082.9844 Q3071.1719,1082.7656 3071.3594,1082.6563 Q3071.5469,1082.5469 3071.7656,1082.5469 Q3072.1406,1082.5469 3072.375,1082.8125 Q3072.6094,1083.0625 3072.6094,1083.6719 L3072.6094,1085.125 Q3072.6094,1085.7344 3072.375,1086 Q3072.1406,1086.2656 3071.7656,1086.2656 Q3071.4219,1086.2656 3071.2188,1086.0625 Q3071.0156,1085.875 3070.9063,1085.3594 Q3070.8594,1085 3070.6719,1084.8125 Q3070.3438,1084.4375 3069.7344,1084.2188 Q3069.125,1084 3068.5,1084 Q3067.7344,1084 3067.0938,1084.3281 Q3066.4688,1084.6563 3065.9688,1085.4063 Q3065.4844,1086.1563 3065.4844,1087.1875 L3065.4844,1088.2813 Q3065.4844,1089.5156 3066.375,1090.3438 Q3067.2656,1091.1563 3068.8594,1091.1563 Q3069.7969,1091.1563 3070.4531,1090.9063 Q3070.8438,1090.75 3071.2656,1090.3125 Q3071.5313,1090.0469 3071.6719,1089.9688 Q3071.8281,1089.8906 3072.0313,1089.8906 Q3072.3594,1089.8906 3072.6094,1090.1563 Q3072.875,1090.4063 3072.875,1090.75 Q3072.875,1091.0938 3072.5313,1091.5 Q3072.0313,1092.0781 3071.2344,1092.4063 Q3070.1563,1092.8594 3068.8594,1092.8594 Q3067.3438,1092.8594 3066.1406,1092.2344 Q3065.1563,1091.7344 3064.4688,1090.6719 Q3063.7813,1089.5938 3063.7813,1088.3125 L3063.7813,1087.1563 Q3063.7813,1085.8281 3064.3906,1084.6875 Q3065.0156,1083.5313 3066.1094,1082.9219 Q3067.2031,1082.2969 3068.4375,1082.2969 Q3069.1719,1082.2969 3069.8125,1082.4688 Q3070.4688,1082.625 3071.0156,1082.9844 Z " fill="#000000"/><text fill="#000000" font-family="Segoe UI" font-size="12" lengthAdjust="spacing" textLength="115" x="3089.75" y="1092.0781">GerenciadorSemaforo</text><line style="stroke:#808000;stroke-width:0.5;" x1="2946.5" x2="3315.5" y1="1103.1094" y2="1103.1094"/><text fill="#000000" font-family="sans-serif" font-size="15" lengthAdjust="spacing" textLength="245" x="2952.5" y="1123.6807">-semaforos: Map&lt;Point, Semaphore&gt;</text><line style="stroke:#808000;stroke-width:0.5;" x1="2946.5" x2="3315.5" y1="1131.9766" y2="1131.9766"/><text fill="#000000" font-family="sans-serif" font-size="15" lengthAdjust="spacing" textLength="245" x="2952.5" y="1152.5479">+GerenciadorSemaforo(Malha malha)</text><text fill="#000000" font-family="sans-serif" font-size="15" lengthAdjust="spacing" textLength="209" x="2952.5" y="1173.415">+tentarAdquirir(Point p): boolean</text><text fill="#000000" font-family="sans-serif" font-size="15" lengthAdjust="spacing" textLength="104" x="2952.5" y="1194.2822">+liberar(Point p)</text><text fill="#000000" font-family="sans-serif" font-size="15" lengthAdjust="spacing" textLength="357" x="2952.5" y="1215.1494">+tentarAdquirirCaminho(List&lt;Point&gt; caminho): boolean</text><text fill="#000000" font-family="sans-serif" font-size="15" lengthAdjust="spacing" textLength="252" x="2952.5" y="1236.0166">+liberarCaminho(List&lt;Point&gt; caminho)</text></g><!--class GerenciadorMonitor--><g id="elem_GerenciadorMonitor"><rect codeLine="181" fill="#ADD8E6" height="152.3359" id="GerenciadorMonitor" rx="7.5" ry="7.5" style="stroke:#808000;stroke-width:0.5;" width="371" x="2494.5" y="1081.6094"/><ellipse cx="2621.25" cy="1097.6094" fill="#ADD1B2" rx="11" ry="11" style="stroke:#181818;stroke-width:1.0;"/><path d="M2624.0156,1093.4844 Q2624.1719,1093.2656 2624.3594,1093.1563 Q2624.5469,1093.0469 2624.7656,1093.0469 Q2625.1406,1093.0469 2625.375,1093.3125 Q2625.6094,1093.5625 2625.6094,1094.1719 L2625.6094,1095.625 Q2625.6094,1096.2344 2625.375,1096.5 Q2625.1406,1096.7656 2624.7656,1096.7656 Q2624.4219,1096.7656 2624.2188,1096.5625 Q2624.0156,1096.375 2623.9063,1095.8594 Q2623.8594,1095.5 2623.6719,1095.3125 Q2623.3438,1094.9375 2622.7344,1094.7188 Q2622.125,1094.5 2621.5,1094.5 Q2620.7344,1094.5 2620.0938,1094.8281 Q2619.4688,1095.1563 2618.9688,1095.9063 Q2618.4844,1096.6563 2618.4844,1097.6875 L2618.4844,1098.7813 Q2618.4844,1100.0156 2619.375,1100.8438 Q2620.2656,1101.6563 2621.8594,1101.6563 Q2622.7969,1101.6563 2623.4531,1101.4063 Q2623.8438,1101.25 2624.2656,1100.8125 Q2624.5313,1100.5469 2624.6719,1100.4688 Q2624.8281,1100.3906 2625.0313,1100.3906 Q2625.3594,1100.3906 2625.6094,1100.6563 Q2625.875,1100.9063 2625.875,1101.25 Q2625.875,1101.5938 2625.5313,1102 Q2625.0313,1102.5781 2624.2344,1102.9063 Q2623.1563,1103.3594 2621.8594,1103.3594 Q2620.3438,1103.3594 2619.1406,1102.7344 Q2618.1563,1102.2344 2617.4688,1101.1719 Q2616.7813,1100.0938 2616.7813,1098.8125 L2616.7813,1097.6563 Q2616.7813,1096.3281 2617.3906,1095.1875 Q2618.0156,1094.0313 2619.1094,1093.4219 Q2620.2031,1092.7969 2621.4375,1092.7969 Q2622.1719,1092.7969 2622.8125,1092.9688 Q2623.4688,1093.125 2624.0156,1093.4844 Z " fill="#000000"/><text fill="#000000" font-family="Segoe UI" font-size="12" lengthAdjust="spacing" textLength="107" x="2642.75" y="1102.5781">GerenciadorMonitor</text><line style="stroke:#808000;stroke-width:0.5;" x1="2495.5" x2="2864.5" y1="1113.6094" y2="1113.6094"/><text fill="#000000" font-family="sans-serif" font-size="15" lengthAdjust="spacing" textLength="213" x="2501.5" y="1134.1807">-posicoesOcupadas: Set&lt;Point&gt;</text><line style="stroke:#808000;stroke-width:0.5;" x1="2495.5" x2="2864.5" y1="1142.4766" y2="1142.4766"/><text fill="#000000" font-family="sans-serif" font-size="15" lengthAdjust="spacing" textLength="209" x="2501.5" y="1163.0479">+tentarAdquirir(Point p): boolean</text><text fill="#000000" font-family="sans-serif" font-size="15" lengthAdjust="spacing" textLength="104" x="2501.5" y="1183.915">+liberar(Point p)</text><text fill="#000000" font-family="sans-serif" font-size="15" lengthAdjust="spacing" textLength="357" x="2501.5" y="1204.7822">+tentarAdquirirCaminho(List&lt;Point&gt; caminho): boolean</text><text fill="#000000" font-family="sans-serif" font-size="15" lengthAdjust="spacing" textLength="252" x="2501.5" y="1225.6494">+liberarCaminho(List&lt;Point&gt; caminho)</text></g><!--class LeitorMalha--><g id="elem_LeitorMalha"><rect codeLine="193" fill="#ADD8E6" height="89.7344" id="LeitorMalha" rx="7.5" ry="7.5" style="stroke:#808000;stroke-width:0.5;" width="276" x="3493" y="620.1094"/><ellipse cx="3594.25" cy="636.1094" fill="#ADD1B2" rx="11" ry="11" style="stroke:#181818;stroke-width:1.0;"/><path d="M3597.0156,631.9844 Q3597.1719,631.7656 3597.3594,631.6563 Q3597.5469,631.5469 3597.7656,631.5469 Q3598.1406,631.5469 3598.375,631.8125 Q3598.6094,632.0625 3598.6094,632.6719 L3598.6094,634.125 Q3598.6094,634.7344 3598.375,635 Q3598.1406,635.2656 3597.7656,635.2656 Q3597.4219,635.2656 3597.2188,635.0625 Q3597.0156,634.875 3596.9063,634.3594 Q3596.8594,634 3596.6719,633.8125 Q3596.3438,633.4375 3595.7344,633.2188 Q3595.125,633 3594.5,633 Q3593.7344,633 3593.0938,633.3281 Q3592.4688,633.6563 3591.9688,634.4063 Q3591.4844,635.1563 3591.4844,636.1875 L3591.4844,637.2813 Q3591.4844,638.5156 3592.375,639.3438 Q3593.2656,640.1563 3594.8594,640.1563 Q3595.7969,640.1563 3596.4531,639.9063 Q3596.8438,639.75 3597.2656,639.3125 Q3597.5313,639.0469 3597.6719,638.9688 Q3597.8281,638.8906 3598.0313,638.8906 Q3598.3594,638.8906 3598.6094,639.1563 Q3598.875,639.4063 3598.875,639.75 Q3598.875,640.0938 3598.5313,640.5 Q3598.0313,641.0781 3597.2344,641.4063 Q3596.1563,641.8594 3594.8594,641.8594 Q3593.3438,641.8594 3592.1406,641.2344 Q3591.1563,640.7344 3590.4688,639.6719 Q3589.7813,638.5938 3589.7813,637.3125 L3589.7813,636.1563 Q3589.7813,634.8281 3590.3906,633.6875 Q3591.0156,632.5313 3592.1094,631.9219 Q3593.2031,631.2969 3594.4375,631.2969 Q3595.1719,631.2969 3595.8125,631.4688 Q3596.4688,631.625 3597.0156,631.9844 Z " fill="#000000"/><text fill="#000000" font-family="Segoe UI" font-size="12" lengthAdjust="spacing" textLength="63" x="3615.75" y="641.0781">LeitorMalha</text><line style="stroke:#808000;stroke-width:0.5;" x1="3494" x2="3768" y1="652.1094" y2="652.1094"/><line style="stroke:#808000;stroke-width:0.5;" x1="3494" x2="3768" y1="660.1094" y2="660.1094"/><text fill="#000000" font-family="sans-serif" font-size="15" lengthAdjust="spacing" text-decoration="underline" textLength="227" x="3500" y="680.6807">+lerArquivo(String caminho): Malha</text><text fill="#000000" font-family="sans-serif" font-size="15" lengthAdjust="spacing" text-decoration="underline" textLength="262" x="3500" y="701.5479">-identificarPontos(int[][], int, int, List, List)</text></g><!--class GerenciadorSincronizacao--><g id="elem_GerenciadorSincronizacao"><rect fill="#ADD8E6" height="48" id="GerenciadorSincronizacao" rx="7.5" ry="7.5" style="stroke:#808000;stroke-width:0.5;" width="171" x="174.5" y="1133.6094"/><ellipse cx="189.5" cy="1149.6094" fill="#ADD1B2" rx="11" ry="11" style="stroke:#181818;stroke-width:1.0;"/><path d="M192.2656,1145.4844 Q192.4219,1145.2656 192.6094,1145.1563 Q192.7969,1145.0469 193.0156,1145.0469 Q193.3906,1145.0469 193.625,1145.3125 Q193.8594,1145.5625 193.8594,1146.1719 L193.8594,1147.625 Q193.8594,1148.2344 193.625,1148.5 Q193.3906,1148.7656 193.0156,1148.7656 Q192.6719,1148.7656 192.4688,1148.5625 Q192.2656,1148.375 192.1563,1147.8594 Q192.1094,1147.5 191.9219,1147.3125 Q191.5938,1146.9375 190.9844,1146.7188 Q190.375,1146.5 189.75,1146.5 Q188.9844,1146.5 188.3438,1146.8281 Q187.7188,1147.1563 187.2188,1147.9063 Q186.7344,1148.6563 186.7344,1149.6875 L186.7344,1150.7813 Q186.7344,1152.0156 187.625,1152.8438 Q188.5156,1153.6563 190.1094,1153.6563 Q191.0469,1153.6563 191.7031,1153.4063 Q192.0938,1153.25 192.5156,1152.8125 Q192.7813,1152.5469 192.9219,1152.4688 Q193.0781,1152.3906 193.2813,1152.3906 Q193.6094,1152.3906 193.8594,1152.6563 Q194.125,1152.9063 194.125,1153.25 Q194.125,1153.5938 193.7813,1154 Q193.2813,1154.5781 192.4844,1154.9063 Q191.4063,1155.3594 190.1094,1155.3594 Q188.5938,1155.3594 187.3906,1154.7344 Q186.4063,1154.2344 185.7188,1153.1719 Q185.0313,1152.0938 185.0313,1150.8125 L185.0313,1149.6563 Q185.0313,1148.3281 185.6406,1147.1875 Q186.2656,1146.0313 187.3594,1145.4219 Q188.4531,1144.7969 189.6875,1144.7969 Q190.4219,1144.7969 191.0625,1144.9688 Q191.7188,1145.125 192.2656,1145.4844 Z " fill="#000000"/><text fill="#000000" font-family="Segoe UI" font-size="12" lengthAdjust="spacing" textLength="137" x="204.5" y="1154.5781">GerenciadorSincronizacao</text><line style="stroke:#808000;stroke-width:0.5;" x1="175.5" x2="344.5" y1="1165.6094" y2="1165.6094"/><line style="stroke:#808000;stroke-width:0.5;" x1="175.5" x2="344.5" y1="1173.6094" y2="1173.6094"/></g><!--class GerenciadorSemaforo--><g id="elem_GerenciadorSemaforo"><rect fill="#ADD8E6" height="48" id="GerenciadorSemaforo" rx="7.5" ry="7.5" style="stroke:#808000;stroke-width:0.5;" width="149" x="31.5" y="1594.6094"/><ellipse cx="46.5" cy="1610.6094" fill="#ADD1B2" rx="11" ry="11" style="stroke:#181818;stroke-width:1.0;"/><path d="M49.2656,1606.4844 Q49.4219,1606.2656 49.6094,1606.1563 Q49.7969,1606.0469 50.0156,1606.0469 Q50.3906,1606.0469 50.625,1606.3125 Q50.8594,1606.5625 50.8594,1607.1719 L50.8594,1608.625 Q50.8594,1609.2344 50.625,1609.5 Q50.3906,1609.7656 50.0156,1609.7656 Q49.6719,1609.7656 49.4688,1609.5625 Q49.2656,1609.375 49.1563,1608.8594 Q49.1094,1608.5 48.9219,1608.3125 Q48.5938,1607.9375 47.9844,1607.7188 Q47.375,1607.5 46.75,1607.5 Q45.9844,1607.5 45.3438,1607.8281 Q44.7188,1608.1563 44.2188,1608.9063 Q43.7344,1609.6563 43.7344,1610.6875 L43.7344,1611.7813 Q43.7344,1613.0156 44.625,1613.8438 Q45.5156,1614.6563 47.1094,1614.6563 Q48.0469,1614.6563 48.7031,1614.4063 Q49.0938,1614.25 49.5156,1613.8125 Q49.7813,1613.5469 49.9219,1613.4688 Q50.0781,1613.3906 50.2813,1613.3906 Q50.6094,1613.3906 50.8594,1613.6563 Q51.125,1613.9063 51.125,1614.25 Q51.125,1614.5938 50.7813,1615 Q50.2813,1615.5781 49.4844,1615.9063 Q48.4063,1616.3594 47.1094,1616.3594 Q45.5938,1616.3594 44.3906,1615.7344 Q43.4063,1615.2344 42.7188,1614.1719 Q42.0313,1613.0938 42.0313,1611.8125 L42.0313,1610.6563 Q42.0313,1609.3281 42.6406,1608.1875 Q43.2656,1607.0313 44.3594,1606.4219 Q45.4531,1605.7969 46.6875,1605.7969 Q47.4219,1605.7969 48.0625,1605.9688 Q48.7188,1606.125 49.2656,1606.4844 Z " fill="#000000"/><text fill="#000000" font-family="Segoe UI" font-size="12" lengthAdjust="spacing" textLength="115" x="61.5" y="1615.5781">GerenciadorSemaforo</text><line style="stroke:#808000;stroke-width:0.5;" x1="32.5" x2="179.5" y1="1626.6094" y2="1626.6094"/><line style="stroke:#808000;stroke-width:0.5;" x1="32.5" x2="179.5" y1="1634.6094" y2="1634.6094"/></g><!--class GerenciadorMonitor--><g id="elem_GerenciadorMonitor"><rect fill="#ADD8E6" height="48" id="GerenciadorMonitor" rx="7.5" ry="7.5" style="stroke:#808000;stroke-width:0.5;" width="141" x="260.5" y="1594.6094"/><ellipse cx="275.5" cy="1610.6094" fill="#ADD1B2" rx="11" ry="11" style="stroke:#181818;stroke-width:1.0;"/><path d="M278.2656,1606.4844 Q278.4219,1606.2656 278.6094,1606.1563 Q278.7969,1606.0469 279.0156,1606.0469 Q279.3906,1606.0469 279.625,1606.3125 Q279.8594,1606.5625 279.8594,1607.1719 L279.8594,1608.625 Q279.8594,1609.2344 279.625,1609.5 Q279.3906,1609.7656 279.0156,1609.7656 Q278.6719,1609.7656 278.4688,1609.5625 Q278.2656,1609.375 278.1563,1608.8594 Q278.1094,1608.5 277.9219,1608.3125 Q277.5938,1607.9375 276.9844,1607.7188 Q276.375,1607.5 275.75,1607.5 Q274.9844,1607.5 274.3438,1607.8281 Q273.7188,1608.1563 273.2188,1608.9063 Q272.7344,1609.6563 272.7344,1610.6875 L272.7344,1611.7813 Q272.7344,1613.0156 273.625,1613.8438 Q274.5156,1614.6563 276.1094,1614.6563 Q277.0469,1614.6563 277.7031,1614.4063 Q278.0938,1614.25 278.5156,1613.8125 Q278.7813,1613.5469 278.9219,1613.4688 Q279.0781,1613.3906 279.2813,1613.3906 Q279.6094,1613.3906 279.8594,1613.6563 Q280.125,1613.9063 280.125,1614.25 Q280.125,1614.5938 279.7813,1615 Q279.2813,1615.5781 278.4844,1615.9063 Q277.4063,1616.3594 276.1094,1616.3594 Q274.5938,1616.3594 273.3906,1615.7344 Q272.4063,1615.2344 271.7188,1614.1719 Q271.0313,1613.0938 271.0313,1611.8125 L271.0313,1610.6563 Q271.0313,1609.3281 271.6406,1608.1875 Q272.2656,1607.0313 273.3594,1606.4219 Q274.4531,1605.7969 275.6875,1605.7969 Q276.4219,1605.7969 277.0625,1605.9688 Q277.7188,1606.125 278.2656,1606.4844 Z " fill="#000000"/><text fill="#000000" font-family="Segoe UI" font-size="12" lengthAdjust="spacing" textLength="107" x="290.5" y="1615.5781">GerenciadorMonitor</text><line style="stroke:#808000;stroke-width:0.5;" x1="261.5" x2="400.5" y1="1626.6094" y2="1626.6094"/><line style="stroke:#808000;stroke-width:0.5;" x1="261.5" x2="400.5" y1="1634.6094" y2="1634.6094"/></g><g id="elem_GMN52"><path d="M1988,271.1094 L1988,355.8945 A7.5,7.5 0 0 0 1995.5,363.3945 L2174.5,363.3945 A7.5,7.5 0 0 0 2182,355.8945 L2182,273.6094 L2172,263.6094 L1995.5,263.6094 A7.5,7.5 0 0 0 1988,271.1094 " fill="#FFFACD" style="stroke:#FFA500;stroke-width:0.5;"/><path d="M2172,263.6094 L2172,269.8594 A3.75,3.75 0 0 0 2175.75,273.6094 L2182,273.6094 L2172,263.6094 " fill="#FFFACD" style="stroke:#FFA500;stroke-width:1.0;"/><text fill="#000000" font-family="Segoe UI Light" font-size="11" font-weight="bold" lengthAdjust="spacing" textLength="158.2813" x="1995" y="281.4795">Arquitetura MVC: O Controlador</text><text fill="#000000" font-family="Segoe UI Light" font-size="11" lengthAdjust="spacing" textLength="167" x="1995" y="296.1104">Componente central que atua como</text><text fill="#000000" font-family="Segoe UI Light" font-size="11" lengthAdjust="spacing" textLength="171" x="1995" y="310.7412">intermedi&#225;rio entre o Modelo (l&#243;gica)</text><text fill="#000000" font-family="Segoe UI Light" font-size="11" lengthAdjust="spacing" textLength="145" x="1995" y="325.3721">e a Vis&#227;o (interface). Ele recebe</text><text fill="#000000" font-family="Segoe UI Light" font-size="11" lengthAdjust="spacing" textLength="151" x="1995" y="340.0029">a entrada do usu&#225;rio (via Vis&#227;o) e</text><text fill="#000000" font-family="Segoe UI Light" font-size="11" lengthAdjust="spacing" textLength="82" x="1995" y="354.6338">atualiza o Modelo.</text></g><g id="elem_GMN55"><path d="M648.5,278.6094 L648.5,348.7637 A7.5,7.5 0 0 0 656,356.2637 L888,356.2637 A7.5,7.5 0 0 0 895.5,348.7637 L895.5,281.1094 L885.5,271.1094 L656,271.1094 A7.5,7.5 0 0 0 648.5,278.6094 " fill="#FFFACD" style="stroke:#FFA500;stroke-width:0.5;"/><path d="M885.5,271.1094 L885.5,277.3594 A3.75,3.75 0 0 0 889.25,281.1094 L895.5,281.1094 L885.5,271.1094 " fill="#FFFACD" style="stroke:#FFA500;stroke-width:1.0;"/><text fill="#000000" font-family="Segoe UI Light" font-size="11" font-weight="bold" lengthAdjust="spacing" textLength="124.2188" x="655.5" y="288.9795">Arquitetura MVC: A Vis&#227;o</text><text fill="#000000" font-family="Segoe UI Light" font-size="11" lengthAdjust="spacing" textLength="161" x="655.5" y="303.6104">Respons&#225;vel pela apresenta&#231;&#227;o dos</text><text fill="#000000" font-family="Segoe UI Light" font-size="11" lengthAdjust="spacing" textLength="168" x="655.5" y="318.2412">dados ao usu&#225;rio. Renderiza a malha,</text><text fill="#000000" font-family="Segoe UI Light" font-size="11" lengthAdjust="spacing" textLength="175" x="655.5" y="332.8721">os ve&#237;culos e os controles da interface.</text><text fill="#000000" font-family="Segoe UI Light" font-size="11" lengthAdjust="spacing" textLength="224" x="655.5" y="347.5029">Notifica o Controlador sobre as a&#231;&#245;es do usu&#225;rio.</text></g><g id="elem_GMN58"><path d="M3849,630.1094 L3849,700.2637 A7.5,7.5 0 0 0 3856.5,707.7637 L4055.5,707.7637 A7.5,7.5 0 0 0 4063,700.2637 L4063,632.6094 L4053,622.6094 L3856.5,622.6094 A7.5,7.5 0 0 0 3849,630.1094 " fill="#FFFACD" style="stroke:#FFA500;stroke-width:0.5;"/><path d="M4053,622.6094 L4053,628.8594 A3.75,3.75 0 0 0 4056.75,632.6094 L4063,632.6094 L4053,622.6094 " fill="#FFFACD" style="stroke:#FFA500;stroke-width:1.0;"/><text fill="#000000" font-family="Segoe UI Light" font-size="11" font-weight="bold" lengthAdjust="spacing" textLength="136.5625" x="3856" y="640.4795">Arquitetura MVC: O Modelo</text><text fill="#000000" font-family="Segoe UI Light" font-size="11" lengthAdjust="spacing" textLength="181" x="3856" y="655.1104">Cont&#233;m os dados e a l&#243;gica de neg&#243;cio</text><text fill="#000000" font-family="Segoe UI Light" font-size="11" lengthAdjust="spacing" textLength="154" x="3856" y="669.7412">da aplica&#231;&#227;o. Representa o estado</text><text fill="#000000" font-family="Segoe UI Light" font-size="11" lengthAdjust="spacing" textLength="191" x="3856" y="684.3721">da simula&#231;&#227;o (malha, posi&#231;&#227;o dos ve&#237;culos)</text><text fill="#000000" font-family="Segoe UI Light" font-size="11" lengthAdjust="spacing" textLength="189" x="3856" y="699.0029">e n&#227;o tem conhecimento direto da Vis&#227;o.</text></g><g id="elem_GMN61"><path d="M482,1569.1094 L482,1668.5254 A7.5,7.5 0 0 0 489.5,1676.0254 L708.5,1676.0254 A7.5,7.5 0 0 0 716,1668.5254 L716,1571.6094 L706,1561.6094 L489.5,1561.6094 A7.5,7.5 0 0 0 482,1569.1094 " fill="#FFFACD" style="stroke:#FFA500;stroke-width:0.5;"/><path d="M706,1561.6094 L706,1567.8594 A3.75,3.75 0 0 0 709.75,1571.6094 L716,1571.6094 L706,1561.6094 " fill="#FFFACD" style="stroke:#FFA500;stroke-width:1.0;"/><text fill="#000000" font-family="Segoe UI Light" font-size="11" font-weight="bold" lengthAdjust="spacing" textLength="133.25" x="489" y="1579.4795">Padr&#227;o de Projeto: Strategy</text><text fill="#000000" font-family="Segoe UI Light" font-size="11" lengthAdjust="spacing" textLength="178" x="489" y="1594.1104">A interface `GerenciadorSincronizacao`</text><text fill="#000000" font-family="Segoe UI Light" font-size="11" lengthAdjust="spacing" textLength="148" x="489" y="1608.7412">define uma fam&#237;lia de algoritmos</text><text fill="#000000" font-family="Segoe UI Light" font-size="11" lengthAdjust="spacing" textLength="211" x="489" y="1623.3721">(Sem&#225;foro e Monitor). O `SimuladorController`</text><text fill="#000000" font-family="Segoe UI Light" font-size="11" lengthAdjust="spacing" textLength="190" x="489" y="1638.0029">(contexto) pode selecionar qual algoritmo</text><text fill="#000000" font-family="Segoe UI Light" font-size="11" lengthAdjust="spacing" textLength="197" x="489" y="1652.6338">utilizar em tempo de execu&#231;&#227;o, permitindo</text><text fill="#000000" font-family="Segoe UI Light" font-size="11" lengthAdjust="spacing" textLength="190" x="489" y="1667.2646">alternar o mecanismo de exclus&#227;o m&#250;tua.</text></g><!--reverse link Runnable to SimuladorController--><g id="link_Runnable_SimuladorController"><path d="M1699,355.7694 C1699,383.2194 1699,412.8194 1699,463.3394 " fill="none" id="Runnable-backto-SimuladorController" style="stroke:#808000;stroke-width:1.0;stroke-dasharray:7.0,7.0;"/><polygon fill="none" points="1699,337.7694,1693,355.7694,1705,355.7694,1699,337.7694" style="stroke:#808000;stroke-width:1.0;"/></g><!--reverse link JFrame to JanelaPrincipal--><g id="link_JFrame_JanelaPrincipal"><path d="M1280,707.1994 C1280,777.6894 1280,967.7294 1280,1081.3794 " fill="none" id="JFrame-backto-JanelaPrincipal" style="stroke:#808000;stroke-width:1.0;"/><polygon fill="none" points="1280,689.1994,1274,707.1994,1286,707.1994,1280,689.1994" style="stroke:#808000;stroke-width:1.0;"/></g><!--reverse link JPanel to PainelMalha--><g id="link_JPanel_PainelMalha"><path d="M1034.8,1157.6094 C1082.09,1157.6094 1144.25,1157.6094 1144.25,1157.6094 C1144.25,1157.6094 1144.25,1363.8994 1144.25,1500.4894 " fill="none" id="JPanel-backto-PainelMalha" style="stroke:#808000;stroke-width:1.0;"/><polygon fill="none" points="1016.8,1157.6094,1034.8,1163.6094,1034.8,1151.6094,1016.8,1157.6094" style="stroke:#808000;stroke-width:1.0;"/></g><!--reverse link JPanel to PainelControle--><g id="link_JPanel_PainelControle"><path d="M983,1199.7494 C983,1249.2594 983,1348.1094 983,1448.5094 " fill="none" id="JPanel-backto-PainelControle" style="stroke:#808000;stroke-width:1.0;"/><polygon fill="none" points="983,1181.7494,977,1199.7494,989,1199.7494,983,1181.7494" style="stroke:#808000;stroke-width:1.0;"/></g><!--reverse link Thread to Veiculo--><g id="link_Thread_Veiculo"><path d="M2201,707.1994 C2201,757.5994 2201,860.3394 2201,966.6094 " fill="none" id="Thread-backto-Veiculo" style="stroke:#808000;stroke-width:1.0;"/><polygon fill="none" points="2201,689.1994,2195,707.1994,2207,707.1994,2201,689.1994" style="stroke:#808000;stroke-width:1.0;"/></g><!--reverse link GerenciadorSincronizacao to GerenciadorSemaforo--><g id="link_GerenciadorSincronizacao_GerenciadorSemaforo"><path d="M3018.25,748.7594 C3018.25,836.3694 3018.25,973.6894 3018.25,1070.8594 " fill="none" id="GerenciadorSincronizacao-backto-GerenciadorSemaforo" style="stroke:#808000;stroke-width:1.0;stroke-dasharray:7.0,7.0;"/><polygon fill="none" points="3018.25,730.7594,3012.25,748.7594,3024.25,748.7594,3018.25,730.7594" style="stroke:#808000;stroke-width:1.0;"/></g><!--reverse link GerenciadorSincronizacao to GerenciadorMonitor--><g id="link_GerenciadorSincronizacao_GerenciadorMonitor"><path d="M2792.25,748.7594 C2792.25,839.6394 2792.25,985.3994 2792.25,1081.5094 " fill="none" id="GerenciadorSincronizacao-backto-GerenciadorMonitor" style="stroke:#808000;stroke-width:1.0;stroke-dasharray:7.0,7.0;"/><polygon fill="none" points="2792.25,730.7594,2786.25,748.7594,2798.25,748.7594,2792.25,730.7594" style="stroke:#808000;stroke-width:1.0;"/></g><!--link Main to Controller--><g id="link_Main_Controller"><path codeLine="202" d="M1908,187.7058 C1908,188.3404 1908,188.9775 1908,189.617 C1908,199.8481 1908,210.6725 1908,221.4944 C1908,226.9053 1908,232.3156 1908,237.6508 C1908,238.9846 1908,240.3138 1908,241.637 C1908,241.8024 1908,235.9677 1908,236.133 " fill="none" id="Main-to-Controller" style="stroke:#808000;stroke-width:1.0;"/><polygon fill="#808000" points="1908,242.133,1912,233.133,1908,237.133,1904,233.133,1908,242.133" style="stroke:#808000;stroke-width:1.0;"/><text fill="#000000" font-family="sans-serif" font-size="13" lengthAdjust="spacing" textLength="30" x="1876" y="216.8745">Inicia</text></g><!--reverse link View to Controller--><g id="link_View_Controller"><path codeLine="203" d="M784.5,587.8247 C784.5,574.0552 784.5,562.7969 784.5,548.1094 C784.5,489.3594 784.5,430.6094 784.5,430.6094 C784.5,430.6094 1062.25,430.6094 1340,430.6094 C1374.7188,430.6094 1409.4375,430.6094 1443.6138,430.6094 C1452.1578,430.6094 1460.668,430.6094 1469.1358,430.6094 C1473.3697,430.6094 1477.593,430.6094 1481.8046,430.6094 C1483.9104,430.6094 1486.0133,430.6094 1488.1132,430.6094 " fill="none" id="View-backto-Controller" style="stroke:#808000;stroke-width:1.0;"/><polygon fill="#808000" points="784.5,593.8247,788.5,584.8247,784.5,588.8247,780.5,584.8247,784.5,593.8247" style="stroke:#808000;stroke-width:1.0;"/><text fill="#000000" font-family="sans-serif" font-size="13" lengthAdjust="spacing" textLength="172" x="1106.5" y="426.1045">Gerencia e recebe eventos da</text></g><!--link Controller to Model--><g id="link_Controller_Model"><path codeLine="204" d="M1916.0302,665.6094 C1916.1072,665.6094 1916.1846,665.6094 1916.2623,665.6094 C1921.2403,665.6094 1927.9119,665.6094 1934.6863,665.6094 C1941.4606,665.6094 1948.3378,665.6094 1953.727,665.6094 C1954.4007,665.6094 1955.0511,665.6094 1955.6751,665.6094 C1955.7531,665.6094 1949.8307,665.6094 1949.9079,665.6094 " fill="none" id="Controller-to-Model" style="stroke:#808000;stroke-width:1.0;"/><polygon fill="#808000" points="1955.9079,665.6094,1946.9079,661.6094,1950.9079,665.6094,1946.9079,669.6094,1955.9079,665.6094" style="stroke:#808000;stroke-width:1.0;"/><text fill="#000000" font-family="sans-serif" font-size="13" lengthAdjust="spacing" textLength="63" x="1910" y="513.3145">Manipula o</text></g><!--link Controller to Util--><g id="link_Controller_Util"><path codeLine="207" d="M1917.7469,397.6094 C1930.9325,397.6094 1945.1926,397.6094 1960.4293,397.6094 C1990.9028,397.6094 2025.2832,397.6094 2062.7891,397.6094 C2212.8125,397.6094 2412.8438,397.6094 2612.875,397.6094 C3012.9375,397.6094 3413,397.6094 3413,397.6094 C3413,397.6094 3413,461.3869 3413,526.6594 C3413,534.8184 3413,543.0009 3413,551.085 C3413,555.1271 3413,559.1446 3413,563.1223 C3413,565.1111 3413,567.0901 3413,569.0571 C3413,570.0407 3413,565.0212 3413,565.9986 " fill="none" id="Controller-to-Util" style="stroke:#808000;stroke-width:1.0;stroke-dasharray:7.0,7.0;"/><polygon fill="#808000" points="3413,571.9986,3417,562.9986,3413,566.9986,3409,562.9986,3413,571.9986" style="stroke:#808000;stroke-width:1.0;"/><text fill="#000000" font-family="sans-serif" font-size="13" lengthAdjust="spacing" textLength="23" x="2632.09" y="393.1045">Usa</text></g><!--link Util to Malha--><g id="link_Util_Malha"><path codeLine="208" d="M3413,735.3205 C3413,743.4796 3413,752.2461 3413,761.5636 C3413,780.1986 3413,801.038 3413,823.6323 C3413,914.0097 3413,1032.4663 3413,1150.2406 C3413,1385.7894 3413,1618.6094 3413,1618.6094 C3413,1618.6094 2671.59,1618.6094 2337.31,1618.6094 " fill="none" id="Util-to-Malha" style="stroke:#808000;stroke-width:1.0;stroke-dasharray:7.0,7.0;"/><polygon fill="#808000" points="2331.31,1618.6094,2340.31,1622.6094,2336.31,1618.6094,2340.31,1614.6094,2331.31,1618.6094" style="stroke:#808000;stroke-width:1.0;"/><text fill="#000000" font-family="sans-serif" font-size="13" lengthAdjust="spacing" textLength="23" x="3323.71" y="1614.1045">Cria</text></g><!--link SimuladorController to JanelaPrincipal--><g id="link_SimuladorController_JanelaPrincipal"><path codeLine="211" d="M1501.9,807.6094 C1422.88,807.6094 1360.5,807.6094 1360.5,807.6094 C1360.5,807.6094 1360.5,972.2494 1360.5,1075.2294 " fill="none" id="SimuladorController-JanelaPrincipal" style="stroke:#808000;stroke-width:1.0;"/><polygon fill="none" points="1513.9,807.6094,1507.9,803.6094,1501.9,807.6094,1507.9,811.6094,1513.9,807.6094" style="stroke:#808000;stroke-width:1.0;"/><polygon fill="#808000" points="1360.5,1081.2294,1364.5,1072.2294,1360.5,1076.2294,1356.5,1072.2294,1360.5,1081.2294" style="stroke:#808000;stroke-width:1.0;"/><text fill="#000000" font-family="sans-serif" font-size="13" lengthAdjust="spacing" textLength="98" x="1260.5" y="863.2145">Cria e gerencia a</text></g><!--link SimuladorController to Veiculo--><g id="link_SimuladorController_Veiculo"><path codeLine="212" d="M1896,798.6094 C1991.71,798.6094 2076.75,798.6094 2076.75,798.6094 C2076.75,798.6094 2076.75,874.8094 2076.75,960.5494 " fill="none" id="SimuladorController-Veiculo" style="stroke:#808000;stroke-width:1.0;"/><polygon fill="none" points="1884,798.6094,1890,802.6094,1896,798.6094,1890,794.6094,1884,798.6094" style="stroke:#808000;stroke-width:1.0;"/><polygon fill="#808000" points="2076.75,966.5494,2080.75,957.5494,2076.75,961.5494,2072.75,957.5494,2076.75,966.5494" style="stroke:#808000;stroke-width:1.0;"/><text fill="#000000" font-family="sans-serif" font-size="13" lengthAdjust="spacing" textLength="87" x="1975.34" y="794.1045">Cria e gerencia</text><text fill="#000000" font-family="sans-serif" font-size="13" lengthAdjust="spacing" textLength="7" x="1892.9945" y="800.3697">1</text><text fill="#000000" font-family="sans-serif" font-size="13" lengthAdjust="spacing" textLength="5" x="2065.3605" y="954.6145">*</text></g><!--link SimuladorController to Malha--><g id="link_SimuladorController_Malha"><path codeLine="213" d="M1699,878.6094 C1699,1121.5494 1699,1485.6094 1699,1485.6094 C1699,1485.6094 1870.99,1485.6094 2008.84,1485.6094 " fill="none" id="SimuladorController-Malha" style="stroke:#808000;stroke-width:1.0;"/><polygon fill="none" points="1699,866.6094,1695,872.6094,1699,878.6094,1703,872.6094,1699,866.6094" style="stroke:#808000;stroke-width:1.0;"/><polygon fill="#808000" points="2014.84,1485.6094,2005.84,1481.6094,2009.84,1485.6094,2005.84,1489.6094,2014.84,1485.6094" style="stroke:#808000;stroke-width:1.0;"/><text fill="#000000" font-family="sans-serif" font-size="13" lengthAdjust="spacing" textLength="105" x="1592" y="1329.5245">Carrega e utiliza a</text><text fill="#000000" font-family="sans-serif" font-size="13" lengthAdjust="spacing" textLength="7" x="1690.8383" y="888.6803">1</text><text fill="#000000" font-family="sans-serif" font-size="13" lengthAdjust="spacing" textLength="7" x="1998.9612" y="1475.225">1</text></g><!--link SimuladorController to GerenciadorSincronizacao--><g id="link_SimuladorController_GerenciadorSincronizacao"><path codeLine="214" d="M1501.82,748.6094 C1113.17,748.6094 260,748.6094 260,748.6094 C260,748.6094 260,1039.8794 260,1127.5494 " fill="none" id="SimuladorController-GerenciadorSincronizacao" style="stroke:#808000;stroke-width:1.0;"/><polygon fill="none" points="1513.82,748.6094,1507.82,744.6094,1501.82,748.6094,1507.82,752.6094,1513.82,748.6094" style="stroke:#808000;stroke-width:1.0;"/><polygon fill="#808000" points="260,1133.5494,264,1124.5494,260,1128.5494,256,1124.5494,260,1133.5494" style="stroke:#808000;stroke-width:1.0;"/><text fill="#000000" font-family="sans-serif" font-size="13" lengthAdjust="spacing" textLength="113" x="579.44" y="744.1045">Usa a estrat&#233;gia de</text></g><!--reverse link JanelaPrincipal to PainelMalha--><g id="link_JanelaPrincipal_PainelMalha"><path codeLine="217" d="M1280,1245.7294 C1280,1318.2394 1280,1416.4494 1280,1500.3794 " fill="none" id="JanelaPrincipal-backto-PainelMalha" style="stroke:#808000;stroke-width:1.0;"/><polygon fill="#808000" points="1280,1233.7294,1276,1239.7294,1280,1245.7294,1284,1239.7294,1280,1233.7294" style="stroke:#808000;stroke-width:1.0;"/><text fill="#000000" font-family="sans-serif" font-size="13" lengthAdjust="spacing" textLength="45" x="1233" y="1362.5545">Cont&#233;m</text><text fill="#000000" font-family="sans-serif" font-size="13" lengthAdjust="spacing" textLength="7" x="1271.5711" y="1256.3382">1</text><text fill="#000000" font-family="sans-serif" font-size="13" lengthAdjust="spacing" textLength="7" x="1271.7117" y="1488.7413">1</text></g><!--reverse link JanelaPrincipal to PainelControle--><g id="link_JanelaPrincipal_PainelControle"><path codeLine="218" d="M1142.4,1207.6094 C1082.31,1207.6094 1035.25,1207.6094 1035.25,1207.6094 C1035.25,1207.6094 1035.25,1335.4094 1035.25,1448.4694 " fill="none" id="JanelaPrincipal-backto-PainelControle" style="stroke:#808000;stroke-width:1.0;"/><polygon fill="#808000" points="1154.4,1207.6094,1148.4,1203.6094,1142.4,1207.6094,1148.4,1211.6094,1154.4,1207.6094" style="stroke:#808000;stroke-width:1.0;"/><text fill="#000000" font-family="sans-serif" font-size="13" lengthAdjust="spacing" textLength="45" x="988.25" y="1263.9645">Cont&#233;m</text><text fill="#000000" font-family="sans-serif" font-size="13" lengthAdjust="spacing" textLength="7" x="1138.472" y="1206.6034">1</text><text fill="#000000" font-family="sans-serif" font-size="13" lengthAdjust="spacing" textLength="7" x="1032.0418" y="1436.852">1</text></g><!--link Veiculo to Malha--><g id="link_Veiculo_Malha"><path codeLine="221" d="M2173,1360.7794 C2173,1400.9994 2173,1424.8794 2173,1463.2994 " fill="none" id="Veiculo-Malha" style="stroke:#808000;stroke-width:1.0;"/><polygon fill="none" points="2173,1348.7794,2169,1354.7794,2173,1360.7794,2177,1354.7794,2173,1348.7794" style="stroke:#808000;stroke-width:1.0;"/><polygon fill="#808000" points="2173,1469.2994,2177,1460.2994,2173,1464.2994,2169,1460.2994,2173,1469.2994" style="stroke:#808000;stroke-width:1.0;"/><text fill="#000000" font-family="sans-serif" font-size="13" lengthAdjust="spacing" textLength="118" x="2053" y="1404.5345">Existe e se move na</text></g><!--link Veiculo to PainelMalha--><g id="link_Veiculo_PainelMalha"><path codeLine="222" d="M1987.98,1310.6094 C1755.44,1310.6094 1415.75,1310.6094 1415.75,1310.6094 C1415.75,1310.6094 1415.75,1407.5494 1415.75,1494.4094 " fill="none" id="Veiculo-to-PainelMalha" style="stroke:#808000;stroke-width:1.0;stroke-dasharray:7.0,7.0;"/><polygon fill="#808000" points="1415.75,1500.4094,1419.75,1491.4094,1415.75,1495.4094,1411.75,1491.4094,1415.75,1500.4094" style="stroke:#808000;stroke-width:1.0;"/><text fill="#000000" font-family="sans-serif" font-size="13" lengthAdjust="spacing" textLength="97" x="1507.97" y="1306.1045">Solicita repintura</text></g><!--link Veiculo to GerenciadorSincronizacao--><g id="link_Veiculo_GerenciadorSincronizacao"><path codeLine="223" d="M1975.65,1272.6094 C1482.44,1272.6094 317.17,1272.6094 317.17,1272.6094 C317.17,1272.6094 317.17,1221.4394 317.17,1187.7194 " fill="none" id="Veiculo-GerenciadorSincronizacao" style="stroke:#808000;stroke-width:1.0;"/><polygon fill="none" points="1987.65,1272.6094,1981.65,1268.6094,1975.65,1272.6094,1981.65,1276.6094,1987.65,1272.6094" style="stroke:#808000;stroke-width:1.0;"/><polygon fill="#808000" points="317.17,1181.7194,313.17,1190.7194,317.17,1186.7194,321.17,1190.7194,317.17,1181.7194" style="stroke:#808000;stroke-width:1.0;"/><polygon fill="#000000" points="981.9665,1282.5296,990.8496,1285.927,991.15,1280.0569,981.9665,1282.5296" style="stroke:#000000;stroke-width:1.0;"/><text fill="#000000" font-family="sans-serif" font-size="13" lengthAdjust="spacing" textLength="108" x="996.96" y="1288.1045">&#201; sincronizado por</text></g><!--reverse link GerenciadorSincronizacao to GerenciadorSemaforo--><g id="link_GerenciadorSincronizacao_GerenciadorSemaforo"><path codeLine="226" d="M220.5,1199.7494 C220.5,1294.5994 220.5,1618.6094 220.5,1618.6094 C220.5,1618.6094 202.5,1618.6094 180.77,1618.6094 " fill="none" id="GerenciadorSincronizacao-backto-GerenciadorSemaforo-1" style="stroke:#808000;stroke-width:1.0;stroke-dasharray:7.0,7.0;"/><polygon fill="none" points="220.5,1181.7494,214.5,1199.7494,226.5,1199.7494,220.5,1181.7494" style="stroke:#808000;stroke-width:1.0;"/></g><!--reverse link GerenciadorSincronizacao to GerenciadorMonitor--><g id="link_GerenciadorSincronizacao_GerenciadorMonitor"><path codeLine="227" d="M288.83,1199.7494 C288.83,1279.3194 288.83,1514.8094 288.83,1594.4394 " fill="none" id="GerenciadorSincronizacao-backto-GerenciadorMonitor-1" style="stroke:#808000;stroke-width:1.0;stroke-dasharray:7.0,7.0;"/><polygon fill="none" points="288.83,1181.7494,282.83,1199.7494,294.83,1199.7494,288.83,1181.7494" style="stroke:#808000;stroke-width:1.0;"/></g><!--link GerenciadorSemaforo to Malha--><g id="link_GerenciadorSemaforo_Malha"><path codeLine="228" d="M106,1642.7994 C106,1693.5794 106,1806.6094 106,1806.6094 C106,1806.6094 2173,1806.6094 2173,1806.6094 C2173,1806.6094 2173,1796.4694 2173,1773.6594 " fill="none" id="GerenciadorSemaforo-to-Malha" style="stroke:#808000;stroke-width:1.0;"/><polygon fill="#808000" points="2173,1767.6594,2169,1776.6594,2173,1772.6594,2177,1776.6594,2173,1767.6594" style="stroke:#808000;stroke-width:1.0;"/><text fill="#000000" font-family="sans-serif" font-size="13" lengthAdjust="spacing" textLength="126" x="949.07" y="1822.1045">Acessa sem&#225;foros da</text></g><!--link Controller to GMN52--><g id="link_Controller_GMN52"><path d="M1916.0004,313.6094 C1916.0679,313.6094 1916.1358,313.6094 1916.204,313.6094 C1916.3404,313.6094 1916.4784,313.6094 1916.6179,313.6094 C1916.8969,313.6094 1917.1819,313.6094 1917.4728,313.6094 C1922.1275,313.6094 1928.2963,313.6094 1935.52,313.6094 C1949.9675,313.6094 1968.635,313.6094 1987.85,313.6094 " fill="none" id="Controller-GMN52" style="stroke:#808000;stroke-width:1.0;stroke-dasharray:7.0,7.0;"/></g><!--link GMN55 to View--><g id="link_GMN55_View"><path d="M772,356.3594 C772,401.7344 772,475.5919 772,539.6931 C772,555.7184 772,571.134 772,585.3423 C772,587.1183 772,588.8755 772,590.6126 C772,591.4812 772,592.3448 772,593.2032 " fill="none" id="GMN55-View" style="stroke:#808000;stroke-width:1.0;stroke-dasharray:7.0,7.0;"/></g><!--link Model to GMN58--><g id="link_Model_GMN58"><path d="M3369.1083,531.6094 C3383.4398,531.6094 3397.6345,531.6094 3411.6772,531.6094 C3439.7627,531.6094 3467.2402,531.6094 3493.9883,531.6094 C3547.4844,531.6094 3598.0625,531.6094 3644.75,531.6094 C3831.5,531.6094 3956,531.6094 3956,531.6094 C3956,531.6094 3956,583.4294 3956,622.4994 " fill="none" id="Model-GMN58" style="stroke:#808000;stroke-width:1.0;stroke-dasharray:7.0,7.0;"/></g><!--link Sincronizacao to GMN61--><g id="link_Sincronizacao_GMN61"><path d="M434.0407,1578.6094 C434.5049,1578.6094 434.9869,1578.6094 435.4864,1578.6094 C437.4841,1578.6094 439.7597,1578.6094 442.2763,1578.6094 C452.3425,1578.6094 466.265,1578.6094 481.69,1578.6094 " fill="none" id="Sincronizacao-GMN61" style="stroke:#808000;stroke-width:1.0;stroke-dasharray:7.0,7.0;"/></g><!--SRC=[tHdBRjj8ygwlQ6WEeVpGneDPO64C0lWPU137NYln9GYG5jcIEo7PJ7TJiPFr1-nd67jOp08v3VQoL_tOLbKtoIP5-R4pfzL14hiUNU-gRZvZRvRVRPagbYXsAFbSyumFhBIfg1zP8jX1oeqHXXqAozCh3iZRR2ApCeM_6X7UwENTJCpLOF2CRMzlimELp-Iyr7pvp-M_WH1GzWgkb__AOyaP_EFiT7btBO4zyDRYAqUoWVaaSmHcxDk0mUSPEp9MWdXpeNbAImMFF_6vcDWRa56BsF9ydWe2nIZbdhLQJaihJcALJ-HNmPvxLgdCXRqf12jKUeCFMysIqlPARJ5Ju8fnZy-8het2QCsW2Rx8VCvcF3LYu3VOApEHMp2OvY1rpF49w9Wm1TY17fNJNIoavPfzBddwkHIQ6JNLeb16Whd-eOZTQvK88mhs5oV-1Sy_uUFEy-VrTecCfSh1d5g8FBwIReEeu4a2iet0wBdLw5g3LbCM51FEIC8GZtE7oNOgbiTAWw2i1BTaNCz5nhW28tidnppXdlvF8XLkEvadSY6JqhldeEM3OvNR0vK2-G_FwRC6X_oqysUdgIhpv43f7Em2Iwque42ALLQe76rhd3LdoxjOfaoYld86Xc-iIDBwOCBFFaJFNBiTKAnNSdvbzzDIr1XxMgil3dYMoaK3s5Sw4ReFWXgy1lUo2MI0O6zFMX2dsu-qTalV4aJNCnwBXmIRVBfP9zk5kk5f2nZAjmfzgemYBxC7nUDffl9U0Owb5ljQnfy2bZvp0wwF4UgdNlulDRy9MESGtFT9Aq3EWoivcwqHzqn35Rd7M4xV7kbsl12tLU4xfqJ3C3rNc1xmvmYo43CdEkKo7r6Tgqmnx28D6JSCyKWR5xrDeNKQRh9lnd8eCBUGf3AF9f18-VpTUmOPQqQ3Fd6W74CbS4nQ-tj0AlI8jcwU-mG8e38hN0KmxABCSpvDAmTiiuyy5odVPR_Gxpb85yl2ruTj20EegAbd9NP1nF2vXNIApQR2e0SFpXmWN5e86KCZCxlWAsD_ldIFBppKNcd1avT22sn0e0fGlw4rZs18nvYhFIiN09mg48RdbJXGZ4zo8xJKb_K-RPHvmti22ckLow_8RvUzN0FnpkonRZJoJ6KE9PxhbszFwgMOQotcN9FkqQWh1ZGzx8dwQ87LsNGvJIerQm289hJccjJh0tH9DfakywW_pYwbWShBeaifldGYlGMYMCD_GPHreeM9Qolo1DQFDQRYjyT5nYEYQxExLQtONDY08ngtkq60K_5iq89TRWUrNW6BHgTpbA3MwOdXlCbQKler8wnRS5iHpm1MnMtKubVlup1_8Fj1o_OTDe8wMrp9sB1v5HOubUHNLVnLy1yFjx2jDLzTT2fqvl7ujRZtKgoOkNB1EalRQ_jNcpGv_CiRG3oM8aqQX1DipmkUgXwmdav4ncTA8_229rBjbzQgl0QVGdPRfNkXKvkVk3G4S1TorCd3Ur3gZ6pZRB9kO3OX6oYDyUfQHWEkLLu1IbCfF86HZ-RDH7NB3l7OhxL3S5im1pvQAJNtumML9qHSBJkdK9xXa13HRwVkj66kl-9V7n8kU5pAD0C4b7CjarqCitVltxqFrWkAuqFX-xLFptC5c2zwq2PShaVANAm8SyXFgmfGEBGjTZRz28KyH3VU4RtewANY2fWr59jEhSWhiKLILDz0Ib-Z01sitzq3BGzORQHN4ZAKuWXOjq4mJfNv6jWbn9UEwlJjmJXl6nUveBJzI6JQ5ihj872f3_Uw4BXkt_9nFKP1qxJOWK-Ijb3GDbTMy9H6gKU63m0B2BCOH4f4bsIbl8UjQhN7_AvveXeICl2Hke1Y2ccTgFu8tAoC5FaW8XcsGe6srkuM1aur43I1lH3w78vcZZ4SK1KUzS-TwK9C3evU26EuFj3bLtT4heZGppuIGf8YXOh-4GYSZjYhKb5HZTRbMinJq1JwK4kKOua_rC7LIZIU90X8bQ-5GG0IRPiAOgzro1asngBJA1MUbW63K6mEXEki7I3x8m2V6Z1DR6-PnKi7lPTyBYNCfvNrEYMwbpALKm5rjYPvx1xUz55WwYhadh3jVLngOf_JJLw75lB5AZoCFDA0GJLzg8mwyNksNHsq6lGd-kG1H_n-w_zH9lVZpVzaSQgSIfYpk2mWfy7m4x6IgVyFvbjx9V3MobJQvPsMohIdb112fG8NWiFHAu5c3yUKu1O0Jenx6fHRA7yN4EWJdYbgWkQch9hBwncX6R6RQQ5prhk0inCDWbIjyKwHAcAzmg9N_4QLDhXrS3CPq7j8KHszTjrbn_QByEO1dkXi61qPl1s5yi_yZCUYGwd1591lZYvHN_8syIuRkZ5qE0XPfc9cAxw0KWKjepjaCOK3WpimiwH3gF7c1oZT_a1wodDPG2jXQeWQdOMRbmQMMywY2qgPW-LnEysuzqX0D1w_SEu6vcyDR4yFk4fxZXqZ01ver0hsTDVmUAqEaOBkg6xPLI3CeE_QHcrx8uoxnstF7mnIJHuCDklZCTmPEZx3ZQ4NiHgsLfayn69dkAAbk-007YKcnTUrSX23LiaPhwr5phHWVO5Do2v_dKjyiK7M30n8ZHZcLp2i3q4w2ljx-T6WrtAemmRa1VuIGdZYttLtRCjVi-6JgEk3RCYWBInucqmtQFk0pDAnwT4rf374E7Gz6ivO3ZPjas6yzKa_KIbaa-MG9mMOfzGhb4_qm_BlpDHhe4C1xUH5ZsxdFD5uOpH1Xudv3Oiw8zLeyCXDV_xRU7oFWBwT_p7SV8CSFBWTwt7JNeoZC8ucopkQJQWQ-RBxMba8pAFh0lp1yPBIjH2w-gOYnTGiJ7_6DZQeBLY1NcEdbmUxJRL2KJOs0Ac-wn4inlT5499GT64mBpc-QS5J1ML59X99_OaX5hxMgaxMwVAtEOY4NGBewZl0UgWTZTbHMjLPGEB40M_4mSkbAHtNQ24hMYZtY0OIKFfNEuq7S92Zg_w1qzgg0dN6gEtNTiyp94NXC0IAckKT7DHO0Q76UA7njicwSCBtP8061pYmEsya6mDbdWXDbSXDUrk01qWBiVnELogWDtp5FcMfUjJQZmVuBizrMwPQD_7qrW-RVH3rzQvTPMiNkvnVurrdAUzOgXgCeYWX8Jdpli9X91VpvM_GjKbdi4LQlJX3XIlBqDjBF1ixB7TBximLELEmkZpIYyRQ9YuSSbot8aFZN8dOlw9Ce8dZJ-Nm5MMdobgLCLItUyJTsAWA0xvZqUeZSDgjYmHflXSSg3wio-CFg96OGQsZrvqpdYs_fzGK64_dIakRKJn4aoeRQGYXx8Q8FcCVUdeICeqm3iIrXJ36rmQGpVxUpBtlRRW3hkzmce65m4e5AIMkHLoIHS6ua7ZIofmSm5FgJj3vM2PY64DCvWdYjAIaovR_WQnfpFbV]--></g></svg>