<?xml version="1.0" encoding="us-ascii" standalone="no"?><svg xmlns="http://www.w3.org/2000/svg" xmlns:xlink="http://www.w3.org/1999/xlink" contentStyleType="text/css" height="1974px" preserveAspectRatio="none" style="width:3204px;height:1974px;background:#FFFFFF;" version="1.1" viewBox="0 0 3204 1974" width="3204px" zoomAndPan="magnify"><defs/><g><text fill="#000000" font-family="sans-serif" font-size="14" font-weight="bold" lengthAdjust="spacing" textLength="384" x="1403.25" y="25.5332">Diagrama de Classes Detalhado - Simulador de Tr&#225;fego</text><!--cluster Main--><g id="cluster_Main"><rect fill="none" height="140" rx="7.5" ry="7.5" style="stroke:#808080;stroke-width:1.5;" width="256" x="1345.5" y="47.6094"/><text fill="#000000" font-family="Segoe UI" font-size="14" font-weight="bold" lengthAdjust="spacing" textLength="116" x="1415.5" y="65.7168">Ponto de Entrada</text></g><!--cluster Controller--><g id="cluster_Controller"><rect fill="none" height="590.5" rx="7.5" ry="7.5" style="stroke:#808080;stroke-width:1.5;" width="426" x="847.5" y="227.6094"/><text fill="#000000" font-family="Segoe UI" font-size="14" font-weight="bold" lengthAdjust="spacing" textLength="73" x="1024" y="245.7168">Controller)</text></g><!--cluster View--><g id="cluster_View"><rect fill="none" height="1118.5" rx="7.5" ry="7.5" style="stroke:#808080;stroke-width:1.5;" width="686" x="121.5" y="521.6094"/><text fill="#000000" font-family="Segoe UI" font-size="14" font-weight="bold" lengthAdjust="spacing" textLength="82" x="423.5" y="539.7168">Vis&#227;o (View)</text></g><!--cluster Model--><g id="cluster_Model"><rect fill="none" height="1446.5" rx="7.5" ry="7.5" style="stroke:#808080;stroke-width:1.5;" width="1449" x="1313.5" y="521.6094"/><text fill="#000000" font-family="Segoe UI" font-size="14" font-weight="bold" lengthAdjust="spacing" textLength="109" x="1983.5" y="539.7168">Modelo (Model)</text></g><!--cluster Sincronizacao--><g id="cluster_Sincronizacao"><rect fill="none" height="634" rx="7.5" ry="7.5" style="stroke:#808080;stroke-width:1.5;" width="879" x="1843.5" y="922.6094"/><text fill="#000000" font-family="Segoe UI" font-size="14" font-weight="bold" lengthAdjust="spacing" textLength="93" x="2236.5" y="940.7168">Sincroniza&#231;&#227;o</text></g><!--cluster Util--><g id="cluster_Util"><rect fill="none" height="161" rx="7.5" ry="7.5" style="stroke:#808080;stroke-width:1.5;" width="388" x="2810.5" y="1354.1094"/><text fill="#000000" font-family="Segoe UI" font-size="14" font-weight="bold" lengthAdjust="spacing" textLength="65" x="2972" y="1372.2168">Utilit&#225;rios</text></g><!--class Simulador--><g id="elem_Simulador"><rect codeLine="51" fill="#ADD8E6" height="68.8672" id="Simulador" rx="7.5" ry="7.5" style="stroke:#808000;stroke-width:0.5;" width="144" x="1433.5" y="94.6094"/><ellipse cx="1473.7" cy="110.6094" fill="#ADD1B2" rx="11" ry="11" style="stroke:#181818;stroke-width:1.0;"/><path d="M1476.4656,106.4844 Q1476.6219,106.2656 1476.8094,106.1563 Q1476.9969,106.0469 1477.2156,106.0469 Q1477.5906,106.0469 1477.825,106.3125 Q1478.0594,106.5625 1478.0594,107.1719 L1478.0594,108.625 Q1478.0594,109.2344 1477.825,109.5 Q1477.5906,109.7656 1477.2156,109.7656 Q1476.8719,109.7656 1476.6688,109.5625 Q1476.4656,109.375 1476.3563,108.8594 Q1476.3094,108.5 1476.1219,108.3125 Q1475.7938,107.9375 1475.1844,107.7188 Q1474.575,107.5 1473.95,107.5 Q1473.1844,107.5 1472.5438,107.8281 Q1471.9188,108.1563 1471.4188,108.9063 Q1470.9344,109.6563 1470.9344,110.6875 L1470.9344,111.7813 Q1470.9344,113.0156 1471.825,113.8438 Q1472.7156,114.6563 1474.3094,114.6563 Q1475.2469,114.6563 1475.9031,114.4063 Q1476.2938,114.25 1476.7156,113.8125 Q1476.9813,113.5469 1477.1219,113.4688 Q1477.2781,113.3906 1477.4813,113.3906 Q1477.8094,113.3906 1478.0594,113.6563 Q1478.325,113.9063 1478.325,114.25 Q1478.325,114.5938 1477.9813,115 Q1477.4813,115.5781 1476.6844,115.9063 Q1475.6063,116.3594 1474.3094,116.3594 Q1472.7938,116.3594 1471.5906,115.7344 Q1470.6063,115.2344 1469.9188,114.1719 Q1469.2313,113.0938 1469.2313,111.8125 L1469.2313,110.6563 Q1469.2313,109.3281 1469.8406,108.1875 Q1470.4656,107.0313 1471.5594,106.4219 Q1472.6531,105.7969 1473.8875,105.7969 Q1474.6219,105.7969 1475.2625,105.9688 Q1475.9188,106.125 1476.4656,106.4844 Z " fill="#000000"/><text fill="#000000" font-family="Segoe UI" font-size="12" lengthAdjust="spacing" textLength="54" x="1494.3" y="115.5781">Simulador</text><line style="stroke:#808000;stroke-width:0.5;" x1="1434.5" x2="1576.5" y1="126.6094" y2="126.6094"/><line style="stroke:#808000;stroke-width:0.5;" x1="1434.5" x2="1576.5" y1="134.6094" y2="134.6094"/><text fill="#000000" font-family="sans-serif" font-size="15" lengthAdjust="spacing" text-decoration="underline" textLength="130" x="1440.5" y="155.1807">+main(String[] args)</text></g><!--class SimuladorController--><g id="elem_SimuladorController"><rect codeLine="58" fill="#ADD8E6" height="402.7422" id="SimuladorController" rx="7.5" ry="7.5" style="stroke:#808000;stroke-width:0.5;" width="370" x="871.5" y="391.1094"/><ellipse cx="997.75" cy="407.1094" fill="#ADD1B2" rx="11" ry="11" style="stroke:#181818;stroke-width:1.0;"/><path d="M1000.5156,402.9844 Q1000.6719,402.7656 1000.8594,402.6563 Q1001.0469,402.5469 1001.2656,402.5469 Q1001.6406,402.5469 1001.875,402.8125 Q1002.1094,403.0625 1002.1094,403.6719 L1002.1094,405.125 Q1002.1094,405.7344 1001.875,406 Q1001.6406,406.2656 1001.2656,406.2656 Q1000.9219,406.2656 1000.7188,406.0625 Q1000.5156,405.875 1000.4063,405.3594 Q1000.3594,405 1000.1719,404.8125 Q999.8438,404.4375 999.2344,404.2188 Q998.625,404 998,404 Q997.2344,404 996.5938,404.3281 Q995.9688,404.6563 995.4688,405.4063 Q994.9844,406.1563 994.9844,407.1875 L994.9844,408.2813 Q994.9844,409.5156 995.875,410.3438 Q996.7656,411.1563 998.3594,411.1563 Q999.2969,411.1563 999.9531,410.9063 Q1000.3438,410.75 1000.7656,410.3125 Q1001.0313,410.0469 1001.1719,409.9688 Q1001.3281,409.8906 1001.5313,409.8906 Q1001.8594,409.8906 1002.1094,410.1563 Q1002.375,410.4063 1002.375,410.75 Q1002.375,411.0938 1002.0313,411.5 Q1001.5313,412.0781 1000.7344,412.4063 Q999.6563,412.8594 998.3594,412.8594 Q996.8438,412.8594 995.6406,412.2344 Q994.6563,411.7344 993.9688,410.6719 Q993.2813,409.5938 993.2813,408.3125 L993.2813,407.1563 Q993.2813,405.8281 993.8906,404.6875 Q994.5156,403.5313 995.6094,402.9219 Q996.7031,402.2969 997.9375,402.2969 Q998.6719,402.2969 999.3125,402.4688 Q999.9688,402.625 1000.5156,402.9844 Z " fill="#000000"/><text fill="#000000" font-family="Segoe UI" font-size="12" lengthAdjust="spacing" textLength="107" x="1019.25" y="412.0781">SimuladorController</text><line style="stroke:#808000;stroke-width:0.5;" x1="872.5" x2="1240.5" y1="423.1094" y2="423.1094"/><text fill="#000000" font-family="sans-serif" font-size="15" lengthAdjust="spacing" textLength="149" x="878.5" y="443.6807">-janela: JanelaPrincipal</text><text fill="#000000" font-family="sans-serif" font-size="15" lengthAdjust="spacing" textLength="201" x="878.5" y="464.5479">-painelControle: PainelControle</text><text fill="#000000" font-family="sans-serif" font-size="15" lengthAdjust="spacing" textLength="167" x="878.5" y="485.415">-painelMalha: PainelMalha</text><text fill="#000000" font-family="sans-serif" font-size="15" lengthAdjust="spacing" textLength="91" x="878.5" y="506.2822">-malha: Malha</text><text fill="#000000" font-family="sans-serif" font-size="15" lengthAdjust="spacing" textLength="154" x="878.5" y="527.1494">-veiculos: List&lt;Veiculo&gt;</text><text fill="#000000" font-family="sans-serif" font-size="15" lengthAdjust="spacing" textLength="188" x="878.5" y="548.0166">-threadGerenciadora: Thread</text><text fill="#000000" font-family="sans-serif" font-size="15" lengthAdjust="spacing" textLength="162" x="878.5" y="568.8838">-simulacaoAtiva: boolean</text><text fill="#000000" font-family="sans-serif" font-size="15" lengthAdjust="spacing" textLength="191" x="878.5" y="589.751">-podeInserirVeiculos: boolean</text><text fill="#000000" font-family="sans-serif" font-size="15" lengthAdjust="spacing" textLength="356" x="878.5" y="610.6182">-gerenciadorSincronizacao: GerenciadorSincronizacao</text><line style="stroke:#808000;stroke-width:0.5;" x1="872.5" x2="1240.5" y1="618.9141" y2="618.9141"/><text fill="#000000" font-family="sans-serif" font-size="15" lengthAdjust="spacing" textLength="148" x="878.5" y="639.4854">+SimuladorController()</text><text fill="#000000" font-family="sans-serif" font-size="15" lengthAdjust="spacing" textLength="77" x="878.5" y="660.3525">-iniciarGUI()</text><text fill="#000000" font-family="sans-serif" font-size="15" lengthAdjust="spacing" textLength="167" x="878.5" y="681.2197">-carregarMalha(): boolean</text><text fill="#000000" font-family="sans-serif" font-size="15" lengthAdjust="spacing" textLength="125" x="878.5" y="702.0869">-conectarEventos()</text><text fill="#000000" font-family="sans-serif" font-size="15" lengthAdjust="spacing" textLength="122" x="878.5" y="722.9541">-iniciarSimulacao()</text><text fill="#000000" font-family="sans-serif" font-size="15" lengthAdjust="spacing" textLength="126" x="878.5" y="743.8213">-encerrarInsercao()</text><text fill="#000000" font-family="sans-serif" font-size="15" lengthAdjust="spacing" textLength="139" x="878.5" y="764.6885">-encerrarSimulacao()</text><text fill="#000000" font-family="sans-serif" font-size="15" lengthAdjust="spacing" textLength="40" x="878.5" y="785.5557">+run()</text></g><!--class Runnable--><g id="elem_Runnable"><rect fill="#ADD8E6" height="48" id="Runnable" rx="7.5" ry="7.5" style="stroke:#808000;stroke-width:0.5;" width="85" x="1014" y="274.6094"/><ellipse cx="1029" cy="290.6094" fill="#B4A7E5" rx="11" ry="11" style="stroke:#181818;stroke-width:1.0;"/><path d="M1029.9531,287.25 L1029.9531,293.9063 L1031.6719,293.9063 Q1032.2813,293.9063 1032.5469,294.1406 Q1032.8125,294.375 1032.8125,294.7656 Q1032.8125,295.1406 1032.5469,295.375 Q1032.2813,295.6094 1031.6719,295.6094 L1026.5313,295.6094 Q1025.9219,295.6094 1025.6563,295.375 Q1025.3906,295.1406 1025.3906,294.75 Q1025.3906,294.375 1025.6563,294.1406 Q1025.9219,293.9063 1026.5313,293.9063 L1028.25,293.9063 L1028.25,287.25 L1026.5313,287.25 Q1025.9219,287.25 1025.6563,287.0156 Q1025.3906,286.7813 1025.3906,286.3906 Q1025.3906,286.0156 1025.6563,285.7813 Q1025.9219,285.5469 1026.5313,285.5469 L1031.6719,285.5469 Q1032.2813,285.5469 1032.5469,285.7813 Q1032.8125,286.0156 1032.8125,286.3906 Q1032.8125,286.7813 1032.5469,287.0156 Q1032.2813,287.25 1031.6719,287.25 L1029.9531,287.25 Z " fill="#000000"/><text fill="#000000" font-family="Segoe UI" font-size="12" font-style="italic" lengthAdjust="spacing" textLength="51" x="1044" y="295.5781">Runnable</text><line style="stroke:#808000;stroke-width:0.5;" x1="1015" x2="1098" y1="306.6094" y2="306.6094"/><line style="stroke:#808000;stroke-width:0.5;" x1="1015" x2="1098" y1="314.6094" y2="314.6094"/></g><!--class JanelaPrincipal--><g id="elem_JanelaPrincipal"><rect codeLine="81" fill="#ADD8E6" height="152.3359" id="JanelaPrincipal" rx="7.5" ry="7.5" style="stroke:#808000;stroke-width:0.5;" width="251" x="512" y="959.1094"/><ellipse cx="593.25" cy="975.1094" fill="#ADD1B2" rx="11" ry="11" style="stroke:#181818;stroke-width:1.0;"/><path d="M596.0156,970.9844 Q596.1719,970.7656 596.3594,970.6563 Q596.5469,970.5469 596.7656,970.5469 Q597.1406,970.5469 597.375,970.8125 Q597.6094,971.0625 597.6094,971.6719 L597.6094,973.125 Q597.6094,973.7344 597.375,974 Q597.1406,974.2656 596.7656,974.2656 Q596.4219,974.2656 596.2188,974.0625 Q596.0156,973.875 595.9063,973.3594 Q595.8594,973 595.6719,972.8125 Q595.3438,972.4375 594.7344,972.2188 Q594.125,972 593.5,972 Q592.7344,972 592.0938,972.3281 Q591.4688,972.6563 590.9688,973.4063 Q590.4844,974.1563 590.4844,975.1875 L590.4844,976.2813 Q590.4844,977.5156 591.375,978.3438 Q592.2656,979.1563 593.8594,979.1563 Q594.7969,979.1563 595.4531,978.9063 Q595.8438,978.75 596.2656,978.3125 Q596.5313,978.0469 596.6719,977.9688 Q596.8281,977.8906 597.0313,977.8906 Q597.3594,977.8906 597.6094,978.1563 Q597.875,978.4063 597.875,978.75 Q597.875,979.0938 597.5313,979.5 Q597.0313,980.0781 596.2344,980.4063 Q595.1563,980.8594 593.8594,980.8594 Q592.3438,980.8594 591.1406,980.2344 Q590.1563,979.7344 589.4688,978.6719 Q588.7813,977.5938 588.7813,976.3125 L588.7813,975.1563 Q588.7813,973.8281 589.3906,972.6875 Q590.0156,971.5313 591.1094,970.9219 Q592.2031,970.2969 593.4375,970.2969 Q594.1719,970.2969 594.8125,970.4688 Q595.4688,970.625 596.0156,970.9844 Z " fill="#000000"/><text fill="#000000" font-family="Segoe UI" font-size="12" lengthAdjust="spacing" textLength="78" x="614.75" y="980.0781">JanelaPrincipal</text><line style="stroke:#808000;stroke-width:0.5;" x1="513" x2="762" y1="991.1094" y2="991.1094"/><text fill="#000000" font-family="sans-serif" font-size="15" lengthAdjust="spacing" textLength="167" x="519" y="1011.6807">-painelMalha: PainelMalha</text><text fill="#000000" font-family="sans-serif" font-size="15" lengthAdjust="spacing" textLength="201" x="519" y="1032.5479">-painelControle: PainelControle</text><line style="stroke:#808000;stroke-width:0.5;" x1="513" x2="762" y1="1040.8438" y2="1040.8438"/><text fill="#000000" font-family="sans-serif" font-size="15" lengthAdjust="spacing" textLength="117" x="519" y="1061.415">+JanelaPrincipal()</text><text fill="#000000" font-family="sans-serif" font-size="15" lengthAdjust="spacing" textLength="203" x="519" y="1082.2822">+getPainelMalha(): PainelMalha</text><text fill="#000000" font-family="sans-serif" font-size="15" lengthAdjust="spacing" textLength="237" x="519" y="1103.1494">+getPainelControle(): PainelControle</text></g><!--class JFrame--><g id="elem_JFrame"><rect fill="#ADD8E6" height="48" id="JFrame" rx="7.5" ry="7.5" style="stroke:#808000;stroke-width:0.5;" width="71" x="602" y="568.6094"/><ellipse cx="617" cy="584.6094" fill="#ADD1B2" rx="11" ry="11" style="stroke:#181818;stroke-width:1.0;"/><path d="M619.7656,580.4844 Q619.9219,580.2656 620.1094,580.1563 Q620.2969,580.0469 620.5156,580.0469 Q620.8906,580.0469 621.125,580.3125 Q621.3594,580.5625 621.3594,581.1719 L621.3594,582.625 Q621.3594,583.2344 621.125,583.5 Q620.8906,583.7656 620.5156,583.7656 Q620.1719,583.7656 619.9688,583.5625 Q619.7656,583.375 619.6563,582.8594 Q619.6094,582.5 619.4219,582.3125 Q619.0938,581.9375 618.4844,581.7188 Q617.875,581.5 617.25,581.5 Q616.4844,581.5 615.8438,581.8281 Q615.2188,582.1563 614.7188,582.9063 Q614.2344,583.6563 614.2344,584.6875 L614.2344,585.7813 Q614.2344,587.0156 615.125,587.8438 Q616.0156,588.6563 617.6094,588.6563 Q618.5469,588.6563 619.2031,588.4063 Q619.5938,588.25 620.0156,587.8125 Q620.2813,587.5469 620.4219,587.4688 Q620.5781,587.3906 620.7813,587.3906 Q621.1094,587.3906 621.3594,587.6563 Q621.625,587.9063 621.625,588.25 Q621.625,588.5938 621.2813,589 Q620.7813,589.5781 619.9844,589.9063 Q618.9063,590.3594 617.6094,590.3594 Q616.0938,590.3594 614.8906,589.7344 Q613.9063,589.2344 613.2188,588.1719 Q612.5313,587.0938 612.5313,585.8125 L612.5313,584.6563 Q612.5313,583.3281 613.1406,582.1875 Q613.7656,581.0313 614.8594,580.4219 Q615.9531,579.7969 617.1875,579.7969 Q617.9219,579.7969 618.5625,579.9688 Q619.2188,580.125 619.7656,580.4844 Z " fill="#000000"/><text fill="#000000" font-family="Segoe UI" font-size="12" lengthAdjust="spacing" textLength="37" x="632" y="589.5781">JFrame</text><line style="stroke:#808000;stroke-width:0.5;" x1="603" x2="672" y1="600.6094" y2="600.6094"/><line style="stroke:#808000;stroke-width:0.5;" x1="603" x2="672" y1="608.6094" y2="608.6094"/></g><!--class PainelMalha--><g id="elem_PainelMalha"><rect codeLine="89" fill="#ADD8E6" height="235.8047" id="PainelMalha" rx="7.5" ry="7.5" style="stroke:#808000;stroke-width:0.5;" width="292" x="491.5" y="1328.1094"/><ellipse cx="599.75" cy="1344.1094" fill="#ADD1B2" rx="11" ry="11" style="stroke:#181818;stroke-width:1.0;"/><path d="M602.5156,1339.9844 Q602.6719,1339.7656 602.8594,1339.6563 Q603.0469,1339.5469 603.2656,1339.5469 Q603.6406,1339.5469 603.875,1339.8125 Q604.1094,1340.0625 604.1094,1340.6719 L604.1094,1342.125 Q604.1094,1342.7344 603.875,1343 Q603.6406,1343.2656 603.2656,1343.2656 Q602.9219,1343.2656 602.7188,1343.0625 Q602.5156,1342.875 602.4063,1342.3594 Q602.3594,1342 602.1719,1341.8125 Q601.8438,1341.4375 601.2344,1341.2188 Q600.625,1341 600,1341 Q599.2344,1341 598.5938,1341.3281 Q597.9688,1341.6563 597.4688,1342.4063 Q596.9844,1343.1563 596.9844,1344.1875 L596.9844,1345.2813 Q596.9844,1346.5156 597.875,1347.3438 Q598.7656,1348.1563 600.3594,1348.1563 Q601.2969,1348.1563 601.9531,1347.9063 Q602.3438,1347.75 602.7656,1347.3125 Q603.0313,1347.0469 603.1719,1346.9688 Q603.3281,1346.8906 603.5313,1346.8906 Q603.8594,1346.8906 604.1094,1347.1563 Q604.375,1347.4063 604.375,1347.75 Q604.375,1348.0938 604.0313,1348.5 Q603.5313,1349.0781 602.7344,1349.4063 Q601.6563,1349.8594 600.3594,1349.8594 Q598.8438,1349.8594 597.6406,1349.2344 Q596.6563,1348.7344 595.9688,1347.6719 Q595.2813,1346.5938 595.2813,1345.3125 L595.2813,1344.1563 Q595.2813,1342.8281 595.8906,1341.6875 Q596.5156,1340.5313 597.6094,1339.9219 Q598.7031,1339.2969 599.9375,1339.2969 Q600.6719,1339.2969 601.3125,1339.4688 Q601.9688,1339.625 602.5156,1339.9844 Z " fill="#000000"/><text fill="#000000" font-family="Segoe UI" font-size="12" lengthAdjust="spacing" textLength="65" x="621.25" y="1349.0781">PainelMalha</text><line style="stroke:#808000;stroke-width:0.5;" x1="492.5" x2="782.5" y1="1360.1094" y2="1360.1094"/><text fill="#000000" font-family="sans-serif" font-size="15" lengthAdjust="spacing" textLength="91" x="498.5" y="1380.6807">-malha: Malha</text><text fill="#000000" font-family="sans-serif" font-size="15" lengthAdjust="spacing" textLength="154" x="498.5" y="1401.5479">-veiculos: List&lt;Veiculo&gt;</text><line style="stroke:#808000;stroke-width:0.5;" x1="492.5" x2="782.5" y1="1409.8438" y2="1409.8438"/><text fill="#000000" font-family="sans-serif" font-size="15" lengthAdjust="spacing" textLength="97" x="498.5" y="1430.415">+PainelMalha()</text><text fill="#000000" font-family="sans-serif" font-size="15" lengthAdjust="spacing" textLength="159" x="498.5" y="1451.2822">+setMalha(Malha malha)</text><text fill="#000000" font-family="sans-serif" font-size="15" lengthAdjust="spacing" textLength="239" x="498.5" y="1472.1494">+setVeiculos(List&lt;Veiculo&gt; veiculos)</text><text fill="#000000" font-family="sans-serif" font-size="15" lengthAdjust="spacing" textLength="196" x="498.5" y="1493.0166">#paintComponent(Graphics g)</text><text fill="#000000" font-family="sans-serif" font-size="15" lengthAdjust="spacing" textLength="261" x="498.5" y="1513.8838">-desenharMalha(Graphics2D, int, int, int)</text><text fill="#000000" font-family="sans-serif" font-size="15" lengthAdjust="spacing" textLength="269" x="498.5" y="1534.751">-desenharPontos(Graphics2D, int, int, int)</text><text fill="#000000" font-family="sans-serif" font-size="15" lengthAdjust="spacing" textLength="278" x="498.5" y="1555.6182">-desenharVeiculos(Graphics2D, int, int, int)</text></g><!--class JPanel--><g id="elem_JPanel"><rect fill="#ADD8E6" height="48" id="JPanel" rx="7.5" ry="7.5" style="stroke:#808000;stroke-width:0.5;" width="67" x="307" y="1011.1094"/><ellipse cx="322" cy="1027.1094" fill="#ADD1B2" rx="11" ry="11" style="stroke:#181818;stroke-width:1.0;"/><path d="M324.7656,1022.9844 Q324.9219,1022.7656 325.1094,1022.6563 Q325.2969,1022.5469 325.5156,1022.5469 Q325.8906,1022.5469 326.125,1022.8125 Q326.3594,1023.0625 326.3594,1023.6719 L326.3594,1025.125 Q326.3594,1025.7344 326.125,1026 Q325.8906,1026.2656 325.5156,1026.2656 Q325.1719,1026.2656 324.9688,1026.0625 Q324.7656,1025.875 324.6563,1025.3594 Q324.6094,1025 324.4219,1024.8125 Q324.0938,1024.4375 323.4844,1024.2188 Q322.875,1024 322.25,1024 Q321.4844,1024 320.8438,1024.3281 Q320.2188,1024.6563 319.7188,1025.4063 Q319.2344,1026.1563 319.2344,1027.1875 L319.2344,1028.2813 Q319.2344,1029.5156 320.125,1030.3438 Q321.0156,1031.1563 322.6094,1031.1563 Q323.5469,1031.1563 324.2031,1030.9063 Q324.5938,1030.75 325.0156,1030.3125 Q325.2813,1030.0469 325.4219,1029.9688 Q325.5781,1029.8906 325.7813,1029.8906 Q326.1094,1029.8906 326.3594,1030.1563 Q326.625,1030.4063 326.625,1030.75 Q326.625,1031.0938 326.2813,1031.5 Q325.7813,1032.0781 324.9844,1032.4063 Q323.9063,1032.8594 322.6094,1032.8594 Q321.0938,1032.8594 319.8906,1032.2344 Q318.9063,1031.7344 318.2188,1030.6719 Q317.5313,1029.5938 317.5313,1028.3125 L317.5313,1027.1563 Q317.5313,1025.8281 318.1406,1024.6875 Q318.7656,1023.5313 319.8594,1022.9219 Q320.9531,1022.2969 322.1875,1022.2969 Q322.9219,1022.2969 323.5625,1022.4688 Q324.2188,1022.625 324.7656,1022.9844 Z " fill="#000000"/><text fill="#000000" font-family="Segoe UI" font-size="12" lengthAdjust="spacing" textLength="33" x="337" y="1032.0781">JPanel</text><line style="stroke:#808000;stroke-width:0.5;" x1="308" x2="373" y1="1043.1094" y2="1043.1094"/><line style="stroke:#808000;stroke-width:0.5;" x1="308" x2="373" y1="1051.1094" y2="1051.1094"/></g><!--class PainelControle--><g id="elem_PainelControle"><rect codeLine="101" fill="#ADD8E6" height="340.1406" id="PainelControle" rx="7.5" ry="7.5" style="stroke:#808000;stroke-width:0.5;" width="258" x="153.5" y="1276.1094"/><ellipse cx="238.25" cy="1292.1094" fill="#ADD1B2" rx="11" ry="11" style="stroke:#181818;stroke-width:1.0;"/><path d="M241.0156,1287.9844 Q241.1719,1287.7656 241.3594,1287.6563 Q241.5469,1287.5469 241.7656,1287.5469 Q242.1406,1287.5469 242.375,1287.8125 Q242.6094,1288.0625 242.6094,1288.6719 L242.6094,1290.125 Q242.6094,1290.7344 242.375,1291 Q242.1406,1291.2656 241.7656,1291.2656 Q241.4219,1291.2656 241.2188,1291.0625 Q241.0156,1290.875 240.9063,1290.3594 Q240.8594,1290 240.6719,1289.8125 Q240.3438,1289.4375 239.7344,1289.2188 Q239.125,1289 238.5,1289 Q237.7344,1289 237.0938,1289.3281 Q236.4688,1289.6563 235.9688,1290.4063 Q235.4844,1291.1563 235.4844,1292.1875 L235.4844,1293.2813 Q235.4844,1294.5156 236.375,1295.3438 Q237.2656,1296.1563 238.8594,1296.1563 Q239.7969,1296.1563 240.4531,1295.9063 Q240.8438,1295.75 241.2656,1295.3125 Q241.5313,1295.0469 241.6719,1294.9688 Q241.8281,1294.8906 242.0313,1294.8906 Q242.3594,1294.8906 242.6094,1295.1563 Q242.875,1295.4063 242.875,1295.75 Q242.875,1296.0938 242.5313,1296.5 Q242.0313,1297.0781 241.2344,1297.4063 Q240.1563,1297.8594 238.8594,1297.8594 Q237.3438,1297.8594 236.1406,1297.2344 Q235.1563,1296.7344 234.4688,1295.6719 Q233.7813,1294.5938 233.7813,1293.3125 L233.7813,1292.1563 Q233.7813,1290.8281 234.3906,1289.6875 Q235.0156,1288.5313 236.1094,1287.9219 Q237.2031,1287.2969 238.4375,1287.2969 Q239.1719,1287.2969 239.8125,1287.4688 Q240.4688,1287.625 241.0156,1287.9844 Z " fill="#000000"/><text fill="#000000" font-family="Segoe UI" font-size="12" lengthAdjust="spacing" textLength="78" x="259.75" y="1297.0781">PainelControle</text><line style="stroke:#808000;stroke-width:0.5;" x1="154.5" x2="410.5" y1="1308.1094" y2="1308.1094"/><text fill="#000000" font-family="sans-serif" font-size="15" lengthAdjust="spacing" textLength="173" x="160.5" y="1328.6807">-txtQtdVeiculos: JTextField</text><text fill="#000000" font-family="sans-serif" font-size="15" lengthAdjust="spacing" textLength="148" x="160.5" y="1349.5479">-txtIntervalo: JTextField</text><text fill="#000000" font-family="sans-serif" font-size="15" lengthAdjust="spacing" textLength="177" x="160.5" y="1370.415">-rbSemaforo: JRadioButton</text><text fill="#000000" font-family="sans-serif" font-size="15" lengthAdjust="spacing" textLength="160" x="160.5" y="1391.2822">-rbMonitor: JRadioButton</text><text fill="#000000" font-family="sans-serif" font-size="15" lengthAdjust="spacing" textLength="120" x="160.5" y="1412.1494">-btnIniciar: JButton</text><text fill="#000000" font-family="sans-serif" font-size="15" lengthAdjust="spacing" textLength="195" x="160.5" y="1433.0166">-btnEncerrarInsercao: JButton</text><text fill="#000000" font-family="sans-serif" font-size="15" lengthAdjust="spacing" textLength="208" x="160.5" y="1453.8838">-btnEncerrarSimulacao: JButton</text><line style="stroke:#808000;stroke-width:0.5;" x1="154.5" x2="410.5" y1="1462.1797" y2="1462.1797"/><text fill="#000000" font-family="sans-serif" font-size="15" lengthAdjust="spacing" textLength="114" x="160.5" y="1482.751">+PainelControle()</text><text fill="#000000" font-family="sans-serif" font-size="15" lengthAdjust="spacing" textLength="164" x="160.5" y="1503.6182">+getQtdVeiculos(): String</text><text fill="#000000" font-family="sans-serif" font-size="15" lengthAdjust="spacing" textLength="139" x="160.5" y="1524.4854">+getIntervalo(): String</text><text fill="#000000" font-family="sans-serif" font-size="15" lengthAdjust="spacing" textLength="233" x="160.5" y="1545.3525">+isSemaforoSelecionado(): boolean</text><text fill="#000000" font-family="sans-serif" font-size="15" lengthAdjust="spacing" textLength="156" x="160.5" y="1566.2197">+getBtnIniciar(): JButton</text><text fill="#000000" font-family="sans-serif" font-size="15" lengthAdjust="spacing" textLength="231" x="160.5" y="1587.0869">+getBtnEncerrarInsercao(): JButton</text><text fill="#000000" font-family="sans-serif" font-size="15" lengthAdjust="spacing" textLength="244" x="160.5" y="1607.9541">+getBtnEncerrarSimulacao(): JButton</text></g><!--class Malha--><g id="elem_Malha"><rect codeLine="121" fill="#ADD8E6" height="277.5391" id="Malha" rx="7.5" ry="7.5" style="stroke:#808000;stroke-width:0.5;" width="316" x="1769.5" y="1666.1094"/><ellipse cx="1905.75" cy="1682.1094" fill="#ADD1B2" rx="11" ry="11" style="stroke:#181818;stroke-width:1.0;"/><path d="M1908.5156,1677.9844 Q1908.6719,1677.7656 1908.8594,1677.6563 Q1909.0469,1677.5469 1909.2656,1677.5469 Q1909.6406,1677.5469 1909.875,1677.8125 Q1910.1094,1678.0625 1910.1094,1678.6719 L1910.1094,1680.125 Q1910.1094,1680.7344 1909.875,1681 Q1909.6406,1681.2656 1909.2656,1681.2656 Q1908.9219,1681.2656 1908.7188,1681.0625 Q1908.5156,1680.875 1908.4063,1680.3594 Q1908.3594,1680 1908.1719,1679.8125 Q1907.8438,1679.4375 1907.2344,1679.2188 Q1906.625,1679 1906,1679 Q1905.2344,1679 1904.5938,1679.3281 Q1903.9688,1679.6563 1903.4688,1680.4063 Q1902.9844,1681.1563 1902.9844,1682.1875 L1902.9844,1683.2813 Q1902.9844,1684.5156 1903.875,1685.3438 Q1904.7656,1686.1563 1906.3594,1686.1563 Q1907.2969,1686.1563 1907.9531,1685.9063 Q1908.3438,1685.75 1908.7656,1685.3125 Q1909.0313,1685.0469 1909.1719,1684.9688 Q1909.3281,1684.8906 1909.5313,1684.8906 Q1909.8594,1684.8906 1910.1094,1685.1563 Q1910.375,1685.4063 1910.375,1685.75 Q1910.375,1686.0938 1910.0313,1686.5 Q1909.5313,1687.0781 1908.7344,1687.4063 Q1907.6563,1687.8594 1906.3594,1687.8594 Q1904.8438,1687.8594 1903.6406,1687.2344 Q1902.6563,1686.7344 1901.9688,1685.6719 Q1901.2813,1684.5938 1901.2813,1683.3125 L1901.2813,1682.1563 Q1901.2813,1680.8281 1901.8906,1679.6875 Q1902.5156,1678.5313 1903.6094,1677.9219 Q1904.7031,1677.2969 1905.9375,1677.2969 Q1906.6719,1677.2969 1907.3125,1677.4688 Q1907.9688,1677.625 1908.5156,1677.9844 Z " fill="#000000"/><text fill="#000000" font-family="Segoe UI" font-size="12" lengthAdjust="spacing" textLength="33" x="1927.25" y="1687.0781">Malha</text><line style="stroke:#808000;stroke-width:0.5;" x1="1770.5" x2="2084.5" y1="1698.1094" y2="1698.1094"/><text fill="#000000" font-family="sans-serif" font-size="15" lengthAdjust="spacing" textLength="68" x="1776.5" y="1718.6807">-grid: int[][]</text><text fill="#000000" font-family="sans-serif" font-size="15" lengthAdjust="spacing" textLength="201" x="1776.5" y="1739.5479">-pontosDeEntrada: List&lt;Point&gt;</text><text fill="#000000" font-family="sans-serif" font-size="15" lengthAdjust="spacing" textLength="187" x="1776.5" y="1760.415">-pontosDeSaida: List&lt;Point&gt;</text><text fill="#000000" font-family="sans-serif" font-size="15" lengthAdjust="spacing" textLength="302" x="1776.5" y="1781.2822">-semaforosDaMalha: Map&lt;Point, Semaphore&gt;</text><line style="stroke:#808000;stroke-width:0.5;" x1="1770.5" x2="2084.5" y1="1789.5781" y2="1789.5781"/><text fill="#000000" font-family="sans-serif" font-size="15" lengthAdjust="spacing" textLength="220" x="1776.5" y="1810.1494">+Malha(int[][], List, List, Map, Map)</text><text fill="#000000" font-family="sans-serif" font-size="15" lengthAdjust="spacing" textLength="201" x="1776.5" y="1831.0166">+getsemaforosDaMalha(): Map</text><text fill="#000000" font-family="sans-serif" font-size="15" lengthAdjust="spacing" textLength="105" x="1776.5" y="1851.8838">+getLinhas(): int</text><text fill="#000000" font-family="sans-serif" font-size="15" lengthAdjust="spacing" textLength="116" x="1776.5" y="1872.751">+getColunas(): int</text><text fill="#000000" font-family="sans-serif" font-size="15" lengthAdjust="spacing" textLength="133" x="1776.5" y="1893.6182">+getValor(int, int): int</text><text fill="#000000" font-family="sans-serif" font-size="15" lengthAdjust="spacing" textLength="186" x="1776.5" y="1914.4854">+getPontosDeEntrada(): List</text><text fill="#000000" font-family="sans-serif" font-size="15" lengthAdjust="spacing" textLength="172" x="1776.5" y="1935.3525">+getPontosDeSaida(): List</text></g><!--class Veiculo--><g id="elem_Veiculo"><rect codeLine="135" fill="#ADD8E6" height="381.875" id="Veiculo" rx="7.5" ry="7.5" style="stroke:#808000;stroke-width:0.5;" width="426" x="1345.5" y="844.1094"/><ellipse cx="1533.75" cy="860.1094" fill="#ADD1B2" rx="11" ry="11" style="stroke:#181818;stroke-width:1.0;"/><path d="M1536.5156,855.9844 Q1536.6719,855.7656 1536.8594,855.6563 Q1537.0469,855.5469 1537.2656,855.5469 Q1537.6406,855.5469 1537.875,855.8125 Q1538.1094,856.0625 1538.1094,856.6719 L1538.1094,858.125 Q1538.1094,858.7344 1537.875,859 Q1537.6406,859.2656 1537.2656,859.2656 Q1536.9219,859.2656 1536.7188,859.0625 Q1536.5156,858.875 1536.4063,858.3594 Q1536.3594,858 1536.1719,857.8125 Q1535.8438,857.4375 1535.2344,857.2188 Q1534.625,857 1534,857 Q1533.2344,857 1532.5938,857.3281 Q1531.9688,857.6563 1531.4688,858.4063 Q1530.9844,859.1563 1530.9844,860.1875 L1530.9844,861.2813 Q1530.9844,862.5156 1531.875,863.3438 Q1532.7656,864.1563 1534.3594,864.1563 Q1535.2969,864.1563 1535.9531,863.9063 Q1536.3438,863.75 1536.7656,863.3125 Q1537.0313,863.0469 1537.1719,862.9688 Q1537.3281,862.8906 1537.5313,862.8906 Q1537.8594,862.8906 1538.1094,863.1563 Q1538.375,863.4063 1538.375,863.75 Q1538.375,864.0938 1538.0313,864.5 Q1537.5313,865.0781 1536.7344,865.4063 Q1535.6563,865.8594 1534.3594,865.8594 Q1532.8438,865.8594 1531.6406,865.2344 Q1530.6563,864.7344 1529.9688,863.6719 Q1529.2813,862.5938 1529.2813,861.3125 L1529.2813,860.1563 Q1529.2813,858.8281 1529.8906,857.6875 Q1530.5156,856.5313 1531.6094,855.9219 Q1532.7031,855.2969 1533.9375,855.2969 Q1534.6719,855.2969 1535.3125,855.4688 Q1535.9688,855.625 1536.5156,855.9844 Z " fill="#000000"/><text fill="#000000" font-family="Segoe UI" font-size="12" lengthAdjust="spacing" textLength="39" x="1555.25" y="865.0781">Veiculo</text><line style="stroke:#808000;stroke-width:0.5;" x1="1346.5" x2="1770.5" y1="876.1094" y2="876.1094"/><text fill="#000000" font-family="sans-serif" font-size="15" lengthAdjust="spacing" text-decoration="underline" textLength="96" x="1352.5" y="896.6807">-contadorId: int</text><text fill="#000000" font-family="sans-serif" font-size="15" lengthAdjust="spacing" textLength="39" x="1352.5" y="917.5479">-id: int</text><text fill="#000000" font-family="sans-serif" font-size="15" lengthAdjust="spacing" textLength="97" x="1352.5" y="938.415">-posicao: Point</text><text fill="#000000" font-family="sans-serif" font-size="15" lengthAdjust="spacing" textLength="97" x="1352.5" y="959.2822">-velocidade: int</text><text fill="#000000" font-family="sans-serif" font-size="15" lengthAdjust="spacing" textLength="91" x="1352.5" y="980.1494">-malha: Malha</text><text fill="#000000" font-family="sans-serif" font-size="15" lengthAdjust="spacing" textLength="129" x="1352.5" y="1001.0166">-painel: PainelMalha</text><text fill="#000000" font-family="sans-serif" font-size="15" lengthAdjust="spacing" textLength="356" x="1352.5" y="1021.8838">-gerenciadorSincronizacao: GerenciadorSincronizacao</text><text fill="#000000" font-family="sans-serif" font-size="15" lengthAdjust="spacing" textLength="214" x="1352.5" y="1042.751">-caminhoReservado: List&lt;Point&gt;</text><line style="stroke:#808000;stroke-width:0.5;" x1="1346.5" x2="1770.5" y1="1051.0469" y2="1051.0469"/><text fill="#000000" font-family="sans-serif" font-size="15" lengthAdjust="spacing" textLength="412" x="1352.5" y="1071.6182">+Veiculo(Point, Malha, PainelMalha, GerenciadorSincronizacao)</text><text fill="#000000" font-family="sans-serif" font-size="15" lengthAdjust="spacing" textLength="40" x="1352.5" y="1092.4854">+run()</text><text fill="#000000" font-family="sans-serif" font-size="15" lengthAdjust="spacing" textLength="229" x="1352.5" y="1113.3525">-moverPara(Point proximaPosicao)</text><text fill="#000000" font-family="sans-serif" font-size="15" lengthAdjust="spacing" textLength="289" x="1352.5" y="1134.2197">-atravessarCruzamento(Point pontoEntrada)</text><text fill="#000000" font-family="sans-serif" font-size="15" lengthAdjust="spacing" textLength="303" x="1352.5" y="1155.0869">-planejarCaminhoCompleto(Point): List&lt;Point&gt;</text><text fill="#000000" font-family="sans-serif" font-size="15" lengthAdjust="spacing" textLength="253" x="1352.5" y="1175.9541">-calcularProximaPosicaoFisica(): Point</text><text fill="#000000" font-family="sans-serif" font-size="15" lengthAdjust="spacing" textLength="85" x="1352.5" y="1196.8213">+getId(): long</text><text fill="#000000" font-family="sans-serif" font-size="15" lengthAdjust="spacing" textLength="133" x="1352.5" y="1217.6885">+getPosicao(): Point</text></g><!--class Thread--><g id="elem_Thread"><rect fill="#ADD8E6" height="48" id="Thread" rx="7.5" ry="7.5" style="stroke:#808000;stroke-width:0.5;" width="71" x="1523" y="568.6094"/><ellipse cx="1538" cy="584.6094" fill="#ADD1B2" rx="11" ry="11" style="stroke:#181818;stroke-width:1.0;"/><path d="M1540.7656,580.4844 Q1540.9219,580.2656 1541.1094,580.1563 Q1541.2969,580.0469 1541.5156,580.0469 Q1541.8906,580.0469 1542.125,580.3125 Q1542.3594,580.5625 1542.3594,581.1719 L1542.3594,582.625 Q1542.3594,583.2344 1542.125,583.5 Q1541.8906,583.7656 1541.5156,583.7656 Q1541.1719,583.7656 1540.9688,583.5625 Q1540.7656,583.375 1540.6563,582.8594 Q1540.6094,582.5 1540.4219,582.3125 Q1540.0938,581.9375 1539.4844,581.7188 Q1538.875,581.5 1538.25,581.5 Q1537.4844,581.5 1536.8438,581.8281 Q1536.2188,582.1563 1535.7188,582.9063 Q1535.2344,583.6563 1535.2344,584.6875 L1535.2344,585.7813 Q1535.2344,587.0156 1536.125,587.8438 Q1537.0156,588.6563 1538.6094,588.6563 Q1539.5469,588.6563 1540.2031,588.4063 Q1540.5938,588.25 1541.0156,587.8125 Q1541.2813,587.5469 1541.4219,587.4688 Q1541.5781,587.3906 1541.7813,587.3906 Q1542.1094,587.3906 1542.3594,587.6563 Q1542.625,587.9063 1542.625,588.25 Q1542.625,588.5938 1542.2813,589 Q1541.7813,589.5781 1540.9844,589.9063 Q1539.9063,590.3594 1538.6094,590.3594 Q1537.0938,590.3594 1535.8906,589.7344 Q1534.9063,589.2344 1534.2188,588.1719 Q1533.5313,587.0938 1533.5313,585.8125 L1533.5313,584.6563 Q1533.5313,583.3281 1534.1406,582.1875 Q1534.7656,581.0313 1535.8594,580.4219 Q1536.9531,579.7969 1538.1875,579.7969 Q1538.9219,579.7969 1539.5625,579.9688 Q1540.2188,580.125 1540.7656,580.4844 Z " fill="#000000"/><text fill="#000000" font-family="Segoe UI" font-size="12" lengthAdjust="spacing" textLength="37" x="1553" y="589.5781">Thread</text><line style="stroke:#808000;stroke-width:0.5;" x1="1524" x2="1593" y1="600.6094" y2="600.6094"/><line style="stroke:#808000;stroke-width:0.5;" x1="1524" x2="1593" y1="608.6094" y2="608.6094"/></g><!--class GerenciadorSincronizacao--><g id="elem_GerenciadorSincronizacao"><rect codeLine="156" fill="#ADD8E6" height="131.4688" id="GerenciadorSincronizacao" rx="7.5" ry="7.5" style="stroke:#808000;stroke-width:0.5;" width="372" x="1931.5" y="969.6094"/><ellipse cx="2045.25" cy="985.6094" fill="#B4A7E5" rx="11" ry="11" style="stroke:#181818;stroke-width:1.0;"/><path d="M2046.2031,982.25 L2046.2031,988.9063 L2047.9219,988.9063 Q2048.5313,988.9063 2048.7969,989.1406 Q2049.0625,989.375 2049.0625,989.7656 Q2049.0625,990.1406 2048.7969,990.375 Q2048.5313,990.6094 2047.9219,990.6094 L2042.7813,990.6094 Q2042.1719,990.6094 2041.9063,990.375 Q2041.6406,990.1406 2041.6406,989.75 Q2041.6406,989.375 2041.9063,989.1406 Q2042.1719,988.9063 2042.7813,988.9063 L2044.5,988.9063 L2044.5,982.25 L2042.7813,982.25 Q2042.1719,982.25 2041.9063,982.0156 Q2041.6406,981.7813 2041.6406,981.3906 Q2041.6406,981.0156 2041.9063,980.7813 Q2042.1719,980.5469 2042.7813,980.5469 L2047.9219,980.5469 Q2048.5313,980.5469 2048.7969,980.7813 Q2049.0625,981.0156 2049.0625,981.3906 Q2049.0625,981.7813 2048.7969,982.0156 Q2048.5313,982.25 2047.9219,982.25 L2046.2031,982.25 Z " fill="#000000"/><text fill="#000000" font-family="Segoe UI" font-size="12" font-style="italic" lengthAdjust="spacing" textLength="134" x="2066.75" y="990.5781">GerenciadorSincronizacao</text><line style="stroke:#808000;stroke-width:0.5;" x1="1932.5" x2="2302.5" y1="1001.6094" y2="1001.6094"/><line style="stroke:#808000;stroke-width:0.5;" x1="1932.5" x2="2302.5" y1="1009.6094" y2="1009.6094"/><text fill="#000000" font-family="sans-serif" font-size="15" font-style="italic" lengthAdjust="spacing" textLength="210" x="1938.5" y="1030.1807">+tentarAdquirir(Point p): boolean</text><text fill="#000000" font-family="sans-serif" font-size="15" font-style="italic" lengthAdjust="spacing" textLength="104" x="1938.5" y="1051.0479">+liberar(Point p)</text><text fill="#000000" font-family="sans-serif" font-size="15" font-style="italic" lengthAdjust="spacing" textLength="358" x="1938.5" y="1071.915">+tentarAdquirirCaminho(List&lt;Point&gt; caminho): boolean</text><text fill="#000000" font-family="sans-serif" font-size="15" font-style="italic" lengthAdjust="spacing" textLength="252" x="1938.5" y="1092.7822">+liberarCaminho(List&lt;Point&gt; caminho)</text></g><!--class GerenciadorSemaforo--><g id="elem_GerenciadorSemaforo"><rect codeLine="163" fill="#ADD8E6" height="173.2031" id="GerenciadorSemaforo" rx="7.5" ry="7.5" style="stroke:#808000;stroke-width:0.5;" width="371" x="1876" y="1359.6094"/><ellipse cx="1998.75" cy="1375.6094" fill="#ADD1B2" rx="11" ry="11" style="stroke:#181818;stroke-width:1.0;"/><path d="M2001.5156,1371.4844 Q2001.6719,1371.2656 2001.8594,1371.1563 Q2002.0469,1371.0469 2002.2656,1371.0469 Q2002.6406,1371.0469 2002.875,1371.3125 Q2003.1094,1371.5625 2003.1094,1372.1719 L2003.1094,1373.625 Q2003.1094,1374.2344 2002.875,1374.5 Q2002.6406,1374.7656 2002.2656,1374.7656 Q2001.9219,1374.7656 2001.7188,1374.5625 Q2001.5156,1374.375 2001.4063,1373.8594 Q2001.3594,1373.5 2001.1719,1373.3125 Q2000.8438,1372.9375 2000.2344,1372.7188 Q1999.625,1372.5 1999,1372.5 Q1998.2344,1372.5 1997.5938,1372.8281 Q1996.9688,1373.1563 1996.4688,1373.9063 Q1995.9844,1374.6563 1995.9844,1375.6875 L1995.9844,1376.7813 Q1995.9844,1378.0156 1996.875,1378.8438 Q1997.7656,1379.6563 1999.3594,1379.6563 Q2000.2969,1379.6563 2000.9531,1379.4063 Q2001.3438,1379.25 2001.7656,1378.8125 Q2002.0313,1378.5469 2002.1719,1378.4688 Q2002.3281,1378.3906 2002.5313,1378.3906 Q2002.8594,1378.3906 2003.1094,1378.6563 Q2003.375,1378.9063 2003.375,1379.25 Q2003.375,1379.5938 2003.0313,1380 Q2002.5313,1380.5781 2001.7344,1380.9063 Q2000.6563,1381.3594 1999.3594,1381.3594 Q1997.8438,1381.3594 1996.6406,1380.7344 Q1995.6563,1380.2344 1994.9688,1379.1719 Q1994.2813,1378.0938 1994.2813,1376.8125 L1994.2813,1375.6563 Q1994.2813,1374.3281 1994.8906,1373.1875 Q1995.5156,1372.0313 1996.6094,1371.4219 Q1997.7031,1370.7969 1998.9375,1370.7969 Q1999.6719,1370.7969 2000.3125,1370.9688 Q2000.9688,1371.125 2001.5156,1371.4844 Z " fill="#000000"/><text fill="#000000" font-family="Segoe UI" font-size="12" lengthAdjust="spacing" textLength="115" x="2020.25" y="1380.5781">GerenciadorSemaforo</text><line style="stroke:#808000;stroke-width:0.5;" x1="1877" x2="2246" y1="1391.6094" y2="1391.6094"/><text fill="#000000" font-family="sans-serif" font-size="15" lengthAdjust="spacing" textLength="245" x="1883" y="1412.1807">-semaforos: Map&lt;Point, Semaphore&gt;</text><line style="stroke:#808000;stroke-width:0.5;" x1="1877" x2="2246" y1="1420.4766" y2="1420.4766"/><text fill="#000000" font-family="sans-serif" font-size="15" lengthAdjust="spacing" textLength="245" x="1883" y="1441.0479">+GerenciadorSemaforo(Malha malha)</text><text fill="#000000" font-family="sans-serif" font-size="15" lengthAdjust="spacing" textLength="209" x="1883" y="1461.915">+tentarAdquirir(Point p): boolean</text><text fill="#000000" font-family="sans-serif" font-size="15" lengthAdjust="spacing" textLength="104" x="1883" y="1482.7822">+liberar(Point p)</text><text fill="#000000" font-family="sans-serif" font-size="15" lengthAdjust="spacing" textLength="357" x="1883" y="1503.6494">+tentarAdquirirCaminho(List&lt;Point&gt; caminho): boolean</text><text fill="#000000" font-family="sans-serif" font-size="15" lengthAdjust="spacing" textLength="252" x="1883" y="1524.5166">+liberarCaminho(List&lt;Point&gt; caminho)</text></g><!--class GerenciadorMonitor--><g id="elem_GerenciadorMonitor"><rect codeLine="172" fill="#ADD8E6" height="152.3359" id="GerenciadorMonitor" rx="7.5" ry="7.5" style="stroke:#808000;stroke-width:0.5;" width="371" x="2327" y="1370.1094"/><ellipse cx="2453.75" cy="1386.1094" fill="#ADD1B2" rx="11" ry="11" style="stroke:#181818;stroke-width:1.0;"/><path d="M2456.5156,1381.9844 Q2456.6719,1381.7656 2456.8594,1381.6563 Q2457.0469,1381.5469 2457.2656,1381.5469 Q2457.6406,1381.5469 2457.875,1381.8125 Q2458.1094,1382.0625 2458.1094,1382.6719 L2458.1094,1384.125 Q2458.1094,1384.7344 2457.875,1385 Q2457.6406,1385.2656 2457.2656,1385.2656 Q2456.9219,1385.2656 2456.7188,1385.0625 Q2456.5156,1384.875 2456.4063,1384.3594 Q2456.3594,1384 2456.1719,1383.8125 Q2455.8438,1383.4375 2455.2344,1383.2188 Q2454.625,1383 2454,1383 Q2453.2344,1383 2452.5938,1383.3281 Q2451.9688,1383.6563 2451.4688,1384.4063 Q2450.9844,1385.1563 2450.9844,1386.1875 L2450.9844,1387.2813 Q2450.9844,1388.5156 2451.875,1389.3438 Q2452.7656,1390.1563 2454.3594,1390.1563 Q2455.2969,1390.1563 2455.9531,1389.9063 Q2456.3438,1389.75 2456.7656,1389.3125 Q2457.0313,1389.0469 2457.1719,1388.9688 Q2457.3281,1388.8906 2457.5313,1388.8906 Q2457.8594,1388.8906 2458.1094,1389.1563 Q2458.375,1389.4063 2458.375,1389.75 Q2458.375,1390.0938 2458.0313,1390.5 Q2457.5313,1391.0781 2456.7344,1391.4063 Q2455.6563,1391.8594 2454.3594,1391.8594 Q2452.8438,1391.8594 2451.6406,1391.2344 Q2450.6563,1390.7344 2449.9688,1389.6719 Q2449.2813,1388.5938 2449.2813,1387.3125 L2449.2813,1386.1563 Q2449.2813,1384.8281 2449.8906,1383.6875 Q2450.5156,1382.5313 2451.6094,1381.9219 Q2452.7031,1381.2969 2453.9375,1381.2969 Q2454.6719,1381.2969 2455.3125,1381.4688 Q2455.9688,1381.625 2456.5156,1381.9844 Z " fill="#000000"/><text fill="#000000" font-family="Segoe UI" font-size="12" lengthAdjust="spacing" textLength="107" x="2475.25" y="1391.0781">GerenciadorMonitor</text><line style="stroke:#808000;stroke-width:0.5;" x1="2328" x2="2697" y1="1402.1094" y2="1402.1094"/><text fill="#000000" font-family="sans-serif" font-size="15" lengthAdjust="spacing" textLength="213" x="2334" y="1422.6807">-posicoesOcupadas: Set&lt;Point&gt;</text><line style="stroke:#808000;stroke-width:0.5;" x1="2328" x2="2697" y1="1430.9766" y2="1430.9766"/><text fill="#000000" font-family="sans-serif" font-size="15" lengthAdjust="spacing" textLength="209" x="2334" y="1451.5479">+tentarAdquirir(Point p): boolean</text><text fill="#000000" font-family="sans-serif" font-size="15" lengthAdjust="spacing" textLength="104" x="2334" y="1472.415">+liberar(Point p)</text><text fill="#000000" font-family="sans-serif" font-size="15" lengthAdjust="spacing" textLength="357" x="2334" y="1493.2822">+tentarAdquirirCaminho(List&lt;Point&gt; caminho): boolean</text><text fill="#000000" font-family="sans-serif" font-size="15" lengthAdjust="spacing" textLength="252" x="2334" y="1514.1494">+liberarCaminho(List&lt;Point&gt; caminho)</text></g><!--class LeitorMalha--><g id="elem_LeitorMalha"><rect codeLine="184" fill="#ADD8E6" height="89.7344" id="LeitorMalha" rx="7.5" ry="7.5" style="stroke:#808000;stroke-width:0.5;" width="276" x="2898.5" y="1401.1094"/><ellipse cx="2999.75" cy="1417.1094" fill="#ADD1B2" rx="11" ry="11" style="stroke:#181818;stroke-width:1.0;"/><path d="M3002.5156,1412.9844 Q3002.6719,1412.7656 3002.8594,1412.6563 Q3003.0469,1412.5469 3003.2656,1412.5469 Q3003.6406,1412.5469 3003.875,1412.8125 Q3004.1094,1413.0625 3004.1094,1413.6719 L3004.1094,1415.125 Q3004.1094,1415.7344 3003.875,1416 Q3003.6406,1416.2656 3003.2656,1416.2656 Q3002.9219,1416.2656 3002.7188,1416.0625 Q3002.5156,1415.875 3002.4063,1415.3594 Q3002.3594,1415 3002.1719,1414.8125 Q3001.8438,1414.4375 3001.2344,1414.2188 Q3000.625,1414 3000,1414 Q2999.2344,1414 2998.5938,1414.3281 Q2997.9688,1414.6563 2997.4688,1415.4063 Q2996.9844,1416.1563 2996.9844,1417.1875 L2996.9844,1418.2813 Q2996.9844,1419.5156 2997.875,1420.3438 Q2998.7656,1421.1563 3000.3594,1421.1563 Q3001.2969,1421.1563 3001.9531,1420.9063 Q3002.3438,1420.75 3002.7656,1420.3125 Q3003.0313,1420.0469 3003.1719,1419.9688 Q3003.3281,1419.8906 3003.5313,1419.8906 Q3003.8594,1419.8906 3004.1094,1420.1563 Q3004.375,1420.4063 3004.375,1420.75 Q3004.375,1421.0938 3004.0313,1421.5 Q3003.5313,1422.0781 3002.7344,1422.4063 Q3001.6563,1422.8594 3000.3594,1422.8594 Q2998.8438,1422.8594 2997.6406,1422.2344 Q2996.6563,1421.7344 2995.9688,1420.6719 Q2995.2813,1419.5938 2995.2813,1418.3125 L2995.2813,1417.1563 Q2995.2813,1415.8281 2995.8906,1414.6875 Q2996.5156,1413.5313 2997.6094,1412.9219 Q2998.7031,1412.2969 2999.9375,1412.2969 Q3000.6719,1412.2969 3001.3125,1412.4688 Q3001.9688,1412.625 3002.5156,1412.9844 Z " fill="#000000"/><text fill="#000000" font-family="Segoe UI" font-size="12" lengthAdjust="spacing" textLength="63" x="3021.25" y="1422.0781">LeitorMalha</text><line style="stroke:#808000;stroke-width:0.5;" x1="2899.5" x2="3173.5" y1="1433.1094" y2="1433.1094"/><line style="stroke:#808000;stroke-width:0.5;" x1="2899.5" x2="3173.5" y1="1441.1094" y2="1441.1094"/><text fill="#000000" font-family="sans-serif" font-size="15" lengthAdjust="spacing" text-decoration="underline" textLength="227" x="2905.5" y="1461.6807">+lerArquivo(String caminho): Malha</text><text fill="#000000" font-family="sans-serif" font-size="15" lengthAdjust="spacing" text-decoration="underline" textLength="262" x="2905.5" y="1482.5479">-identificarPontos(int[][], int, int, List, List)</text></g><g id="elem_GMN48"><path d="M1079.5,86.6094 L1079.5,171.3945 A7.5,7.5 0 0 0 1087,178.8945 L1266,178.8945 A7.5,7.5 0 0 0 1273.5,171.3945 L1273.5,89.1094 L1263.5,79.1094 L1087,79.1094 A7.5,7.5 0 0 0 1079.5,86.6094 " fill="#FFFACD" style="stroke:#FFA500;stroke-width:0.5;"/><path d="M1263.5,79.1094 L1263.5,85.3594 A3.75,3.75 0 0 0 1267.25,89.1094 L1273.5,89.1094 L1263.5,79.1094 " fill="#FFFACD" style="stroke:#FFA500;stroke-width:1.0;"/><text fill="#000000" font-family="Segoe UI Light" font-size="11" font-weight="bold" lengthAdjust="spacing" textLength="158.2813" x="1086.5" y="96.9795">Arquitetura MVC: O Controlador</text><text fill="#000000" font-family="Segoe UI Light" font-size="11" lengthAdjust="spacing" textLength="167" x="1086.5" y="111.6104">Componente central que atua como</text><text fill="#000000" font-family="Segoe UI Light" font-size="11" lengthAdjust="spacing" textLength="171" x="1086.5" y="126.2412">intermedi&#225;rio entre o Modelo (l&#243;gica)</text><text fill="#000000" font-family="Segoe UI Light" font-size="11" lengthAdjust="spacing" textLength="145" x="1086.5" y="140.8721">e a Vis&#227;o (interface). Ele recebe</text><text fill="#000000" font-family="Segoe UI Light" font-size="11" lengthAdjust="spacing" textLength="151" x="1086.5" y="155.5029">a entrada do usu&#225;rio (via Vis&#227;o) e</text><text fill="#000000" font-family="Segoe UI Light" font-size="11" lengthAdjust="spacing" textLength="82" x="1086.5" y="170.1338">atualiza o Modelo.</text></g><g id="elem_GMN51"><path d="M6,263.6094 L6,333.7637 A7.5,7.5 0 0 0 13.5,341.2637 L245.5,341.2637 A7.5,7.5 0 0 0 253,333.7637 L253,266.1094 L243,256.1094 L13.5,256.1094 A7.5,7.5 0 0 0 6,263.6094 " fill="#FFFACD" style="stroke:#FFA500;stroke-width:0.5;"/><path d="M243,256.1094 L243,262.3594 A3.75,3.75 0 0 0 246.75,266.1094 L253,266.1094 L243,256.1094 " fill="#FFFACD" style="stroke:#FFA500;stroke-width:1.0;"/><text fill="#000000" font-family="Segoe UI Light" font-size="11" font-weight="bold" lengthAdjust="spacing" textLength="124.2188" x="13" y="273.9795">Arquitetura MVC: A Vis&#227;o</text><text fill="#000000" font-family="Segoe UI Light" font-size="11" lengthAdjust="spacing" textLength="161" x="13" y="288.6104">Respons&#225;vel pela apresenta&#231;&#227;o dos</text><text fill="#000000" font-family="Segoe UI Light" font-size="11" lengthAdjust="spacing" textLength="168" x="13" y="303.2412">dados ao usu&#225;rio. Renderiza a malha,</text><text fill="#000000" font-family="Segoe UI Light" font-size="11" lengthAdjust="spacing" textLength="175" x="13" y="317.8721">os ve&#237;culos e os controles da interface.</text><text fill="#000000" font-family="Segoe UI Light" font-size="11" lengthAdjust="spacing" textLength="224" x="13" y="332.5029">Notifica o Controlador sobre as a&#231;&#245;es do usu&#225;rio.</text></g><g id="elem_GMN54"><path d="M2948.5,557.6094 L2948.5,627.7637 A7.5,7.5 0 0 0 2956,635.2637 L3155,635.2637 A7.5,7.5 0 0 0 3162.5,627.7637 L3162.5,560.1094 L3152.5,550.1094 L2956,550.1094 A7.5,7.5 0 0 0 2948.5,557.6094 " fill="#FFFACD" style="stroke:#FFA500;stroke-width:0.5;"/><path d="M3152.5,550.1094 L3152.5,556.3594 A3.75,3.75 0 0 0 3156.25,560.1094 L3162.5,560.1094 L3152.5,550.1094 " fill="#FFFACD" style="stroke:#FFA500;stroke-width:1.0;"/><text fill="#000000" font-family="Segoe UI Light" font-size="11" font-weight="bold" lengthAdjust="spacing" textLength="136.5625" x="2955.5" y="567.9795">Arquitetura MVC: O Modelo</text><text fill="#000000" font-family="Segoe UI Light" font-size="11" lengthAdjust="spacing" textLength="181" x="2955.5" y="582.6104">Cont&#233;m os dados e a l&#243;gica de neg&#243;cio</text><text fill="#000000" font-family="Segoe UI Light" font-size="11" lengthAdjust="spacing" textLength="154" x="2955.5" y="597.2412">da aplica&#231;&#227;o. Representa o estado</text><text fill="#000000" font-family="Segoe UI Light" font-size="11" lengthAdjust="spacing" textLength="191" x="2955.5" y="611.8721">da simula&#231;&#227;o (malha, posi&#231;&#227;o dos ve&#237;culos)</text><text fill="#000000" font-family="Segoe UI Light" font-size="11" lengthAdjust="spacing" textLength="189" x="2955.5" y="626.5029">e n&#227;o tem conhecimento direto da Vis&#227;o.</text></g><g id="elem_GMN57"><path d="M1055.5,1396.6094 L1055.5,1496.0254 A7.5,7.5 0 0 0 1063,1503.5254 L1282,1503.5254 A7.5,7.5 0 0 0 1289.5,1496.0254 L1289.5,1399.1094 L1279.5,1389.1094 L1063,1389.1094 A7.5,7.5 0 0 0 1055.5,1396.6094 " fill="#FFFACD" style="stroke:#FFA500;stroke-width:0.5;"/><path d="M1279.5,1389.1094 L1279.5,1395.3594 A3.75,3.75 0 0 0 1283.25,1399.1094 L1289.5,1399.1094 L1279.5,1389.1094 " fill="#FFFACD" style="stroke:#FFA500;stroke-width:1.0;"/><text fill="#000000" font-family="Segoe UI Light" font-size="11" font-weight="bold" lengthAdjust="spacing" textLength="133.25" x="1062.5" y="1406.9795">Padr&#227;o de Projeto: Strategy</text><text fill="#000000" font-family="Segoe UI Light" font-size="11" lengthAdjust="spacing" textLength="178" x="1062.5" y="1421.6104">A interface `GerenciadorSincronizacao`</text><text fill="#000000" font-family="Segoe UI Light" font-size="11" lengthAdjust="spacing" textLength="148" x="1062.5" y="1436.2412">define uma fam&#237;lia de algoritmos</text><text fill="#000000" font-family="Segoe UI Light" font-size="11" lengthAdjust="spacing" textLength="211" x="1062.5" y="1450.8721">(Sem&#225;foro e Monitor). O `SimuladorController`</text><text fill="#000000" font-family="Segoe UI Light" font-size="11" lengthAdjust="spacing" textLength="190" x="1062.5" y="1465.5029">(contexto) pode selecionar qual algoritmo</text><text fill="#000000" font-family="Segoe UI Light" font-size="11" lengthAdjust="spacing" textLength="197" x="1062.5" y="1480.1338">utilizar em tempo de execu&#231;&#227;o, permitindo</text><text fill="#000000" font-family="Segoe UI Light" font-size="11" lengthAdjust="spacing" textLength="190" x="1062.5" y="1494.7646">alternar o mecanismo de exclus&#227;o m&#250;tua.</text></g><!--reverse link Runnable to SimuladorController--><g id="link_Runnable_SimuladorController"><path d="M1056.5,340.6694 C1056.5,357.4694 1056.5,363.6794 1056.5,390.7994 " fill="none" id="Runnable-backto-SimuladorController" style="stroke:#808000;stroke-width:1.0;stroke-dasharray:7.0,7.0;"/><polygon fill="none" points="1056.5,322.6694,1050.5,340.6694,1062.5,340.6694,1056.5,322.6694" style="stroke:#808000;stroke-width:1.0;"/></g><!--reverse link JFrame to JanelaPrincipal--><g id="link_JFrame_JanelaPrincipal"><path d="M637.5,634.7094 C637.5,698.6494 637.5,856.6294 637.5,958.8394 " fill="none" id="JFrame-backto-JanelaPrincipal" style="stroke:#808000;stroke-width:1.0;"/><polygon fill="none" points="637.5,616.7094,631.5,634.7094,643.5,634.7094,637.5,616.7094" style="stroke:#808000;stroke-width:1.0;"/></g><!--reverse link JPanel to PainelMalha--><g id="link_JPanel_PainelMalha"><path d="M392.3,1035.1094 C439.59,1035.1094 501.75,1035.1094 501.75,1035.1094 C501.75,1035.1094 501.75,1206.6194 501.75,1328.0594 " fill="none" id="JPanel-backto-PainelMalha" style="stroke:#808000;stroke-width:1.0;"/><polygon fill="none" points="374.3,1035.1094,392.3,1041.1094,392.3,1029.1094,374.3,1035.1094" style="stroke:#808000;stroke-width:1.0;"/></g><!--reverse link JPanel to PainelControle--><g id="link_JPanel_PainelControle"><path d="M340.5,1077.2894 C340.5,1119.6594 340.5,1192.7494 340.5,1275.8994 " fill="none" id="JPanel-backto-PainelControle" style="stroke:#808000;stroke-width:1.0;"/><polygon fill="none" points="340.5,1059.2894,334.5,1077.2894,346.5,1077.2894,340.5,1059.2894" style="stroke:#808000;stroke-width:1.0;"/></g><!--reverse link Thread to Veiculo--><g id="link_Thread_Veiculo"><path d="M1558.5,634.7094 C1558.5,678.1794 1558.5,755.4294 1558.5,844.0794 " fill="none" id="Thread-backto-Veiculo" style="stroke:#808000;stroke-width:1.0;"/><polygon fill="none" points="1558.5,616.7094,1552.5,634.7094,1564.5,634.7094,1558.5,616.7094" style="stroke:#808000;stroke-width:1.0;"/></g><!--reverse link GerenciadorSincronizacao to GerenciadorSemaforo--><g id="link_GerenciadorSincronizacao_GerenciadorSemaforo"><path d="M2141.83,1118.6894 C2141.83,1188.7194 2141.83,1282.0294 2141.83,1359.2894 " fill="none" id="GerenciadorSincronizacao-backto-GerenciadorSemaforo" style="stroke:#808000;stroke-width:1.0;stroke-dasharray:7.0,7.0;"/><polygon fill="none" points="2141.83,1100.6894,2135.83,1118.6894,2147.83,1118.6894,2141.83,1100.6894" style="stroke:#808000;stroke-width:1.0;"/></g><!--reverse link GerenciadorSincronizacao to GerenciadorSemaforo--><g id="link_GerenciadorSincronizacao_GerenciadorSemaforo"><path codeLine="219" d="M2036.67,1118.6894 C2036.67,1188.7194 2036.67,1282.0294 2036.67,1359.2894 " fill="none" id="GerenciadorSincronizacao-backto-GerenciadorSemaforo-1" style="stroke:#808000;stroke-width:1.0;stroke-dasharray:7.0,7.0;"/><polygon fill="none" points="2036.67,1100.6894,2030.67,1118.6894,2042.67,1118.6894,2036.67,1100.6894" style="stroke:#808000;stroke-width:1.0;"/></g><!--reverse link GerenciadorSincronizacao to GerenciadorMonitor--><g id="link_GerenciadorSincronizacao_GerenciadorMonitor"><path d="M2284.67,1119.0294 C2284.67,1229.2694 2284.67,1421.1094 2284.67,1421.1094 C2284.67,1421.1094 2301.95,1421.1094 2326.99,1421.1094 " fill="none" id="GerenciadorSincronizacao-backto-GerenciadorMonitor" style="stroke:#808000;stroke-width:1.0;stroke-dasharray:7.0,7.0;"/><polygon fill="none" points="2284.67,1101.0294,2278.67,1119.0294,2290.67,1119.0294,2284.67,1101.0294" style="stroke:#808000;stroke-width:1.0;"/></g><!--reverse link GerenciadorSincronizacao to GerenciadorMonitor--><g id="link_GerenciadorSincronizacao_GerenciadorMonitor"><path codeLine="220" d="M2265.83,1119.0094 C2265.83,1241.0894 2265.83,1472.1094 2265.83,1472.1094 C2265.83,1472.1094 2291.76,1472.1094 2326.81,1472.1094 " fill="none" id="GerenciadorSincronizacao-backto-GerenciadorMonitor-1" style="stroke:#808000;stroke-width:1.0;stroke-dasharray:7.0,7.0;"/><polygon fill="none" points="2265.83,1101.0094,2259.83,1119.0094,2271.83,1119.0094,2265.83,1101.0094" style="stroke:#808000;stroke-width:1.0;"/></g><!--link Main to Controller--><g id="link_Main_Controller"><path codeLine="193" d="M1353.5,187.6147 C1353.5,197.4496 1353.5,207.8103 1353.5,218.0931 C1353.5,259.2244 1353.5,299.1094 1353.5,299.1094 C1353.5,299.1094 1332.1825,299.1094 1310.5313,299.1094 C1299.7056,299.1094 1288.7966,299.1094 1280.427,299.1094 C1278.3346,299.1094 1276.401,299.1094 1274.667,299.1094 C1274.4503,299.1094 1274.2367,299.1094 1274.0262,299.1094 C1273.921,299.1094 1279.8166,299.1094 1279.713,299.1094 " fill="none" id="Main-to-Controller" style="stroke:#808000;stroke-width:1.0;"/><polygon fill="#808000" points="1273.713,299.1094,1282.713,303.1094,1278.713,299.1094,1282.713,295.1094,1273.713,299.1094" style="stroke:#808000;stroke-width:1.0;"/><text fill="#000000" font-family="sans-serif" font-size="13" lengthAdjust="spacing" textLength="30" x="1321.5" y="253.8145">Inicia</text></g><!--reverse link View to Controller--><g id="link_View_Controller"><path codeLine="194" d="M814.9631,819.1094 C819.2649,819.1094 817.5572,819.1094 821.8387,819.1094 C830.4018,819.1094 838.922,819.1094 847.3907,819.1094 C864.3282,819.1094 881.0601,819.1094 897.5176,819.1094 C963.3477,819.1094 1024.7891,819.1094 1077.4531,819.1094 C1182.7813,819.1094 1253,819.1094 1253,819.1094 C1253,819.1094 1253,818.9824 1253,818.7325 C1253,818.6075 1253,818.4518 1253,818.2658 " fill="none" id="View-backto-Controller" style="stroke:#808000;stroke-width:1.0;"/><polygon fill="#808000" points="808.9631,819.1094,817.9631,823.1094,813.9631,819.1094,817.9631,815.1094,808.9631,819.1094" style="stroke:#808000;stroke-width:1.0;"/><text fill="#000000" font-family="sans-serif" font-size="13" lengthAdjust="spacing" textLength="172" x="670.5" y="814.6045">Gerencia e recebe eventos da</text></g><!--link Controller to Model--><g id="link_Controller_Model"><path codeLine="195" d="M1273.5302,593.1094 C1273.6072,593.1094 1273.6846,593.1094 1273.7623,593.1094 C1278.7403,593.1094 1285.4119,593.1094 1292.1863,593.1094 C1298.9606,593.1094 1305.8378,593.1094 1311.227,593.1094 C1311.9007,593.1094 1312.5511,593.1094 1313.1751,593.1094 C1313.2531,593.1094 1307.3307,593.1094 1307.4079,593.1094 " fill="none" id="Controller-to-Model" style="stroke:#808000;stroke-width:1.0;"/><polygon fill="#808000" points="1313.4079,593.1094,1304.4079,589.1094,1308.4079,593.1094,1304.4079,597.1094,1313.4079,593.1094" style="stroke:#808000;stroke-width:1.0;"/><text fill="#000000" font-family="sans-serif" font-size="13" lengthAdjust="spacing" textLength="63" x="1267.5" y="469.5145">Manipula o</text></g><!--link Controller to Util--><g id="link_Controller_Util"><path codeLine="198" d="M1278.3963,311.1094 C1291.9774,311.1094 1306.6652,311.1094 1322.359,311.1094 C1353.7466,311.1094 1389.1582,311.1094 1427.7891,311.1094 C1582.3125,311.1094 1788.3438,311.1094 1994.375,311.1094 C2406.4375,311.1094 2818.5,311.1094 2818.5,311.1094 C2818.5,311.1094 2818.5,588.2469 2818.5,868.6331 C2818.5,1008.8263 2818.5,1149.8316 2818.5,1257.413 C2818.5,1284.3083 2818.5,1309.1147 2818.5,1331.2971 C2818.5,1336.8427 2818.5,1342.2243 2818.5,1347.4336 C2818.5,1348.7359 2818.5,1344.0274 2818.5,1345.3081 " fill="none" id="Controller-to-Util" style="stroke:#808000;stroke-width:1.0;stroke-dasharray:7.0,7.0;"/><polygon fill="#808000" points="2818.5,1351.3081,2822.5,1342.3081,2818.5,1346.3081,2814.5,1342.3081,2818.5,1351.3081" style="stroke:#808000;stroke-width:1.0;"/><text fill="#000000" font-family="sans-serif" font-size="13" lengthAdjust="spacing" textLength="23" x="2483.05" y="306.6045">Usa</text></g><!--link Util to Malha--><g id="link_Util_Malha"><path codeLine="199" d="M2818.5,1516.019 C2818.5,1518.2413 2818.5,1520.4999 2818.5,1522.7923 C2818.5,1527.377 2818.5,1532.0967 2818.5,1536.931 C2818.5,1546.5997 2818.5,1556.7267 2818.5,1567.1489 C2818.5,1587.9934 2818.5,1610.0184 2818.5,1631.9181 C2818.5,1719.5169 2818.5,1805.1094 2818.5,1805.1094 C2818.5,1805.1094 2347.49,1805.1094 2091.51,1805.1094 " fill="none" id="Util-to-Malha" style="stroke:#808000;stroke-width:1.0;stroke-dasharray:7.0,7.0;"/><polygon fill="#808000" points="2085.51,1805.1094,2094.51,1809.1094,2090.51,1805.1094,2094.51,1801.1094,2085.51,1805.1094" style="stroke:#808000;stroke-width:1.0;"/><text fill="#000000" font-family="sans-serif" font-size="13" lengthAdjust="spacing" textLength="23" x="2606.21" y="1800.6045">Cria</text></g><!--link SimuladorController to JanelaPrincipal--><g id="link_SimuladorController_JanelaPrincipal"><path codeLine="202" d="M859.4,706.1094 C780.38,706.1094 718,706.1094 718,706.1094 C718,706.1094 718,855.6094 718,952.7994 " fill="none" id="SimuladorController-JanelaPrincipal" style="stroke:#808000;stroke-width:1.0;"/><polygon fill="none" points="871.4,706.1094,865.4,702.1094,859.4,706.1094,865.4,710.1094,871.4,706.1094" style="stroke:#808000;stroke-width:1.0;"/><polygon fill="#808000" points="718,958.7994,722,949.7994,718,953.7994,714,949.7994,718,958.7994" style="stroke:#808000;stroke-width:1.0;"/><text fill="#000000" font-family="sans-serif" font-size="13" lengthAdjust="spacing" textLength="98" x="618" y="751.2545">Cria e gerencia a</text></g><!--link SimuladorController to Veiculo--><g id="link_SimuladorController_Veiculo"><path codeLine="203" d="M1253.74,755.1094 C1311.79,755.1094 1349,755.1094 1349,755.1094 C1349,755.1094 1349,788.6894 1349,838.0894 " fill="none" id="SimuladorController-Veiculo" style="stroke:#808000;stroke-width:1.0;"/><polygon fill="none" points="1241.74,755.1094,1247.74,759.1094,1253.74,755.1094,1247.74,751.1094,1241.74,755.1094" style="stroke:#808000;stroke-width:1.0;"/><polygon fill="#808000" points="1349,844.0894,1353,835.0894,1349,839.0894,1345,835.0894,1349,844.0894" style="stroke:#808000;stroke-width:1.0;"/><text fill="#000000" font-family="sans-serif" font-size="13" lengthAdjust="spacing" textLength="87" x="1250.86" y="770.6045">Cria e gerencia</text><text fill="#000000" font-family="sans-serif" font-size="13" lengthAdjust="spacing" textLength="7" x="1250.7447" y="758.0931">1</text><text fill="#000000" font-family="sans-serif" font-size="13" lengthAdjust="spacing" textLength="5" x="1334.0141" y="832.1562">*</text></g><!--link SimuladorController to Malha--><g id="link_SimuladorController_Malha"><path codeLine="204" d="M1253.84,715.1094 C1481.01,715.1094 1824.17,715.1094 1824.17,715.1094 C1824.17,715.1094 1824.17,1366.0994 1824.17,1659.9494 " fill="none" id="SimuladorController-Malha" style="stroke:#808000;stroke-width:1.0;"/><polygon fill="none" points="1241.84,715.1094,1247.84,719.1094,1253.84,715.1094,1247.84,711.1094,1241.84,715.1094" style="stroke:#808000;stroke-width:1.0;"/><polygon fill="#808000" points="1824.17,1665.9494,1828.17,1656.9494,1824.17,1660.9494,1820.17,1656.9494,1824.17,1665.9494" style="stroke:#808000;stroke-width:1.0;"/><text fill="#000000" font-family="sans-serif" font-size="13" lengthAdjust="spacing" textLength="105" x="1826.17" y="894.8645">Carrega e utiliza a</text><text fill="#000000" font-family="sans-serif" font-size="13" lengthAdjust="spacing" textLength="7" x="1250.2556" y="716.05">1</text><text fill="#000000" font-family="sans-serif" font-size="13" lengthAdjust="spacing" textLength="7" x="1810.273" y="1654.3642">1</text></g><!--link SimuladorController to GerenciadorSincronizacao--><g id="link_SimuladorController_GerenciadorSincronizacao"><path codeLine="206" d="M1253.62,675.1094 C1557.68,675.1094 2117.5,675.1094 2117.5,675.1094 C2117.5,675.1094 2117.5,859.6594 2117.5,963.4994 " fill="none" id="SimuladorController-GerenciadorSincronizacao" style="stroke:#808000;stroke-width:1.0;"/><polygon fill="none" points="1241.62,675.1094,1247.62,679.1094,1253.62,675.1094,1247.62,671.1094,1241.62,675.1094" style="stroke:#808000;stroke-width:1.0;"/><polygon fill="#808000" points="2117.5,969.4994,2121.5,960.4994,2117.5,964.4994,2113.5,960.4994,2117.5,969.4994" style="stroke:#808000;stroke-width:1.0;"/><text fill="#000000" font-family="sans-serif" font-size="13" lengthAdjust="spacing" textLength="113" x="1711.75" y="670.6045">Usa a estrat&#233;gia de</text></g><!--reverse link JanelaPrincipal to PainelMalha--><g id="link_JanelaPrincipal_PainelMalha"><path codeLine="209" d="M637.5,1123.4494 C637.5,1184.1594 637.5,1258.1494 637.5,1327.7694 " fill="none" id="JanelaPrincipal-backto-PainelMalha" style="stroke:#808000;stroke-width:1.0;"/><polygon fill="#808000" points="637.5,1111.4494,633.5,1117.4494,637.5,1123.4494,641.5,1117.4494,637.5,1111.4494" style="stroke:#808000;stroke-width:1.0;"/><text fill="#000000" font-family="sans-serif" font-size="13" lengthAdjust="spacing" textLength="45" x="590.5" y="1215.1045">Cont&#233;m</text><text fill="#000000" font-family="sans-serif" font-size="13" lengthAdjust="spacing" textLength="7" x="629.0852" y="1133.8125">1</text><text fill="#000000" font-family="sans-serif" font-size="13" lengthAdjust="spacing" textLength="7" x="629.2117" y="1316.1243">1</text></g><!--reverse link JanelaPrincipal to PainelControle--><g id="link_JanelaPrincipal_PainelControle"><path codeLine="210" d="M499.9,1085.1094 C439.81,1085.1094 392.75,1085.1094 392.75,1085.1094 C392.75,1085.1094 392.75,1182.3694 392.75,1275.9194 " fill="none" id="JanelaPrincipal-backto-PainelControle" style="stroke:#808000;stroke-width:1.0;"/><polygon fill="#808000" points="511.9,1085.1094,505.9,1081.1094,499.9,1085.1094,505.9,1089.1094,511.9,1085.1094" style="stroke:#808000;stroke-width:1.0;"/><text fill="#000000" font-family="sans-serif" font-size="13" lengthAdjust="spacing" textLength="45" x="345.75" y="1116.4345">Cont&#233;m</text><text fill="#000000" font-family="sans-serif" font-size="13" lengthAdjust="spacing" textLength="7" x="495.972" y="1084.1034">1</text><text fill="#000000" font-family="sans-serif" font-size="13" lengthAdjust="spacing" textLength="7" x="389.5418" y="1264.2997">1</text></g><!--link Veiculo to Malha--><g id="link_Veiculo_Malha"><path codeLine="213" d="M1783.76,1164.1094 C1799.77,1164.1094 1797.83,1164.1094 1797.83,1164.1094 C1797.83,1164.1094 1797.83,1471.4994 1797.83,1660.0194 " fill="none" id="Veiculo-Malha" style="stroke:#808000;stroke-width:1.0;"/><polygon fill="none" points="1771.76,1164.1094,1777.76,1168.1094,1783.76,1164.1094,1777.76,1160.1094,1771.76,1164.1094" style="stroke:#808000;stroke-width:1.0;"/><polygon fill="#808000" points="1797.83,1666.0194,1801.83,1657.0194,1797.83,1661.0194,1793.83,1657.0194,1797.83,1666.0194" style="stroke:#808000;stroke-width:1.0;"/><text fill="#000000" font-family="sans-serif" font-size="13" lengthAdjust="spacing" textLength="118" x="1677.83" y="1397.5245">Existe e se move na</text></g><!--link Veiculo to PainelMalha--><g id="link_Veiculo_PainelMalha"><path codeLine="214" d="M1345.48,1169.1094 C1112.94,1169.1094 773.25,1169.1094 773.25,1169.1094 C773.25,1169.1094 773.25,1246.5494 773.25,1321.8294 " fill="none" id="Veiculo-to-PainelMalha" style="stroke:#808000;stroke-width:1.0;stroke-dasharray:7.0,7.0;"/><polygon fill="#808000" points="773.25,1327.8294,777.25,1318.8294,773.25,1322.8294,769.25,1318.8294,773.25,1327.8294" style="stroke:#808000;stroke-width:1.0;"/><text fill="#000000" font-family="sans-serif" font-size="13" lengthAdjust="spacing" textLength="97" x="881" y="1164.6045">Solicita repintura</text></g><!--link Veiculo to GerenciadorSincronizacao--><g id="link_Veiculo_GerenciadorSincronizacao"><path codeLine="216" d="M1783.83,1069.1094 C1836.41,1069.1094 1874.3,1069.1094 1925.47,1069.1094 " fill="none" id="Veiculo-GerenciadorSincronizacao" style="stroke:#808000;stroke-width:1.0;"/><polygon fill="none" points="1771.83,1069.1094,1777.83,1073.1094,1783.83,1069.1094,1777.83,1065.1094,1771.83,1069.1094" style="stroke:#808000;stroke-width:1.0;"/><polygon fill="#808000" points="1931.47,1069.1094,1922.47,1065.1094,1926.47,1069.1094,1922.47,1073.1094,1931.47,1069.1094" style="stroke:#808000;stroke-width:1.0;"/><text fill="#000000" font-family="sans-serif" font-size="13" lengthAdjust="spacing" textLength="108" x="1797.65" y="1084.6045">&#201; sincronizado por</text></g><!--link GerenciadorSemaforo to Malha--><g id="link_GerenciadorSemaforo_Malha"><path codeLine="221" d="M1980.75,1533.0094 C1980.75,1572.8594 1980.75,1615.0794 1980.75,1659.7994 " fill="none" id="GerenciadorSemaforo-to-Malha" style="stroke:#808000;stroke-width:1.0;"/><polygon fill="#808000" points="1980.75,1665.7994,1984.75,1656.7994,1980.75,1660.7994,1976.75,1656.7994,1980.75,1665.7994" style="stroke:#808000;stroke-width:1.0;"/><text fill="#000000" font-family="sans-serif" font-size="13" lengthAdjust="spacing" textLength="126" x="1852.75" y="1594.9045">Acessa sem&#225;foros da</text></g><!--link GMN48 to Controller--><g id="link_GMN48_Controller"><path d="M1265.5,179.5094 C1265.5,191.4144 1265.5,204.4081 1265.5,217.2958 C1265.5,220.5177 1265.5,223.733 1265.5,226.923 C1265.5,227.1223 1265.5,227.3216 1265.5,227.5208 " fill="none" id="GMN48-Controller" style="stroke:#808000;stroke-width:1.0;stroke-dasharray:7.0,7.0;"/></g><!--link GMN51 to View--><g id="link_GMN51_View"><path d="M129.5,341.3594 C129.5,380.8544 129.5,441.0369 129.5,492.5994 C129.5,499.0447 129.5,505.3553 129.5,511.474 C129.5,514.5334 129.5,517.5447 129.5,520.501 C129.5,520.8705 129.5,521.2391 129.5,521.6069 " fill="none" id="GMN51-View" style="stroke:#808000;stroke-width:1.0;stroke-dasharray:7.0,7.0;"/></g><!--link Model to GMN54--><g id="link_Model_GMN54"><path d="M2763.2742,560.1094 C2765.4903,560.1094 2767.6973,560.1094 2769.895,560.1094 C2840.2222,560.1094 2901.0838,560.1094 2948.34,560.1094 " fill="none" id="Model-GMN54" style="stroke:#808000;stroke-width:1.0;stroke-dasharray:7.0,7.0;"/></g><!--link Sincronizacao to GMN57--><g id="link_Sincronizacao_GMN57"><path d="M1842.9895,1446.1094 C1842.7485,1446.1094 1842.5026,1446.1094 1842.2519,1446.1094 C1840.2463,1446.1094 1837.9312,1446.1094 1835.3232,1446.1094 C1824.8909,1446.1094 1809.7708,1446.1094 1791.0197,1446.1094 C1753.5175,1446.1094 1701.4913,1446.1094 1643.395,1446.1094 C1527.2025,1446.1094 1386.73,1446.1094 1289.61,1446.1094 " fill="none" id="Sincronizacao-GMN57" style="stroke:#808000;stroke-width:1.0;stroke-dasharray:7.0,7.0;"/></g><!--SRC=[tHbDRziuzkvVGNWELRwCoM06M1Y30ccI1XuqZITkSoaAb95eXwr4QYZAJTBD3zYVKSnXCGlqDDZBNlt7zhr7Ig9aEKrsUbeVR8llW-_xFL9FsAlL5rkccYMQ7Kc-C3pZ0ojjAkf7bWXscFAY40Kx4fQdLnoGzzXCPcKAVmqYl3AhptEnq8F14xQtjySEjPhBHMduwf-hVmCXe1patAp-fMB96VpZx7Jr-Le2U-1jn2r7ia7nGIe4PkpJWC7d2Jikh0Jn5iBmb9Po7d_W2p6pDo2Z4R7bQf4A0iKevO6rHbwMLanYhMRoLh3l2PXA9UnDBfWszaepMYjGbOzIBTYSfuKOr7lc83VFXBAQbbxgH1GYPtzphCwv-e2FFxd7AKyIvB4_QCbCIiSwoxK2Hg8Wu65BnETQsKETWWc_-vu-6t18ZVsVtEQwLCcXDaeON6eKzoR3ppEmqS8uHEJ-GYwkxBEq53N6WJ7wemEUfNBP09vfamZJ1q51Ne9Hs0pyBDZhIGlYHFo1rkxeMuBIPivZyJN1PXzkDibshczusWA6ygr37okZ3wP0meTm-B5NcXF3RmBMIjjxDHUPLeTNSZxNgj_u1WBx7isSxNgas_T2t5MvEEKnoWBHE0KaZN-EbJKyuImwvL9jKUfLfXXsaOQC5mpnI1iNQatkEmrtsAV2SYlZEvO1PZI3u5MBDsyPDujYQz0d3bG8QxHZqjhV0r9XjcZhvhbFW00gipmLcBG5Eo-LufTfvO0zzfuhaV8n-uL-fo1TB7DVKVOW3A0uf9wL68E8uNCBwHJhNuL13nwSEK2uj1GoXjfQZC5NXVtvmZq-zL1xPGHFJeGHM1D15Q1-HMiUeI0TOwuFh5m2y5A3C5nLua1DcgX266akwdtQA8k6zmmKDbh9M-GtPYSR8DwPFTQDjZnJgIGGcfFNatefviQ81JUaUxJL5GFgC9PfSxp4WbfqESqgDMi0Y2QCuORKwmDqINQOALNK7sSNibZzhbbq8SN7JgItG1Hh-2-8iawqC75jXKfW_Rd1LFpqiCXuG7JjTBUg5Li86t14utOt270gdWrQiClTeDOhOD7eD4K9QfqU6Suxh2MbNok4TGjkA-8PmAguZLhywdqSvdTaFsYJlf56K6VpAnaNR5651JPdTLN5NmN_uMWNUr3prKMdGbSy7ByMzrwADJDNBjXaQNjjVxL9ayE_l0B4vrAaIOCmmLwwvAdk0PlBcSZuN1i4dlD4wcUbjLhLu5F8RgjDB_JIgebBGm1t8SUTFBm7fSx8DiuEwmPc4xA1qXYlhcKqu5hbDQ0iAeLd8XMnr0fALRVi48zdjNO8RWlcmCThfUP-lA3oX8ZhPUSKoZFChH7zTkfE6-RwA_xr8U62nwLCCq10EJSo6MEOlNdxvcsmdbCS7mdVhtrwJZLWFkr1ct6v6QdmbYsE-6bL0NA7jilGxFcLDgAXs75oHbwgNM9RVGCfVMq5w63ExXveIi1g8xsGa78K6C2w3OBvg5GRO1SGC2Qgyx47Ozgs5d91QVkHo5OjbBjmulRnMsUsQzyjfzLp4NH1YorrahI5WZwujfBhGb8kaU43m1BY9WQH4j4bMQlNOUzPRnf_QK2ekdu6FjBdK1qXJnFT7r8xbP4Y7qGamsueqEx6tSB0gJfyhR1U2ZE5iw9Zp7AZyJWvTQOBCJauUYcAWfj3KzwwOrr5X7xsaH2Iv2cKwFT0u7J4vfEAYcfhK_B4F0LDeR6qH7akyOTQibwBnac2W5JxuXO48D6sgI3sMgUMOMCiE6R_hgcIj0mOX69p7DjaxG3Pp_JyiW3JnFQEGNp317UG_5PA63WhwtLgRYzbAY_XxDwGF7GFR_eeC7KLSe_OzZukDR7FwIQlGmlvOXMUBXvemA2QVgsCEl5xjbsVd1hqH_haAuxuwzR_LYRtyyh_P76gd5eKPt6PGqw3uMTYBLF_7yotyOp_sifKsjLd8tNH7Zj229KAN0XEEoy4cZsSEu9ZFHm13mmejzJ-S1_e4nuIQWAPW4Na7AfODMZNCq8pCpVJGkVmTWw78Phig5eN3EykmBFr2ejUy1jTsk0QmGrPGEyXUNMM6hlRYxsduLK2FD5XBpekVYk5WVBF_D36eYDfm1IGRuukqHzLctZCXcwk70v2bgcOsuele5H1o-YUKbp22S2TW5dI8JHubGEKRdyWFULAvj1Ac1wYHcVXvcK1oordqNMgL61vtCumxZqI48r6JvsxWVdh0hQd1robFKUE4G0F3Me5UxghNhowXKX1TrGtkJeGPj1t3wFtl156tVEpvmy6gIOF1flryHZk3nsVuVRGYrWDM-jCliPYVxYcfRkn01ub9iKjoV647PwTdqzE9aTdxE3NrvCn0qifq5TNiKxNkJW8-1b-r2f6mytMwC4URQnfpaNWHO7DpAx-M4YyX2Ul18wWXWvpC3Z8XpATaGj9iy3MeDS3Q8jjo2_y9OJmAc3iBjzMVsJ3Hr7N9zoGGLjOi2BPOD3sPM2SMeJZQoW7a2lGFMd8OmfyqoR3kEsJVgPJo4hB8TzoC4zflebNkoAtilKHJbtzWnNr6WYGQzDZfYbF3DvApT3tOd73eiwKjpLurCO__tqq-ggeVjhuzfnzBnyyK03M4my7CSxkE4kjFjCmHUNJzucNsa8675_du7YErwIkvz7bkzKvq_EmMZ6slKrTp0eC3dPwSJXkYYiAihqDIFLTas2nmCD1og17m3cYv1WhU0YYvCj48gcTCiGIJDUd_dJrvm84mgO6TFKTP3s3RutOSLgr1K3Yn05lv242og9qNAEbh6YXEo4QI43LgjffD81p9xrg6BHqnkJer_R0CoH5uUm6YXQhpt2kP3c48UEvmTikwq8DfC7NLd3U1AlpHh8HKAf462gSRZZT1Jn0MehL5xhI0RtXA_QLWOfKhVreWA_Kt730TEjDGA4lmP3WnI0Zwbsxob8Yehgkj6pmhhEKTomL9qOnb92Gd7bVuUoan6Br9mmPf3FO0eEA384ALvO1YQ4m0xd3ShVqpboHCmMhgp0QiB692mU5wrPaQ9mh4KitpoGmS-1FvV0rPI-rjJghjHrrZ-NRsrNbm1SzHhy7TkEwYf3w1y4XyDscj7w7Qeavr5LMPfpDURRwab83OZnTQ2DjHa4HpQg4fC69qXp2-eozw-c2o3J2O13N5c8Ptrr0GllBEmFP1IbMSmTStvKD0pE1gN9IIboBk2IpWeKX-wILYhp0K-g4q6jP9c8OdOhC4yHfIPcNhVu3gTFOzBy0]--></g></svg>